<svg width="179" height="135" fill="none" xmlns="http://www.w3.org/2000/svg"><path d="M37.693 128.258c.828-.478 1.049-1.395.615-2.763a20.765 20.765 0 0 1-1.646-6.746c-.092-.775-.183-1.275-.333-1.465-.017-.03-.034-.059-.063-.042l-.047 1.013c.038.886.066 1.344.006 1.378l-.108-.53c-.258-1.745-.751-3.078-1.438-4.063-.098-.101-.132-.161-.192-.126-.16.132-.093 1.001.22 2.636.142.588.263 1.071.358 1.372.228.736.34 1.342.28 1.851-.012.322-.15.56-.387.697-.237.137-.325.464-.276 1.027.05.564.038.886-.08.954-.06.035-.106.022-.187-.05-.103-.177-.231-.537-.327-1.113l-.13-.635a32.939 32.939 0 0 1-.727-4.199 30.071 30.071 0 0 0-.958-4.735c-.116-.407-.333-1.465-.59-3.211-.324-2.063-.524-3.368-.557-3.902-.009-.153-.083-.623-.222-1.411-.168-.495.021-.92.554-1.228.77-.444 1.022-.827.805-1.135-.115-.131-.272-.198-.476-.278-.234-.062-.374-.1-.425-.189l-.017-.029c-.051-.089-.031-.259.108-.497 1.74-2.386 3.652-4.2 5.665-5.362.83-.479 1.65-.835 2.51-1.055a7.03 7.03 0 0 1-2.01 1.714c-.238.136-.445.256-.64.329-.769.444-1.302.752-1.58.952-.47.35-.74.703-.852 1.123-.02.17.001.276.035.335.15.19.586.057 1.355-.388.71-.41 1.62-1.092 2.772-2.034l1.521-1.194c.22-.166.44-.332.736-.503.296-.171.592-.342.845-.45.284-.123.52-.26.728-.38.237-.137.474-.273.634-.406.398-.268.65-.651.758-1.147l-.004-.077c-.035-.059-.175-.097-.45-.095-.327-.088-.53-.167-.582-.256-.017-.03-.005-.077.054-.11a.262.262 0 0 0 .183-.027c.148-.086.104-.297-.13-.635-.235-.338-.49-.507-.753-.552-.217-.033-.475-.002-.746.075-.347.082-.547.079-.645-.023-.068-.118-.043-.211.105-.297.118-.068.284-.124.508-.214.241-.06.449-.18.685-.317.385-.222.532-.583.436-1.16-.108-.529-.242-.965-.476-1.303-.48-.078-1.394.252-2.726 1.021a49.277 49.277 0 0 0-6.53 4.48c-1.153.943-1.855 1.506-2.091 1.642-.047-.012-.128-.084-.243-.215l-.342-.592a4.139 4.139 0 0 0-.65-1.124c-.068-.119-.131-.161-.178-.174l.15.466c.168.495.186.8.068.869-.165.056-.322-.011-.437-.142-.103-.178-.215-.508-.26-.995-.04-.411-.006-.628.142-.713.059-.034.229-.014.403.083.204.08.373.1.433.066.148-.086.04-.34-.245-.767l-.38-.452c-.269-.397-.435-.617-.44-.693-.004-.076.008-.123.067-.157.06-.034.136-.039.242-.06a.634.634 0 0 0 .241-.06c.148-.086.152-.286-.036-.611-.198-.478-.199-.754-.021-.857.207-.12.21-.594.006-1.424-.091-.5-.203-.83-.352-1.02-.098-.102-.162-.144-.267-.122-.301.095-.483.12-.5.091l-.081-.071c-.034-.06.05-.187.27-.353.434-.41.586-.694.483-.872l-.217-.308c-.384-.528-1.42-.68-3.118-.41l-1.5.273 1.2-.93c1.212-.975 1.837-1.534 1.875-1.674-.043-.211-.146-.389-.266-.596-.115-.131-.208-.156-.326-.088-.119.069-.144.162-.029.293.034.06-.008.123-.156.208-.384.222-.855.297-1.453.287-.246-.016-.386-.054-.466-.126-.287-.426-.14-.787.393-1.095l.922-.453c.415-.24.617-.436.591-.618-.01-.152.4-.468 1.23-.947l1.32-.722c1.509-.871 2.493-1.558 2.907-2.073.13-.115.202-.196.291-.247.148-.086.271-.078.352-.006.08.072.25.092.492.031.288-.047.571-.172.944-.347.786-.415 1.257-.489 1.504-.198.085.148.06.242-.088.327l-.194.073c-.306.019-.932.301-1.879.848-.947.547-1.527.842-1.751.932-.207.12-.223.366 0 .75.148.19.263.321.374.376.11.055.576-.096 1.392-.528.859-.495 1.298-.828 1.289-.98.126-.192.536-.507 1.187-.883.178-.103.627-.283 1.346-.54a12.89 12.89 0 0 1 1.774-.551c.936-.225 1.555-.109 1.905.36.2.28.326.838.347 1.695-.02.445.029.733.097.851.047.013.093.025.2.004l.316-.34c.612-.512 1.067-1.091 1.365-1.737.31-.968.524-1.486.583-1.52.106-.022.216.033.349.193.29.504.394.957.277 1.3-.07.357-.087.603.028.734l.064.042c.06-.034.169-.255.281-.675.142-.438.263-.98.328-1.689.035-.691.01-1.348-.136-2.013a4.283 4.283 0 0 0-.746-1.701c-.618-.867-1.54-1.439-2.814-1.73-1.438-.235-3.023-.11-4.78.47a25.52 25.52 0 0 0-4.743 2.108l-.9.559c-.004.2-.207.395-.532.583l-.284.124c-.554.202-.914.33-1.092.433-.088.052-.177.103-.249.184-.469.35-1.222.824-2.198 1.387-1.742 1.085-3.349 2.13-4.756 3.18-.688.516-1.098.832-1.195 1.006-.126.191-.316.34-.583.494-.266.154-.748.55-1.415 1.172-.625.559-1.583 1.428-2.981 2.63-.714.609-1.457 1.235-2.154 1.874l-.988.887a26.573 26.573 0 0 0-3.9 3.909c-1.197 1.48-1.825 3.264-1.943 5.384-.065.709-.037 1.166.112 1.356l.017.03c.179.173.641.222 1.417.13a7.801 7.801 0 0 1-.316.615c-.265.43-.395.82-.465 1.177-.041.34.05.84.303 1.482l.146.39c.104.453.25.842.433 1.092.184.249.4.282.654.175.592-.342.966-.992 1.17-1.939.112-.42.301-.845.507-1.24a20.711 20.711 0 0 0 1.63-2.44c.875-1.492 1.482-2.356 1.837-2.56.047.012.106-.023.195-.074.237-.137.481-.396.764-.796.252-.383.628-.758 1.092-1.184l.16-.132c.31-.217.846-.724 1.669-1.555.173-.178.62-.634 1.359-1.337.274-.277.523-.46.701-.563.503-.29 1.335-.968 2.467-2.016.042-.064.084-.127.114-.144.148-.086.288-.048.437.142.269.397.545 1.422.828 3.074l1.285 6.875c.426 2.24.602 3.639.54 4.148a2.223 2.223 0 0 1-.424.837c-.186.226-.502.566-.886 1.064-1.716 2.017-2.822 3.247-3.362 3.678-.427.286-.816.707-1.135 1.247-.24.336-.552.753-.906 1.234-.742.902-1.18 1.51-1.315 1.824-.095.45-.009.874.26 1.271.252.368.537.519.842.501.305-.019.538.044.734.247.081.071.196.202.37.299.685.433 1.152.559 1.376.469.254-.108.39-.146.449-.18.355-.206.718-.534 1.072-1.014a46.582 46.582 0 0 1 3.092-3.601c.11.055.174.097.263.046.059-.034.106-.022.123.008l-.042.064c-.144.161-.152.284-.083.403.08.071.238.138.442.218.496.108.827.272 1.01.521.167.22.232.538.213.983-.091.526.619 4.695 2.146 12.535.122.758.312 1.635.618 2.643.215.783.498 1.409.8 1.866.133.16.265.321.427.464 2.44 1.63 4.452 1.969 6.02 1.063zm-6.538-25.747c-.212.043-.386-.053-.587-.332-.098-.102-.072-.195.016-.246.119-.069.195-.073.306-.019.11.055.19.127.272.198.12.208.111.331-.007.399zm-18.493-9.61c-.237.138-.39.147-.488.045-.166-.22.428-1.036 1.766-2.48 1.67-1.753 2.743-2.767 3.217-3.04l.089-.052c.355-.205.748-.55 1.203-1.129.443-.532.895-.91 1.309-1.15l.431-.21c.326-.188.6-.465.794-.813.193-.349.438-.608.734-.78.474-.273.826-.278 1.085-.034.12.208.028.458-.34.71-.368.252-.612.511-.764.796-.151.285-.59.617-1.271 1.01-.677.47-.951.747-.883.865.116.13.031.258-.235.412l-.774.368c-.326.188-.452.38-.38.574.074.195.036.335-.112.42-.089.052-.178.103-.3.095-.136.039-.33.112-.567.249a6.53 6.53 0 0 0-1.42 1.096c-.895.91-1.63 1.69-2.22 2.307-.346.358-.637.605-.874.742zm25.047-18.96c-.385.222-.791.339-1.244.443-.424.086-.704.011-.819-.12-.051-.088-.026-.182.151-.284.237-.137.762-.322 1.516-.52.53-.108.817-.156.886-.038.017.03.017.03-.025.093a1.633 1.633 0 0 1-.465.426zm-3.432 45.12.038-.14c-.005-.077-.002-.276-.02-.581a5 5 0 0 0-.094-1.051c-.07-.394-.122-.758-.187-1.076a2.503 2.503 0 0 0-.258-.72l-.122-.007c-.104.572-.046 1.289.192 2.178.168.771.272 1.224.387 1.355.017.029.034.059.064.042zm-.548-4.025c.131-.115.065-.709-.093-1.802-.252-1.393-.519-2.266-.805-2.692-.08-.072-.098-.102-.127-.085-.118.069-.147.361-.085.878.098 1.128.262 1.822.48 2.131l.052.364c-.046-.012-.046-.012-.076.005s-.089.051-.084.127c.09.224.21.432.33.639.114.131.246.291.408.435zm-.23-2.314a.26.26 0 0 1-.027-.182c-.017-.03-.005-.077-.022-.106.013-.047-.021-.106-.009-.153-.017-.029-.004-.076-.068-.118.056.165.03.258-.058.31-.03.017-.11-.055-.196-.203-.183-.249-.359-.622-.514-1.164-.082-.347-.108-.529-.066-.593.059-.034.17.021.314.134.286.427.483.906.528 1.393.149.19.163.419.117.682zm-.439-2.194c.09-.051.088-.327.073-.831-.045-.488-.093-.776-.144-.865-.166-.219-.298-.38-.426-.464-.03.017-.042.064-.084.127-.025.094-.05.187-.058.31l-.024.369c-.037.14-.033.217-.016.246.017.03.069.119.107.254.04.135.108.254.159.343l.137.237c.132.16.2.278.276.274zm-9.101.163c.25-.183.6-.464.958-.869.27-.353.396-.544.362-.603-.017-.03-.123-.008-.3.094l-.457.303-.743.627c-.245.259-.325.463-.244.535.052.089.157.067.335-.035l.089-.052zm8.698-2.298c.113-.145.11-.696-.02-1.607l-.172-1.322c.06-.034.072-.081.085-.127-.012-.704-.086-1.174-.24-1.441a3.75 3.75 0 0 1-.286-.427c-.315-.409-.524-.565-.672-.48-.089.051.001.276.224.66-.085.128-.121.544-.05 1.213.142 1.339.379 2.229.635 2.673.017.029.005.076.039.135.004.076.038.135.06.241.022.106.056.165.073.195-.012.047.005.076.039.136.132.16.196.202.255.168l.03-.017zm-6.892.505c.444-.256.549-.553.357-.955-.047-.013-.106.022-.166.056-.059.034-.148.085-.249.183a1.834 1.834 0 0 0-.312.417c-.067.157-.122.268-.04.339.05.089.203.08.41-.04zm7.609-7.944c.059-.035.13-.115.232-.213.084-.128.139-.238.147-.361.037-.14.033-.217-.001-.276l-.047-.012c-.11-.055-.293-.029-.5.091-.19.149-.35.281-.477.473-.126.191-.134.314-.083.403.098.101.28.075.64-.054l.089-.051zm1.156-1.142c.178-.102.233-.213.118-.344-.167-.22-.358-.346-.523-.29-.148.086-.186.226-.172.455l.051.088c.15.19.32.21.526.091zm8.462-22.053c.266-.154.435-.41.535-.783.1-.373.116-.62.018-.72-.052-.09-.128-.085-.246-.016l-.169.255c-.382.773-.524 1.21-.426 1.312.034.059.14.037.288-.048zm-14.727 3.135a3.47 3.47 0 0 0 1.05-1.12c.127-.191.317-.34.507-.49.237-.136.432-.21.643-.253.2.004.365-.052.454-.103.266-.154.316-.341.167-.531-.27-.397-.833-.348-1.632.113-1.095.632-1.809 1.242-2.129 1.782-.151.284-.137.513.029.733.15.19.437.142.793-.063l.118-.068zm29.697 23.545c.088-.051.355-.205.782-.491.427-.286.974-1.115 1.689-2.475.315-.616.747-1.576 1.267-2.863.306-.769.499-1.392.607-1.889.078-.48.166-.806.245-1.01.097-.174.19-.425.294-.722.114-.145.264-.705.492-1.745.07-.356.104-.573.052-.661-.076.004-.173.178-.277.476a58.196 58.196 0 0 1-4.577 8.957c-.03.017-.042.064-.084.127-.042.064-.114.145-.186.226-.042.064-.114.145-.19.149-.06.034-.106.022-.157-.067-.078-.271.005-.674.32-1.29.597-1.292 1.115-2.104 1.584-2.453.215-.243.379-.574.474-1.024.063-.234.113-.42.227-.565 1.676-3.454 2.97-7.161 3.922-11.184.35-1.583.464-2.478.344-2.686-.059.035-.335.786-.817 2.209l-.364 1.078c0-.276.285-1.9.873-4.845.241-1.087.31-1.719.242-1.837-.017-.03-.017-.03-.046-.013-.119.069-.445 1.007-.946 2.875-.916 3.607-2.19 7.145-3.802 10.64-.886 1.815-1.858 3.481-3.026 4.945-.64.804-1.325 1.396-1.993 1.743-.52.261-1.02.352-1.559.308l-.2-.004c-.322-.011-.496-.108-.564-.226-.034-.059-.056-.165-.095-.3a1.141 1.141 0 0 0-.167-.496 3.395 3.395 0 0 0-.367-.499c-.103-.177-.218-.308-.303-.456-.154-.266-.121-.483.103-.573l.165-.056a.074.074 0 0 0 .025-.093s-.034-.06-.098-.101c-.063-.043-.097-.102-.161-.144a.435.435 0 0 1-.133-.16c-.427-.74-.425-1.215.007-1.425l.508-.214c.774-.368 1.61-1.245 2.51-2.555.17-.255.4-.744.71-1.436.664-1.449 1.106-2.256 1.313-2.376l.017.03c.188.325-.067 1.183-.747 2.602a24.65 24.65 0 0 1-1.387 2.656c-.19.149-.406.392-.633.68l-.084.129c-.06.034-.131.115-.216.242-.1.098-.126.191-.092.25.017.03.11.055.246.017.288-.048.534-.033.65.098.127.085.267.122.444.02.09-.052.237-.137.398-.27 1.09-.983 2.04-2.756 2.779-5.235.41-1.341.328-2.439-.202-3.356-.085-.148-.149-.19-.238-.14-.059.035-.139.239-.268.63-.108.496-.23.763-.336.785l-.135.039c-.09-.225-.126-.56-.09-.975.045-.538-.008-.903-.127-1.11-.103-.178-.23-.262-.476-.278-.212.044-.404-.083-.575-.379-.212-.232-.383-.528-.571-.854-.196-.202-.528-.366-1.037-.427-.801-.09-1.572.079-2.287.413-1.354.663-2.43 1.6-3.214 2.842-1.122 2.226-1.679 4.679-1.671 7.358.016 1.806.367 3.577 1.088 5.371.128.36.3.656.47.952.188.326.406.634.687.985.299.38.809.717 1.535 1.087.553.273.965.508 1.318.778.336.24.714.417 1.093.593.407.159.946.204 1.65.192 1.5.002 2.623-.173 3.368-.524zm-6.64-11.362c-.224.09-.376.1-.462-.049-.05-.088-.077-.27-.044-.487.04-.615.227-1.315.563-2.101.47-1.1 1.039-1.823 1.695-2.123.325-.188.588-.143.725.094.256.444.162 1.17-.342 2.21-.66 1.25-1.36 2.088-2.134 2.456zm.812 4.07c.402-.192.68-.392.836-.6.156-.21.194-.35.16-.408-.069-.119-.204-.08-.428.01a6.106 6.106 0 0 0-.605.388c-.101.098-.139.238-.223.366-.067.157-.046.263-.011.322.017.03.093.025.27-.077zm21.042-1.492c.089-.051.355-.205.782-.491.427-.286.975-1.115 1.69-2.475.315-.616.747-1.576 1.267-2.863.306-.769.498-1.393.606-1.89.079-.479.166-.806.246-1.01.097-.174.189-.424.293-.721.114-.145.264-.705.493-1.745.07-.356.103-.573.052-.662-.076.005-.173.18-.278.477a58.196 58.196 0 0 1-4.576 8.957c-.03.017-.043.064-.085.127a2.343 2.343 0 0 1-.185.226c-.042.064-.114.145-.19.15-.06.033-.106.02-.158-.068-.077-.271.006-.674.321-1.29.596-1.292 1.114-2.104 1.583-2.454.215-.242.38-.574.475-1.023.062-.234.112-.42.226-.565 1.676-3.454 2.97-7.161 3.923-11.185.349-1.583.464-2.478.344-2.685-.06.034-.336.786-.817 2.209l-.364 1.078c-.001-.276.284-1.9.873-4.846.241-1.086.31-1.718.242-1.836-.017-.03-.017-.03-.047-.013-.118.069-.445 1.007-.945 2.875-.917 3.607-2.19 7.144-3.802 10.64-.887 1.815-1.858 3.481-3.026 4.945-.641.804-1.325 1.396-1.994 1.743-.52.26-1.02.352-1.558.307l-.2-.003c-.322-.011-.496-.108-.565-.226-.034-.06-.055-.165-.094-.3a1.141 1.141 0 0 0-.168-.496 3.38 3.38 0 0 0-.367-.499c-.102-.177-.217-.308-.302-.456-.154-.267-.121-.483.103-.573l.165-.056a.074.074 0 0 0 .025-.093s-.034-.06-.098-.102c-.064-.042-.098-.1-.162-.143-.063-.042-.098-.101-.132-.16-.427-.74-.425-1.215.007-1.425l.507-.214c.775-.368 1.61-1.245 2.511-2.555.169-.255.4-.744.71-1.436.664-1.449 1.105-2.256 1.313-2.376l.017.03c.188.325-.067 1.183-.748 2.602a24.623 24.623 0 0 1-1.387 2.656c-.19.149-.405.391-.633.68l-.084.128c-.059.035-.13.115-.215.243-.101.098-.126.191-.092.25.017.03.11.055.246.016.288-.048.534-.032.649.1.128.083.268.12.445.018.089-.05.237-.136.397-.269 1.09-.984 2.04-2.756 2.78-5.235.409-1.341.328-2.44-.202-3.357-.085-.148-.15-.19-.238-.139-.06.035-.139.238-.269.63-.108.496-.23.763-.335.785l-.136.039c-.09-.225-.125-.56-.089-.975.044-.539-.008-.903-.128-1.11-.102-.178-.23-.262-.476-.278-.212.043-.403-.083-.574-.379-.213-.232-.384-.528-.572-.854-.196-.202-.527-.366-1.036-.428-.802-.09-1.573.08-2.287.413-1.354.663-2.431 1.601-3.214 2.842-1.122 2.227-1.68 4.68-1.672 7.36.017 1.805.368 3.576 1.088 5.37.13.36.3.656.47.952.189.326.407.634.688.985.298.38.809.717 1.535 1.087.552.273.965.508 1.318.778.336.24.714.416 1.092.593.408.16.946.203 1.65.192 1.5.002 2.624-.173 3.368-.524zm-6.639-11.362c-.224.09-.377.1-.462-.049-.051-.088-.077-.27-.044-.487.04-.615.227-1.315.563-2.101.47-1.1 1.038-1.824 1.694-2.123.326-.188.589-.143.726.094.256.444.162 1.17-.342 2.21-.66 1.25-1.36 2.088-2.135 2.456zm.811 4.07c.402-.192.681-.392.837-.6.156-.21.194-.35.16-.409-.069-.118-.204-.08-.429.01-.148.086-.355.206-.604.39-.102.097-.14.237-.223.365-.067.157-.046.263-.012.322.017.03.094.025.271-.077zM80.7 77.104a2.526 2.526 0 0 1 .082-.678c.025-.094.033-.217.04-.34.009-.123-.03-.258-.056-.44a5.146 5.146 0 0 1-.09-.975c.012-.322.058-.585.125-.742.042-.064.054-.11.096-.175a.807.807 0 0 0 .164-.331c.055-.11.092-.25.096-.45-.027-.182-.006-.352-.003-.551.004-.2-.006-.352-.015-.505-.009-.152.033-.216.033-.216-.086-.423-.088-.699-.003-.826.037-.14.096-.175.113-.145a.494.494 0 0 1 .18.173l.016.03c.064.042.081.071.128.084.034.059.051.088.115.13.017.03.034.06.022.106a11.31 11.31 0 0 0-.064.984c-.011.323-.01.598-.038.89-.029.293-.091.527-.205.671-.067.158-.164.332-.201.472-.05.187-.058.31-.066.433s-.004.199-.004.199l.014.229c.026.182.053.364.066.593.044.212.057.44.024.657.01.153-.01.322.01.428.01.153.002.276-.006.399.01.152-.04.34-.09.526-.034.216-.04.615.055 1.191.067.593.239 1.165.504 1.761.278.55.535.994.77 1.332.148.19.251.368.256.444.05.09.004.077-.14-.037-.115-.131-.265-.321-.495-.583a9.828 9.828 0 0 1-.606-.913 7.214 7.214 0 0 1-.531-1.193c-.1-.377-.13-.635-.122-.758.003-.2-.028-.458-.075-.746-.065-.318-.088-.7-.099-1.128zm1.28-7.013a.492.492 0 0 1 .24-.06.188.188 0 0 1 .175.096c.034.06.021.106-.004.2-.042.063-.084.127-.173.178a.644.644 0 0 1-.27.078c-.094-.025-.14-.038-.175-.097a.188.188 0 0 1 .003-.2.644.644 0 0 1 .203-.195zm1.4 11.86c-.49-.507-.855-1.48-1.03-2.878a25.105 25.105 0 0 1-.18-4.277c.065-1.459.2-2.524.405-3.194.31-.693.81-1.06 1.508-1.147.746-.076 1.307.074 1.758.445.256.444.468 1.427.56 2.953.091 1.526 0 3.078-.243 4.639-.272 1.578-.806 2.636-1.584 3.204a1.232 1.232 0 0 1-.557.4c-.178.103-.382.023-.637-.145zm8.882-7.654c-.245-.766-.44-1.444-.54-2.096a13.633 13.633 0 0 0-.496-1.884c-.128-.36-.223-.66-.237-.89a2.442 2.442 0 0 1-.02-.58 4.241 4.241 0 0 0-.093-1.051 3.671 3.671 0 0 1-.113-.606 3.02 3.02 0 0 1 .007-.398c.033-.217.002-.475-.076-.746a11.857 11.857 0 0 1-.408-2.212l-.144-.864-.065-.318a9.437 9.437 0 0 1-.095-.576c-.027-.182-.019-.305.065-.432.055-.11.16-.133.36-.13.263.046.428-.01.453-.103.025-.093.004-.2-.111-.33a1.161 1.161 0 0 0-.464-.324c-.064-.043-.157-.068-.22-.11-.128-.084-.222-.109-.286-.151-.046-.012-.063-.042-.08-.072.03-.017.042-.064.071-.08a.46.46 0 0 0 .203-.197.967.967 0 0 0 .206-.395c.05-.186.066-.432.03-.767a35.912 35.912 0 0 0-.195-1.98c-.09-.974-.195-1.978-.272-3-.077-1.02-.097-1.877-.045-2.539.044-.538.088-1.077.145-1.662.025-1.12.147-2.138.304-3.097.146-.636.33-1.137.477-1.498.201-.472.284-.875.232-1.24-.082-.347-.432-.816-1.096-1.419a1.714 1.714 0 0 1-.328-.363c-.052-.089-.073-.195-.09-.224.012-.047-.005-.077-.022-.106-.017-.03-.034-.06-.08-.072-1.211-.524-2.407-.544-3.622-.12-.481.397-.86 1.247-1.074 2.515a30.443 30.443 0 0 0-.414 4.068c-.04 1.365-.04 2.391.013 3.03.072.946.18 2.226.288 3.781.115 1.908.253 3.446.386 4.632.088.7.133 1.462.196 2.255.095 1.326.228 2.513.444 3.572.152.741.304 1.482.438 2.194.01.153.048.288.087.424a8.41 8.41 0 0 0-3.62-.87c-1.4-.1-2.493.057-3.275.548-.752.474-1.372 1.384-1.828 2.713-.51 1.715-.644 3.806-.387 6.302.227 2.513.715 4.52 1.468 6.098.176.373.428.74.692 1.061 1.799 2.159 4.083 2.971 6.824 2.454 2.07-.446 3.383-1.795 3.937-4.049.03-.017.03-.017.013-.047a2.24 2.24 0 0 1 .268-.628c.114-.145.3-.095.543.12.154.267.338.516.509.812.422.664.862 1.357 1.36 2.016.517.689 1.007 1.195 1.53 1.486.412.235.807.441 1.232.63.425.189.739.323.96.432.233.063.467.126.73.171.246.016.568.027 1.043.03.369.023.696.11.916.22.111.055.222.11.315.134a.493.493 0 0 0 .241-.06c.207-.12.355-.205.461-.227.077-.005.136-.039.119-.068a.604.604 0 0 0-.132-.16l-.017-.03c-2.095-1.988-3.613-3.796-4.506-5.411-.893-1.616-1.733-3.617-2.549-5.988-.168-.495-.335-.99-.566-1.528zm-3.6-25.785a4.94 4.94 0 0 1-.102-.928c.029-.293.074-.556.158-.684.025-.093.097-.174.198-.272.072-.08.127-.191.211-.319a.808.808 0 0 0 .083-.403c.02-.17-.006-.352-.02-.58-.043-.212-.04-.412-.095-.577-.01-.152-.031-.258-.031-.258l-.186-.8.089-.052c.046.013.106-.022.182-.026a.484.484 0 0 1 .212-.044c.076-.004.17.02.246.016.14.038.238.14.319.21.08.073.132.161.136.238.005.076-.084.127-.237.136-.059.035-.118.069-.1.098-.013.047.02.106.038.136.004.076.022.106.009.152.01.153-.011.323-.032.492l-.085.878c-.045.263-.108.497-.222.642a1.335 1.335 0 0 0-.159.407c-.037.14-.045.263-.036.416a3.128 3.128 0 0 0-.011.322c.004.076.038.136.038.136s-.012.046-.02.17c-.008.122.001.275-.002.474-.004.2-.007.399-.028.568-.003.2-.006.399-.014.522s-.033.216-.046.263l-.037.14c-.03.017-.042.064-.055.11-.012.047-.037.14-.045.263s.001.276-.002.475c-.029.293.003.827.045 1.514.028.733.104 1.479.137 2.288.063.793.104 1.48.14 2.09.05.563.068.869.068.869s-.022-.106-.112-.33c-.06-.242-.138-.513-.25-.843-.064-.318-.159-.618-.207-.907-.048-.288-.074-.47-.066-.593.038-.14.02-.445-.008-.903.002-.475-.043-.962-.062-1.543a19.205 19.205 0 0 1-.066-1.343 4.494 4.494 0 0 1-.008-.903 2.839 2.839 0 0 1 .065-.709c.02-.17.04-.339.032-.491a6.7 6.7 0 0 0-.062-.517zm-.377 32.501c.03-.017.042-.063.067-.157.067-.157.135-.314.244-.535.11-.221.206-.395.303-.57.096-.174.168-.255.244-.26.11.055.132.161.112.331.01.153-.04.34-.09.526-.051.187-.118.344-.173.455.017.03-.012.046-.025.093-.037.14-.104.297-.18.577a12.111 12.111 0 0 1-.602 1.69c-.257.582-.543.906-.861.97a8.52 8.52 0 0 1 .396-1.57c.205-.67.389-1.171.565-1.55zm1.3-21.47c-.14-.038-.222-.11-.26-.245a1.43 1.43 0 0 1 .031-.492c.02-.17.088-.327.113-.42.03-.017.064.042.115.131.051.089.073.195.112.33.039.136.03.259.023.382a.532.532 0 0 1-.135.314zM93.515 37.3c-.385.222-.614.236-.699.088-.102-.178.024-.37.409-.591.355-.205.613-.236.716-.059.085.148-.07.357-.426.562zm5.736 9.594L99 44.475c-.088-.699-.243-1.24-.465-1.626-.308-.532-.428-1.015-.41-1.46.05-.187.007-.4-.146-.666a3.782 3.782 0 0 1-.306-1.007 1.82 1.82 0 0 0-.245-.766l-.085-.148c-.451-.371-.728-.646-.865-.883l-.227-.46-.073-.195a.433.433 0 0 0-.272-.198c-.14-.038-.263-.046-.403-.083-.258.03-.416-.037-.501-.185l-.103-.177.131-.115.284-.125c.419-.163.75.001 1.024.475l.359.621c.153.267.337.516.533.719.196.203.409.435.545.672l.176.372c.09.224.175.372.227.46.05.09.068.12.055.166.052 1.115.312 2.386.763 3.782.176.373.24.69.242.966.028.458.035 1.085.021 1.882l-.007.399zm6.722 33.653c2.714-1.725 4.141-5.746 4.33-12.051 0-2.802-.506-5.115-1.532-6.891-.735-1.273-1.862-2.2-3.412-2.766-1.838-.518-3.423-.392-4.755.377-.977.564-1.825 1.488-2.527 2.801-.013.047-.055.11-.08.204-.055.11-.164.331-.34.71-.072.08-.114.144-.173.178l-.06-.241a12.66 12.66 0 0 1 .055-1.887c.066-.433.258-1.057.564-1.825 1.942-5.66 2.437-11.432 1.457-17.3l-.22-1.135c-.154-1.017-.442-1.995-.925-2.9a11.641 11.641 0 0 0-1.323-1.88c-.698-.663-1.437-.986-2.23-.923-.792.062-1.44.24-1.943.53-1.303.752-1.983 2.17-2.071 4.274-.07 1.658-.041 3.142.117 4.51l.25 2.895c.162 1.92.335 3.792.526 5.695.084.623.142 1.34.21 2.208.103 1.48.284 2.954.494 4.411l.044.487c.127.835.319 1.987.617 3.394.33 1.664.69 3.312 1.078 4.942l.156.818c.223 1.41.545 2.448.938 3.129.428.74 1.06 1.085 1.905 1.11 1.144-.068 2.004-.288 2.566-.613.829-.478 1.231-1.697 1.129-3.651l.041-1.09c.14-2.014.716-3.886 1.748-5.587.336-.51.712-.885 1.097-1.107.313-.141.615.04.905.543.496.858.756 2.13.751 3.83.021 1.881-.066 3.234-.267 3.981-.291 2.024-.962 3.871-2.039 5.559-.447.731-.936 1.25-1.469 1.558-1.036.598-2.181.391-3.513-.616-.701-.463-1.126-.652-1.262-.613l-.207.12c-.385.221-.353.755.126 1.584.188.326.533.719 1.018 1.149 1.132 1.004 2.483 1.566 4.035 1.657 1.183.066 2.213-.133 3.071-.629l.545-.354c.722-.733 1.456-2.538 2.202-5.415.425-1.588.687-2.844.797-3.815.271-1.854.53-2.91.757-3.2.214 1.258.165 2.746-.17 4.558-.096.45-.162.883-.21 1.345-.16 2.184-.821 4.184-2.013 6.016l-.789.89c-.51.689-.716 1.084-.664 1.173.051.089.263.045.665-.147zm-9.608-25.87-.051-.088c-.393-.68-.676-3.359-.867-8.064.008-1.149-.022-2.158-.136-3.04-.032-1.284.004-1.975.092-2.026.03-.017.047.012.064.042.86.806 1.416 2.932 1.699 6.36-.026.844-.1 2.15-.288 3.876-.17 1.756-.357 2.732-.513 2.94zm.653 3.729c-.13-.36.004-.95.411-1.817l.177-.378c.201-.471.466-.9.731-1.33-.017-.03-.017-.03.013-.047.075-.28.099-.649.03-1.043l-.066-.318c-.004-.076.02-.17.016-.245a.747.747 0 0 1 .003-.2l-.037-.886c.05-.186.07-.356.09-.526.008-.123.016-.246.041-.34a.906.906 0 0 0 .046-.262l.037-.14c.03-.017.05-.187.108-.497.05-.187.105-.297.135-.314.03-.017.046.013.08.072.086.148.13.36.084.622-.127.192-.15.56-.025 1.12a.498.498 0 0 1-.024.369.806.806 0 0 0-.083.403c.014.229-.035.691-.104 1.323-.033.217-.275 1.027-.778 2.344-.486 1.346-.767 2.021-.885 2.09zm2.725 11.214-.034-.06c-.017-.03-.014-.228-.003-.55-.017-.03-.004-.077.004-.2.025-.093.05-.187.057-.31.008-.123.033-.216.046-.263.012-.046.042-.064.042-.064l.03-.017.018.306c.014.228.01.428-.01.597-.033.217-.07.357-.113.42.005.077-.037.14-.037.14zm.212-2.846c-.034-.06-.031-.259.022-.645.129-.666.309-1.243.557-1.702.021.106-.02.445-.14.988-.208.87-.35 1.308-.44 1.359zm18.768 1.951c.296-.17.482-.396.633-.68.45-.931.674-2.047.655-3.378-.042-.963.043-1.84.255-2.634.143-.438.196-.823.178-1.129-.031-.258-.062-.517-.118-.682-.056-.165-.065-.317-.01-.428.811 1.268 1.633 2.214 2.514 2.85.851.654 2.107.915 3.738.802.911-.131 1.665-.33 2.287-.688 1.243-.718 2.075-2.422 2.495-5.112l.385-1.998c.364-2.105.461-3.305.307-3.571-.034-.06-.098-.101-.157-.067-.161.132-.424 1.112-.789 2.941l-.493 2.495a10.479 10.479 0 0 1-1.583 3.48c2.151-7.28 2.911-12.732 2.187-16.379l-.06-.241-.047-.013c-.059.034-.092.25-.099.65-.083 1.428-.151 2.336-.182 2.828-.049.462-.107.772-.191.9-.071-.67-.105-1.48-.13-2.412-.014-2.281-.195-3.756-.554-4.377-.034-.06-.08-.072-.097-.102-.018-.03-.035-.059-.064-.042l-.07.632a29.402 29.402 0 0 0-.414 4.068c-.429 4.589-1.294 8.285-2.626 11.106-.285.6-.592 1.093-.956 1.42-.592.342-1.076.188-1.452-.464-.376-.65-.655-1.476-.854-2.505-.191-.877-.287-1.453-.322-1.788-.017-1.056.013-2.85.167-5.385-.004-.827-.112-1.356-.283-1.652-.257-.444-.661-.803-1.243-1.059-1.041-.504-1.931-.542-2.701-.098-.562.325-.92 1.005-1.013 2.005-.005.675-.118 1.095-.384 1.249-.148.085-.407.116-.729.105-.081-.072-.45-.096-1.052-.182-.831-.073-1.585.126-2.325.553-.888.513-1.541 1.363-2.019 2.586-.147.361-.306.77-.466 1.177-.159.407-.264.705-.36.879-.08.204-.16.408-.21.594-.062.234-.053.387.015.505.052.089.02.58-.099 1.4-.257 1.332.023 3.459.829 6.427.32 1.237.77 2.358 1.334 3.335.789 1.162 1.844 1.895 3.139 2.292 1.391.223 2.413.146 3.034-.213zm11.8-18.731c-.029.017-.046-.013-.064-.042a.64.64 0 0 1-.052-.365c.011-.322.049-.462.108-.496.03-.017.03-.017.064.042.034.059.06.241.061.517-.062.233-.087.326-.117.344zm-6.248 9.685-.442-.218-.171-.297c-.051-.088-.039-.135.05-.186l.059-.034c.17.02.315.134.434.341.12.207.159.343.07.394zm-6.857 4.393-.237.137c-.237.136-.526-.091-.885-.713-.581-1.006-.934-2.302-1.073-3.84-.112-1.356.01-2.65.288-3.876.213-.794.477-1.5.826-2.056.35-.557.666-.898.992-1.086.207-.12.33-.111.416.037.051.088.159.618.295 1.605.237 1.915.315 3.212.216 3.861l-.023.37c-.027 1.593-.139 3.04-.401 4.296-.153.76-.283 1.15-.414 1.265zm5.927-5.593c-.088.051-.255-.168-.511-.612l-.466-.876c-.12-.207-.222-.385-.337-.516a1.953 1.953 0 0 1-.235-.338c-.171-.296-.155-.542.077-.755.059-.034.08-.204.015-.521-.079-.547-.043-.962.075-1.306.042-.064.045-.263.014-.522a4.096 4.096 0 0 1-.021-.856c.05-.187.079-.48.09-.802-.026-.182-.087-.423-.147-.665a2.325 2.325 0 0 1-.054-.64l.218-.717.233.063c.11.054.221.109.255.168.051.089.018.305-.035.691-.144.912-.189 2.201-.089 3.88.086 1.174.234 2.114.492 2.834.394.956.545 1.422.426 1.49zm5.378 3.368a.727.727 0 0 1-.406.116c-.093-.025-.157-.067-.174-.097l-.035-.059c-.034-.06.038-.14.152-.285.207-.12.377-.099.496.108.022.106-.02.17-.033.217zm-14.309-1.132c-.046-.013-.093-.025-.127-.084-.171-.296-.234-1.089-.253-2.42-.02-1.607.167-2.583.5-2.894l.03-.017c.034.06.015.505-.041 1.366-.076 1.78-.101 2.9-.049 3.264.04.411.024.657-.06.785zM131.14 46.48c-.016-.78-.016-.78 0 0zm9.682 10.276c.25-.183.469-.35.672-.545.392-.621.719-1.284 1.008-2.082.222-.641.508-1.24.828-1.78.302-.57.491-.994.566-1.275.088-.326.104-.572.107-.772-.014-.228.032-.491.166-.806.495-1.193.872-2.319 1.053-3.37.146-.637.351-1.308.538-2.008-.017-.03.033-.217.15-.56.088-.328.23-.765.355-1.232.138-.513.263-.98.359-1.43.112-.42.141-.713.148-.836-.009-.153-.013-.229-.03-.258-.017-.03-.064-.042-.094-.025-.219.166-.45.654-.735 1.53-.217.717-.459 1.527-.727 2.432-.863 3.221-1.496 4.928-1.893 5.197-.029.017-.076.005-.093-.025-.017-.03-.009-.152.011-.322a36.962 36.962 0 0 1 1.573-5.684c.62-1.66.988-2.938 1.183-3.761.117-.344.167-.531.116-.62-.005-.076-.107-.254-.295-.58-.168-.495-.089-.974.206-1.42.277-.477.399-.744.348-.833-.017-.03-.081-.072-.204-.08-.076.005-.153.01-.199-.003-.094-.025-.14-.037-.158-.067-.136-.237-.201-.555-.148-.94l.015-.522c-.009-.153-.019-.305-.087-.424-.034-.059-.127-.084-.187-.05-.101.098-.227.29-.349.557-.286.6-.432.96-.453 1.13-.731 2.356-1.216 3.978-1.5 4.852a83.503 83.503 0 0 1-4.234 9.825c-.526.935-1.129 1.6-1.835 2.086-.516.337-1.003.382-1.445.163-.132-.16-.247-.291-.333-.44-.119-.207-.218-.583-.356-1.096-.295-1.33-.516-2.465-.605-3.44-.089-.974.024-2.145.353-3.558.565-1.55 1.659-2.458 3.248-2.783.523-.46.729-.855.66-1.25-.07-.393-.113-.605-.164-.694a3.369 3.369 0 0 0-1.286-1.27c-.749-.476-1.419-.68-2.042-.597-.666-.129-1.437.04-2.389.51-.905.484-1.707 1.42-2.37 2.868-.512 1.164-.786 2.467-.792 3.892-.026 2.895.297 4.959.875 6.164.624 1.218.988 1.916 1.073 2.064 1.162 2.013 2.942 3.59 5.363 4.64 1.422.481 2.791.322 4.029-.472zm-.518-1.24c-.212.044-.288.048-.305.019-.017-.03.012-.047.084-.128.161-.132.228-.289.189-.425-.009-.152-.014-.228.045-.263.435-.408.931-1.326 1.489-2.753l.582-1.52c.227-.566.42-.914.568-1 .119-.068.212-.043.28.075.171.297-.18 1.328-1.088 3.037-.782 1.517-1.397 2.503-1.844 2.959zm11.935-1.68c.165-.056-.19-.877-1.049-2.434a16.403 16.403 0 0 1-1.292-3.398l-.3-.932c-.284-.901-.376-1.401-.304-1.482l.131-.115c.148-.086.704-.012 1.638.239a49.74 49.74 0 0 0 4.825 1.042c2.197.389 3.99.143 5.44-.694.71-.41 1.373-1.108 1.911-2.09l.913-1.632c.273-.553.378-.85.326-.938-.017-.03-.046-.013-.106.021-.296.171-.57.448-.835.877-.399.744-1.215 1.451-2.369 2.118-.237.137-.402.192-.419.163-.005-.077.122-.268.409-.591l1.236-1.346c1.18-1.51 1.981-3.472 2.373-5.87.392-2.396.628-4.585.721-6.612a7.456 7.456 0 0 1 .076-1.03c.177-1.129.173-2.231-.091-3.302a4.866 4.866 0 0 1-.184-1.276c.113-.42.073-.83-.132-1.186-.051-.089-.115-.131-.174-.097-.148.086-.369 1.002-.679 2.72l-.502 2.619c-1.11 5.732-2.297 9.693-3.618 11.916a5.17 5.17 0 0 1-1.242.993c-1.066.616-2.23.854-3.524.733-1.365-.041-2.159-.254-2.398-.668-.205-.355-.131-.911.175-1.68l.876-2.242c.666-1.648 1.146-2.595 1.442-2.766l.076-.005c.017.03.017.03.004.076a.928.928 0 0 1-.079.204l.227-.29a5.24 5.24 0 0 1-.225.841c-.192.624-.472 1.575-.839 2.853.517-.062 1.08-1.137 1.736-3.213.657-2.076 1.023-3.63 1.158-4.694l.074-.556c.078-.479.152-1.035.179-1.603.045-.539-.187-1.076-.677-1.582a3.308 3.308 0 0 0-1.75-.845c-.416-.036-.733.029-.97.166-.267.153-.511.413-.734.779-.303.57-.716 2.11-1.256 4.593-.456 2.354-1.348 4.843-2.676 7.464-.499 1.118-.95 1.773-1.305 1.978-.119.068-.165.055-.217-.033-.136-.237-.164-.695-.065-1.344.103-.573.115-.895.064-.984-.052-.089-.158-.067-.352.006-.03.017-.06.034-.077.005l.338-.235c.368-.252.495-.443.473-.55-.051-.088-.068-.117-.039-.135 0 0 .064.043.174.097.081.072.158.067.246.016.089-.051.102-.098.033-.216-.034-.06-.051-.09-.115-.131-.034-.06-.081-.072-.115-.131-.171-.296-.066-1.62.301-3.923.243-1.561.375-2.427.395-2.596.071-.357.141-.713.271-1.104.117-.344.141-.713.059-1.06-.095-.3-.092-.5.086-.602.186-.226.331-.863.449-1.957.054-.386.023-.644-.063-.792-.085-.148-.06-.242.088-.327.185-.226.289-.799.327-1.689a3.96 3.96 0 0 0-.047-1.038c-.048-.288-.027-.458.074-.556.118-.069.161-.132.126-.191-.017-.03-.063-.043-.11-.055-.064-.042-.128-.084-.162-.143-.068-.119-.014-.23.105-.298a.51.51 0 0 1 .195-.073c.093.025.123.008.182-.026.089-.051.114-.145.028-.293-.056-.165-.066-.593.033-1.242.052-.662.099-1.4.113-2.197-.016-.78.032-1.242.087-1.352.089-.052.079-.48.045-1.29-.063-.792-.07-1.42-.004-1.852.054-.386.052-.662.001-.75l-.017-.03c-.068-.118-.043-.212.088-.327.067-.157.075-.28.006-.398l-.034-.06c-.102-.177-.094-.3-.006-.351.089-.052.08-.204-.015-.505-.073-.195-.122-.758-.177-1.674-.007-.627-.051-1.114-.21-1.457a1.484 1.484 0 0 1-.069-.394 1.375 1.375 0 0 0-.199-.754c-.273-.473-.712-.891-1.269-1.24-.301-.182-.497-.384-.583-.532a.961.961 0 0 0-.374-.376c-1.139-.605-2.301-.566-3.455.1-.563.325-1.047.92-1.489 1.728-.955 1.696-1.378 2.809-1.299 3.355.102.178.103.453-.009.874a1.24 1.24 0 0 1-.147.36c-.215.243-.391 1.647-.516 4.166a27.189 27.189 0 0 0 .079 4.375c.051 2.891.158 4.921.29 6.108l.286 2.203c.112 1.356.754 5.682 1.897 12.994.115.882.147 1.416.126 1.585a.655.655 0 0 0 .074.47l.035.06c.068.118.15.465.297 1.13.066.593.136.987.256 1.195l.08.071c.069.119.078.271.104.454.218 1.334.589 2.66 1.065 3.963a6.8 6.8 0 0 0 .553 1.3c.41.71.887 1.263 1.368 1.617a10.62 10.62 0 0 0 2.355 1.482c.896.39 1.44.51 1.706.357l.059-.035zm-2.771-46.432c-.052-.089-.108-.254-.138-.512a.26.26 0 0 1-.027-.183l.025-.093-.017-.03.111.055c.085.148.094.3.103.453.01.153-.015.246-.057.31zm-3.29 18.16-.03.017c-.059.034-.123-.008-.191-.127-.068-.118-.095-.3-.079-.546.08-.204.071-.357-.015-.505-.102-.177-.184-.524-.233-1.088-.011-.428-.088-.7-.157-.818l-.051-.088c-.068-.119-.041-.687.081-1.705.062-.51.061-.785.026-.844-.119-.207-.08-1.848.097-5.028.062-1.26.291-3.05.671-5.4.275-1.027.531-1.61.798-1.763.059-.034.105-.022.123.008.102.177.172.571.179 1.199l-.015.521c.017.03.017.03-.012.047-.029 2.069-.012 3.124.022 3.184.086.148.095.3.045.487s-.186 2.002-.396 5.399c-.06.784-.083 1.429-.085 1.904a38.744 38.744 0 0 1-.343 2.96c-.18 1.328-.351 2.058-.435 2.186zm-2.919-9.09c-.059.035-.106.022-.14-.037-.017-.03-.034-.06-.022-.106l.038-.14c.012-.047-.005-.076.025-.093.029-.018.093.025.144.113.069.119.044.212-.045.263zm.007 4.456c-.03.017-.076.005-.11-.055-.073-.194-.132-.91-.129-2.136-.014-1.255.026-1.87.115-1.92.029-.018.029-.018.046.012.035.059.073.194.117.406-.004.2.052.365.091.5.039.136.06.242.077.271.035.06.028.458-.003 1.225-.03.768-.079 1.23-.099 1.4-.021.17-.075.28-.105.297zm.198 3.556c-.029.017-.029.017-.047-.012-.119-.208-.139-.788-.105-1.755.024-.369.044-.539.074-.556l.017.03c.103.178.156.817.144 1.89.014.229-.024.369-.083.403zm1.147.483c-.03.017-.076.004-.111-.055l-.038-.136a2.725 2.725 0 0 0-.18-.448c-.069-.119-.073-.195.016-.246.088-.051.186.05.306.257.051.089.102.178.124.284.022.106-.02.17-.033.216-.042.064-.054.11-.084.128zm.139.788-.089.05c-.088.052-.135.04-.246-.015-.068-.119-.013-.229.135-.314.148-.086.254-.107.305-.019.068.119.043.212-.105.297zm-.842 1.275-.03.017c-.059.034-.093-.025-.191-.126-.222-.385-.268-1.148-.15-2.242l.047.012c.017.03.021.106.056.166.004.076.073.194.145.389.121.483.208.906.167 1.245.006.352-.015.522-.044.54zm.901.467c-.03.017-.077.004-.145-.114-.171-.296-.167-.495-.019-.58.029-.018.076-.005.093.024.017.03.051.089.073.195.022.106-.003.2.018.305.022.106.009.153-.02.17zm-.644 1.003-.06.034c-.177.103-.3.095-.415-.036-.086-.148-.048-.288.1-.373.237-.137.406-.117.509.06.051.09.026.183-.134.315zm3.583 6.89c-.03.017-.076.005-.111-.054-.119-.207-.172-.572-.174-1.123.003-.2.024-.369.095-.45.072-.08.234-.963.485-2.647.172-1.205.486-3.123.953-5.8.359-2.18.639-4.158.762-5.926.077-.755.067-1.183.045-1.29-.068-.118-.045-.762.051-1.962s.127-1.968.121-2.32a8.26 8.26 0 0 1-.009-1.178c.019-.446-.012-.704-.046-.763l-.034-.06c-.069-.118-.073-.194-.002-.275.089-.051.138-.514.117-1.37l-.088-1.725c-.079-.546-.097-.852.051-.937l.076-.005c.14.038.268.122.302.181.068.119.048.288-.015.522-.062.233-.07.356-.036.415.232.538.362 1.173.407 1.936.023.382-.005.674-.068.908-.118.068-.112.42-.029 1.043.113.605.14 1.063.053 1.39-.125 1.493-.168 2.307-.1 2.425l.231.262c.034.06.004.077-.026.094l-.118.068c-.118.068-.168.255-.12.543.065.318.061.517-.023.645-.03.017-.03.017-.013.046.052.09.116.131.239.14.14.037.203.079.22.108l.018.03-.06.034-.266.154c-.207.12-.317.34-.281.675.016.78-.154 2.536-.57 5.302-.16 1.158-.2 1.773-.149 1.862.052.089.027.182-.058.31-.148.085-.273.552-.387 1.447-.162.883-.176 1.404-.074 1.582.051.089-.003.2-.147.361-.16.132-.356.955-.633 2.458-.314 1.917-.5 2.893-.589 2.944zm-3.069-3.674c-.059.034-.106.021-.157-.068l-.068-.118c-.005-.076-.039-.135-.044-.212.013-.046-.004-.076.025-.093.06-.034.14.037.226.185.085.148.107.254.018.306zm4.098 16.736c-.03.017-.123-.008-.204-.08-.137-.236-.236-.613-.344-1.143-.091-.5-.195-.953-.354-1.296-.153-.266-.335-.99-.56-2.202l-.231-1.287c-.135-.712-.234-1.089-.268-1.148-.085-.148-.112-.33-.066-.593.062-.234.13-.391.189-.425.029-.017.127.084.247.291.171.296.253.643.293 1.055.01.428.024.657.041.686.107.254.172.572.237.89.027.182.065.317.104.453l.005.076c.043.212.133.436.253.643l.2.28c.051.088.086.147.056.164-.03.017-.059.034-.042.064-.097.174-.066.433.046.763.085.148.128.36.159.618.022.106.056.165.078.271.004.076.056.165.107.254l.085.148.078.271c-.114.145-.088.327-.044.539.01.428-.006.674-.065.708zm16.427-19.193c-.046-.013-.063-.043-.098-.102l-.09-.224c-.06-.241-.04-.411.049-.462.03-.018.03-.018.077-.005.017.03.08.072.097.101.086.148.095.3.058.441-.038.14-.063.233-.093.25zm-.341-4.42c-.03.016-.047-.013-.064-.043a.547.547 0 0 1-.048-.288c.051.089.102.178.09.224l.022.106zm.23 15.574c.118-.068.27-.353.454-.854.18-.577.233-.963.131-1.141-.069-.118-.179-.173-.327-.087-.178.102-.312.416-.403.942-.138.514-.132.866-.012 1.073.051.089.098.101.157.067zm.593-2.118c.148-.085.268-.629.314-1.642.026-.844-.006-1.378-.108-1.556-.017-.03-.034-.059-.064-.042-.047-.012-.076.005-.076.005-.089.051-.147.361-.204.946l-.072.832c-.095.725-.097 1.2.006 1.377.051.09.115.131.204.08z" fill="#535353"/></svg>