<svg width="179" height="135" viewBox="0 0 179 135" fill="none" xmlns="http://www.w3.org/2000/svg">
<path d="M37.6925 128.258C38.5213 127.78 38.742 126.863 38.3077 125.495C37.3824 123.346 36.8339 121.097 36.6624 118.749C36.5699 117.974 36.4786 117.474 36.3294 117.284C36.3123 117.254 36.2952 117.225 36.2656 117.242L36.2193 118.255C36.2571 119.141 36.2846 119.599 36.2254 119.633L36.1171 119.103C35.8592 117.358 35.3657 116.025 34.6787 115.04C34.5808 114.939 34.5466 114.879 34.4874 114.914C34.3269 115.046 34.3943 115.915 34.7069 117.55C34.8494 118.138 34.9702 118.621 35.0649 118.922C35.2928 119.658 35.4058 120.264 35.3444 120.773C35.3331 121.095 35.1943 121.333 34.9575 121.47C34.7207 121.607 34.6331 121.934 34.6823 122.497C34.7314 123.061 34.7201 123.383 34.6017 123.451C34.5425 123.486 34.4958 123.473 34.415 123.401C34.3124 123.224 34.1836 122.864 34.0878 122.288L33.9578 121.653C33.6294 120.263 33.3773 118.87 33.2311 117.454C33.0245 115.798 32.7165 114.239 32.2731 112.719C32.1568 112.312 31.9401 111.254 31.6822 109.508C31.3593 107.445 31.1585 106.14 31.1264 105.606C31.1173 105.453 31.0431 104.983 30.9039 104.195C30.7364 103.7 30.9253 103.275 31.4581 102.967C32.2277 102.523 32.4803 102.14 32.2628 101.832C32.1477 101.701 31.9905 101.634 31.7867 101.554C31.5532 101.492 31.4132 101.454 31.3619 101.365L31.3448 101.336C31.2935 101.247 31.314 101.077 31.4528 100.839C33.1931 98.4531 35.1055 96.6386 37.1184 95.4765C37.9472 94.998 38.7681 94.6424 39.6277 94.4224C39.1007 95.0818 38.4461 95.6571 37.6173 96.1356C37.3805 96.2723 37.1733 96.392 36.9786 96.4649C36.209 96.9092 35.6762 97.2169 35.3973 97.4173C34.9283 97.7671 34.6585 98.1202 34.5459 98.5404C34.5255 98.71 34.5471 98.8159 34.5813 98.8751C34.7305 99.0652 35.1666 98.9319 35.9362 98.4875C36.6466 98.0774 37.5551 97.395 38.7083 96.453L40.2292 95.2591C40.4489 95.0928 40.6686 94.9265 40.9646 94.7556C41.2606 94.5847 41.5566 94.4138 41.8105 94.3067C42.094 94.1825 42.3308 94.0457 42.538 93.9261C42.7748 93.7894 43.0116 93.6527 43.1722 93.5205C43.5695 93.2517 43.8221 92.869 43.9302 92.3725L43.9256 92.2962C43.8914 92.237 43.7513 92.1995 43.4758 92.2007C43.1489 92.1131 42.9451 92.0335 42.8938 91.9447C42.8767 91.9151 42.8892 91.8684 42.9484 91.8342C42.9951 91.8467 43.0714 91.8421 43.1306 91.808C43.2786 91.7225 43.2353 91.5107 43.0006 91.1726C42.7659 90.8345 42.5108 90.6661 42.2478 90.6206C42.0314 90.5876 41.7729 90.6185 41.5019 90.696C41.1547 90.7781 40.9554 90.7747 40.8574 90.6734C40.7891 90.555 40.8141 90.4616 40.9621 90.3762C41.0805 90.3078 41.2456 90.252 41.4699 90.1619C41.7113 90.1015 41.9185 89.9819 42.1553 89.8452C42.5401 89.623 42.6869 89.262 42.591 88.6858C42.4827 88.1564 42.3493 87.7203 42.1146 87.3822C41.6352 87.3038 40.721 87.6343 39.3889 88.4033C37.0209 89.7705 34.8442 91.264 32.8588 92.8839C31.7056 93.826 31.0044 94.3887 30.7676 94.5254C30.7209 94.5129 30.64 94.4412 30.525 94.3103C30.4395 94.1623 30.3199 93.9551 30.1832 93.7183C30.0373 93.3289 29.8151 92.9441 29.5338 92.5935C29.4654 92.4751 29.4016 92.4329 29.3549 92.4204L29.5054 92.8861C29.6729 93.3814 29.6913 93.6866 29.5729 93.7549C29.4078 93.8108 29.2506 93.7436 29.1356 93.6127C29.033 93.4351 28.9213 93.1049 28.8768 92.6176C28.8368 92.2065 28.8697 91.9902 29.0177 91.9047C29.0769 91.8705 29.2466 91.891 29.4208 91.9877C29.6247 92.0674 29.7944 92.0878 29.8536 92.0536C30.0016 91.9682 29.8945 91.7143 29.6085 91.2874L29.2292 90.8354C28.9603 90.4381 28.794 90.2184 28.7894 90.1421C28.7848 90.0658 28.7973 90.0191 28.8565 89.9849C28.9158 89.9508 28.992 89.9462 29.0979 89.9245C29.1742 89.9199 29.2801 89.8983 29.3393 89.8641C29.4873 89.7786 29.4907 89.5794 29.3027 89.2538C29.1055 88.7756 29.1043 88.5 29.2819 88.3975C29.4891 88.2778 29.4912 87.803 29.2883 86.973C29.197 86.4731 29.0853 86.1429 28.9361 85.9528C28.8381 85.8515 28.7744 85.8094 28.6685 85.8311C28.3679 85.9257 28.1857 85.9519 28.1686 85.9223L28.0877 85.8506C28.0536 85.7914 28.1378 85.6638 28.3575 85.4975C28.7924 85.0886 28.9437 84.8039 28.8412 84.6263L28.6236 84.3177C28.2397 83.7895 27.2046 83.6373 25.5057 83.9077L24.0061 84.1814L25.206 83.2519C26.4184 82.2756 27.0434 81.7175 27.0809 81.5774C27.0376 81.3656 26.935 81.188 26.8154 80.9808C26.7004 80.8499 26.607 80.8249 26.4886 80.8933C26.3702 80.9616 26.3452 81.055 26.4602 81.1859C26.4944 81.2451 26.4523 81.3089 26.3043 81.3943C25.9195 81.6165 25.4492 81.6907 24.8514 81.6806C24.6054 81.6647 24.4654 81.6272 24.3845 81.5555C24.0985 81.1286 24.2453 80.7676 24.7781 80.46L25.7003 80.0065C26.1147 79.7672 26.3173 79.5713 26.2911 79.3891C26.2819 79.2365 26.6918 78.921 27.5206 78.4425L28.8401 77.7201C30.3497 76.8485 31.3345 76.1616 31.7476 75.6468C31.8786 75.5317 31.9503 75.4508 32.0391 75.3996C32.1871 75.3141 32.3101 75.322 32.3909 75.3938C32.4718 75.4655 32.6415 75.4859 32.8828 75.4255C33.1709 75.3776 33.4544 75.2534 33.8267 75.0779C34.6134 74.6631 35.0837 74.589 35.3309 74.8804C35.4163 75.0284 35.3913 75.1218 35.2433 75.2072L35.0486 75.2802C34.7434 75.2985 34.1172 75.5811 33.17 76.128C32.2228 76.6748 31.6433 76.9699 31.419 77.06C31.2118 77.1796 31.1959 77.4256 31.4181 77.8104C31.5673 78.0005 31.6824 78.1314 31.7929 78.186C31.9033 78.2406 32.369 78.0902 33.1853 77.6584C34.0437 77.1628 34.4832 76.8301 34.474 76.6775C34.6003 76.4862 35.0102 76.1706 35.6614 75.7947C35.839 75.6921 36.2876 75.5121 37.0071 75.2545C37.6208 75.0186 38.222 74.8294 38.781 74.7039C39.717 74.4793 40.3364 74.5953 40.6862 75.0643C40.8867 75.3432 41.0121 75.9023 41.0329 76.7586C41.0137 77.2038 41.0616 77.4919 41.1299 77.6103C41.1766 77.6228 41.2233 77.6353 41.3292 77.6136L41.6457 77.2731C42.2581 76.7616 42.7134 76.183 43.0115 75.5372C43.3209 74.5693 43.5349 74.0511 43.5941 74.0169C43.6999 73.9952 43.8104 74.0499 43.9426 74.2104C44.2331 74.7136 44.3369 75.1667 44.2197 75.5107C44.1492 75.8671 44.1333 76.1131 44.2484 76.244L44.3122 76.2861C44.3714 76.2519 44.4806 76.031 44.5932 75.6108C44.7354 75.1735 44.8559 74.6303 44.9206 73.922C44.9557 73.2308 44.9316 72.5738 44.7845 71.9088C44.6544 71.2735 44.406 70.7065 44.0392 70.2078C43.4206 69.3415 42.4981 68.769 41.2249 68.4779C39.7867 68.2427 38.2017 68.3685 36.4449 68.9486C34.6881 69.5288 33.093 70.2523 31.7018 71.0556L30.8012 71.615C30.7979 71.8142 30.5953 72.0101 30.2697 72.1981L29.9862 72.3223C29.4317 72.5241 29.0719 72.6529 28.8943 72.7554C28.8055 72.8067 28.7167 72.8579 28.645 72.9388C28.176 73.2885 27.4234 73.7625 26.4466 74.3264C24.7048 75.411 23.0984 76.4569 21.6913 77.506C21.0026 78.0221 20.5928 78.3376 20.496 78.5119C20.3697 78.7032 20.1796 78.8525 19.9132 79.0063C19.6468 79.1601 19.1652 79.5565 18.4982 80.1784C17.8732 80.7366 16.9147 81.6057 15.5168 82.8075C14.803 83.4169 14.0596 84.0434 13.363 84.6825L12.3749 85.5687C10.9006 86.775 9.60068 88.0781 8.47496 89.4779C7.27754 90.9586 6.64955 92.742 6.53181 94.8623C6.46713 95.5706 6.4946 96.0283 6.64383 96.2184L6.66092 96.248C6.83975 96.421 7.30208 96.4699 8.0775 96.3774C7.95574 96.645 7.85901 96.8193 7.76228 96.9935C7.4971 97.4229 7.36741 97.8135 7.29693 98.1699C7.25604 98.5093 7.3473 99.0091 7.60029 99.6524L7.74617 100.042C7.84994 100.495 7.99582 100.884 8.17922 101.134C8.36263 101.383 8.579 101.416 8.83289 101.309C9.4249 100.967 9.79932 100.317 10.0028 99.3704C10.1154 98.9502 10.3043 98.5254 10.5103 98.1302C11.0498 97.424 11.6143 96.6245 12.1401 95.6894C13.0153 94.1975 13.6219 93.3342 13.9771 93.1291C14.0238 93.1416 14.083 93.1074 14.1718 93.0561C14.4086 92.9194 14.6534 92.6597 14.9356 92.2599C15.1883 91.8773 15.564 91.5025 16.0284 91.0765L16.1889 90.9444C16.4974 90.7268 17.0336 90.2199 17.8566 89.3895C18.0296 89.2107 18.477 88.7551 19.2158 88.0523C19.4901 87.7755 19.7394 87.5921 19.917 87.4895C20.4202 87.199 21.2524 86.5212 22.3839 85.4732C22.426 85.4095 22.4681 85.3457 22.4977 85.3286C22.6458 85.2431 22.7858 85.2807 22.9351 85.4708C23.2039 85.8681 23.4798 86.8928 23.7627 88.545L25.0482 95.42C25.4737 97.6608 25.6495 99.059 25.5882 99.5681C25.5006 99.8949 25.3492 100.18 25.1637 100.405C24.9782 100.631 24.6617 100.971 24.2781 101.469C22.5616 103.486 21.4564 104.716 20.9156 105.147C20.4887 105.433 20.1005 105.854 19.7808 106.394C19.5406 106.73 19.2287 107.147 18.8747 107.628C18.1326 108.53 17.6944 109.138 17.5601 109.452C17.4646 109.902 17.5513 110.326 17.8202 110.723C18.0719 111.091 18.3567 111.242 18.6618 111.224C18.967 111.205 19.2004 111.268 19.3964 111.471C19.4772 111.542 19.5923 111.673 19.7665 111.77C20.451 112.203 20.9179 112.329 21.1422 112.239C21.3961 112.131 21.5316 112.093 21.5908 112.059C21.946 111.853 22.3091 111.525 22.6631 111.045C23.6579 109.76 24.6744 108.581 25.7547 107.444C25.8651 107.499 25.9289 107.541 26.0177 107.49C26.0769 107.456 26.1236 107.468 26.1407 107.498L26.0986 107.562C25.9552 107.723 25.9472 107.846 26.0156 107.965C26.0965 108.036 26.2536 108.103 26.4575 108.183C26.954 108.291 27.2854 108.455 27.4688 108.704C27.6351 108.924 27.7001 109.242 27.6809 109.687C27.59 110.213 28.2996 114.382 29.8268 122.222C29.9489 122.98 30.1393 123.857 30.4448 124.865C30.6603 125.648 30.9429 126.274 31.2459 126.731C31.3781 126.891 31.5102 127.052 31.6719 127.195C34.1127 128.825 36.1237 129.164 37.6925 128.258ZM31.155 102.511C30.9432 102.554 30.769 102.458 30.5685 102.179C30.4705 102.077 30.4956 101.984 30.5844 101.933C30.7028 101.864 30.779 101.86 30.8895 101.914C31 101.969 31.0809 102.041 31.1617 102.112C31.2814 102.32 31.2734 102.443 31.155 102.511ZM12.6619 92.9018C12.4251 93.0385 12.2725 93.0476 12.1745 92.9463C12.0082 92.7266 12.6024 91.91 13.9399 90.4668C15.6109 88.7127 16.6832 87.6989 17.1568 87.4255L17.2456 87.3742C17.6008 87.1691 17.9936 86.824 18.4489 86.2454C18.8916 85.7135 19.3436 85.3342 19.758 85.0949L20.1895 84.8852C20.5151 84.6973 20.7894 84.4205 20.9829 84.072C21.1764 83.7235 21.4211 83.4638 21.7171 83.2929C22.1907 83.0194 22.5426 83.0136 22.8023 83.2584C22.9219 83.4656 22.8297 83.7161 22.462 83.9679C22.0943 84.2196 21.8496 84.4793 21.6982 84.7641C21.5469 85.0488 21.1074 85.3814 20.4266 85.7745C19.7504 86.2438 19.476 86.5206 19.5444 86.639C19.6595 86.7699 19.5752 86.8975 19.3088 87.0513L18.5346 87.4194C18.209 87.6073 18.0827 87.7987 18.1556 87.9934C18.2286 88.1881 18.191 88.3281 18.043 88.4136C17.9542 88.4649 17.8654 88.5161 17.7425 88.5082C17.607 88.547 17.4123 88.6199 17.1755 88.7566C16.6723 89.0471 16.2032 89.3969 15.7559 89.8525C14.8612 90.7637 14.1269 91.5428 13.5362 92.1602C13.1901 92.5178 12.8987 92.765 12.6619 92.9018ZM37.7093 73.9414C37.3245 74.1635 36.918 74.2798 36.4648 74.3836C36.0413 74.4703 35.7611 74.3952 35.6461 74.2643C35.5948 74.1755 35.6198 74.0821 35.7974 73.9796C36.0342 73.8428 36.5591 73.6582 37.3129 73.4598C37.8423 73.3515 38.1304 73.3036 38.1988 73.422C38.2158 73.4516 38.2158 73.4516 38.1737 73.5153C38.0599 73.66 37.9165 73.8217 37.7093 73.9414ZM34.2769 119.061C34.2769 119.061 34.2894 119.014 34.3145 118.921C34.3099 118.844 34.3132 118.645 34.2949 118.34C34.3062 118.018 34.2708 117.683 34.2012 117.289C34.1316 116.895 34.0791 116.531 34.0141 116.213C33.9491 115.895 33.842 115.641 33.7565 115.493L33.6336 115.486C33.5301 116.058 33.5884 116.775 33.8256 117.664C33.9943 118.435 34.0981 118.888 34.2131 119.019C34.2302 119.048 34.2473 119.078 34.2769 119.061ZM33.7291 115.036C33.86 114.921 33.7937 114.327 33.6363 113.234C33.3842 111.841 33.1174 110.968 32.8315 110.542C32.7506 110.47 32.7335 110.44 32.7039 110.457C32.5855 110.526 32.5571 110.818 32.6188 111.335C32.7171 112.463 32.8813 113.157 33.0989 113.466L33.1514 113.83C33.1047 113.818 33.1047 113.818 33.0751 113.835C33.0455 113.852 32.9863 113.886 32.9908 113.962C33.0809 114.186 33.2005 114.394 33.3201 114.601C33.4352 114.732 33.5673 114.892 33.7291 115.036ZM33.4983 112.722C33.4641 112.663 33.4595 112.586 33.4721 112.54C33.455 112.51 33.4675 112.463 33.4504 112.434C33.4629 112.387 33.4287 112.328 33.4412 112.281C33.4241 112.252 33.4367 112.205 33.3729 112.163C33.4287 112.328 33.4037 112.421 33.3149 112.473C33.2853 112.49 33.2044 112.418 33.119 112.27C32.9356 112.021 32.7601 111.648 32.6051 111.106C32.523 110.759 32.4967 110.577 32.5388 110.513C32.598 110.479 32.7085 110.534 32.8531 110.647C33.1391 111.074 33.3362 111.553 33.3808 112.04C33.53 112.23 33.5438 112.459 33.4983 112.722ZM33.0603 110.528C33.1491 110.477 33.1479 110.201 33.133 109.697C33.0884 109.209 33.0405 108.921 32.9892 108.832C32.8229 108.613 32.6907 108.452 32.5632 108.368C32.5336 108.385 32.5211 108.432 32.479 108.495C32.4539 108.589 32.4289 108.682 32.421 108.805C32.4131 108.928 32.4051 109.051 32.3972 109.174C32.3597 109.314 32.3642 109.391 32.3813 109.42C32.3984 109.45 32.4497 109.539 32.4884 109.674C32.5272 109.809 32.5956 109.928 32.6468 110.017C32.6981 110.106 32.7494 110.194 32.7836 110.254C32.9157 110.414 32.9841 110.532 33.0603 110.528ZM23.9588 110.691C24.2082 110.508 24.5588 110.227 24.9173 109.822C25.1871 109.469 25.3134 109.278 25.2793 109.219C25.2622 109.189 25.1563 109.211 24.9787 109.313L24.5222 109.616L23.7788 110.243C23.5341 110.502 23.4544 110.706 23.5353 110.778C23.5865 110.867 23.6924 110.845 23.87 110.743L23.9588 110.691ZM32.6566 108.393C32.7704 108.248 32.7679 107.697 32.6367 106.786L32.4655 105.464C32.5247 105.43 32.5372 105.383 32.5497 105.337C32.5381 104.633 32.4639 104.163 32.3101 103.896C32.1438 103.677 32.0583 103.529 32.0242 103.469C31.7086 103.06 31.5002 102.904 31.3522 102.989C31.2634 103.04 31.3534 103.265 31.5756 103.649C31.4913 103.777 31.455 104.193 31.5259 104.862C31.6675 106.201 31.9046 107.091 32.161 107.535C32.178 107.564 32.1655 107.611 32.1997 107.67C32.2043 107.746 32.2385 107.805 32.2601 107.911C32.2818 108.017 32.316 108.076 32.3331 108.106C32.3206 108.153 32.3377 108.182 32.3718 108.242C32.504 108.402 32.5678 108.444 32.627 108.41L32.6566 108.393ZM25.7654 108.898C26.2094 108.642 26.314 108.345 26.1215 107.943C26.0748 107.93 26.0156 107.965 25.9564 107.999C25.8972 108.033 25.8084 108.084 25.7071 108.182C25.6058 108.28 25.4919 108.425 25.3952 108.599C25.3281 108.756 25.2734 108.867 25.3543 108.938C25.4056 109.027 25.5582 109.018 25.7654 108.898ZM33.3738 100.954C33.433 100.919 33.5047 100.839 33.6061 100.741C33.6903 100.613 33.7449 100.503 33.7528 100.38C33.7904 100.24 33.7858 100.163 33.7516 100.104L33.7049 100.092C33.5944 100.037 33.4123 100.063 33.2051 100.183C33.0149 100.332 32.8544 100.464 32.7281 100.656C32.6018 100.847 32.5938 100.97 32.6451 101.059C32.7431 101.16 32.9252 101.134 33.285 101.005L33.3738 100.954ZM34.5304 99.8123C34.708 99.7098 34.7626 99.5993 34.6476 99.4684C34.4812 99.2487 34.2899 99.1223 34.1248 99.1782C33.9768 99.2636 33.9393 99.4037 33.953 99.6326L34.0043 99.7214C34.1535 99.9115 34.3232 99.9319 34.5304 99.8123ZM42.9918 77.7588C43.2582 77.605 43.4266 77.3499 43.5267 76.9764C43.6268 76.6029 43.6426 76.3569 43.5447 76.2556C43.4934 76.1668 43.4171 76.1714 43.2987 76.2397L43.1303 76.4948C42.7479 77.2681 42.6057 77.7054 42.7037 77.8068C42.7379 77.866 42.8437 77.8443 42.9918 77.7588ZM28.2649 80.8938C28.6622 80.625 29.0379 80.2502 29.3156 79.7742C29.4419 79.5828 29.632 79.4336 29.8221 79.2844C30.0589 79.1476 30.2536 79.0747 30.4654 79.0314C30.6647 79.0347 30.8298 78.9789 30.9186 78.9276C31.185 78.7738 31.235 78.587 31.0858 78.3969C30.8169 77.9996 30.2533 78.0487 29.4541 78.5102C28.3589 79.1425 27.6451 79.7519 27.3253 80.2918C27.174 80.5765 27.1877 80.8053 27.354 81.0251C27.5033 81.2152 27.7913 81.1673 28.1465 80.9622L28.2649 80.8938ZM57.9616 104.439C58.0504 104.388 58.3168 104.234 58.7437 103.948C59.1706 103.662 59.718 102.833 60.4327 101.473C60.7479 100.857 61.1803 99.8971 61.7003 98.6102C62.0063 97.8415 62.1986 97.2175 62.3066 96.721C62.385 96.2415 62.4726 95.9147 62.5522 95.7109C62.649 95.5366 62.7411 95.2861 62.8458 94.9888C62.9596 94.8442 63.1097 94.2839 63.3383 93.2442C63.4088 92.8878 63.4417 92.6714 63.3904 92.5826C63.3142 92.5872 63.2174 92.7614 63.1128 93.0587C61.8043 96.2611 60.2828 99.2313 58.5358 102.016C58.5062 102.033 58.4937 102.08 58.4516 102.143C58.4095 102.207 58.3378 102.288 58.2661 102.369C58.224 102.433 58.1522 102.514 58.0759 102.518C58.0167 102.552 57.9701 102.54 57.9188 102.451C57.8413 102.18 57.9243 101.777 58.2395 101.161C58.8357 99.8694 59.3536 99.0574 59.8226 98.7076C60.0378 98.465 60.2016 98.1336 60.2971 97.6838C60.3597 97.4503 60.4097 97.2636 60.5235 97.1189C62.1997 93.6647 63.4932 89.9579 64.4462 85.9346C64.7952 84.3517 64.91 83.4567 64.7903 83.2495C64.7311 83.2836 64.4547 84.0353 63.9735 85.4576L63.6094 86.5361C63.6082 86.2605 63.8935 84.6355 64.4824 81.6907C64.7234 80.6043 64.7927 79.9723 64.7243 79.8539C64.7072 79.8243 64.7072 79.8243 64.6776 79.8414C64.5592 79.9097 64.2327 80.8481 63.7323 82.7157C62.8157 86.3234 61.5426 89.8606 59.9302 93.3569C59.0438 95.1711 58.0719 96.8373 56.904 98.3009C56.2632 99.105 55.579 99.6974 54.9107 100.044C54.3904 100.305 53.8906 100.396 53.352 100.352L53.1527 100.348C52.8304 100.337 52.6562 100.24 52.5878 100.122C52.5537 100.063 52.532 99.9568 52.4932 99.8213C52.4841 99.6688 52.4282 99.5037 52.3257 99.3261C52.2231 99.1485 52.0739 98.9583 51.9589 98.8274C51.8563 98.6498 51.7413 98.5189 51.6558 98.3709C51.502 98.1045 51.535 97.8882 51.7593 97.7981L51.9244 97.7423C51.954 97.7252 51.9665 97.6785 51.9494 97.6489C51.9494 97.6489 51.9152 97.5897 51.8514 97.5476C51.7876 97.5055 51.7535 97.4463 51.6897 97.4042C51.6259 97.362 51.5917 97.3028 51.5575 97.2436C51.1303 96.5036 51.1324 96.0288 51.5639 95.8191L52.0717 95.6049C52.8459 95.2369 53.6814 94.3598 54.5828 93.05C54.7513 92.7949 54.9823 92.3063 55.2929 91.6139C55.9563 90.1653 56.3979 89.3578 56.6051 89.2382L56.6221 89.2678C56.8101 89.5934 56.5553 90.4509 55.8749 91.8699C55.3878 92.9404 54.9338 93.7946 54.4877 94.5258C54.2975 94.675 54.0824 94.9176 53.8548 95.2069C53.8548 95.2069 53.8126 95.2707 53.7705 95.3345C53.7113 95.3687 53.6396 95.4495 53.5554 95.5771C53.4541 95.6751 53.4291 95.7684 53.4632 95.8276C53.4803 95.8572 53.5737 95.8823 53.7092 95.8435C53.9973 95.7956 54.2432 95.8114 54.3583 95.9424C54.4859 96.0266 54.6259 96.0641 54.8035 95.9616C54.8923 95.9103 55.0403 95.8249 55.2008 95.6927C56.2903 94.7085 57.2405 92.9364 57.9798 90.4573C58.3893 89.1158 58.3081 88.0181 57.7784 87.1005C57.6929 86.9525 57.6291 86.9104 57.5403 86.9616C57.4811 86.9958 57.4015 87.1997 57.2718 87.5903C57.1638 88.0868 57.042 88.3544 56.9361 88.3761L56.8007 88.4148C56.7106 88.1905 56.6752 87.8558 56.7115 87.4401C56.7558 86.9015 56.7033 86.5372 56.5836 86.33C56.4811 86.1524 56.3535 86.0681 56.1076 86.0523C55.8958 86.0956 55.7044 85.9693 55.5335 85.6733C55.3205 85.4411 55.1496 85.145 54.9617 84.8194C54.7657 84.6168 54.4343 84.453 53.9253 84.3916C53.1236 84.3019 52.3528 84.4707 51.6378 84.8046C50.2841 85.4677 49.2072 86.4052 48.4242 87.6466C47.3022 89.8731 46.745 92.326 46.7527 95.0054C46.7692 96.8113 47.1205 98.5819 47.8407 100.376C47.9695 100.736 48.1404 101.032 48.3113 101.328C48.4993 101.654 48.7169 101.962 48.9982 102.313C49.2967 102.693 49.8069 103.03 50.5335 103.4C51.0859 103.673 51.4982 103.908 51.8513 104.178C52.1872 104.418 52.5654 104.595 52.9435 104.771C53.3512 104.93 53.8898 104.975 54.5935 104.963C56.0943 104.965 57.217 104.79 57.9616 104.439ZM51.3228 93.0773C51.0985 93.1673 50.9459 93.1764 50.8604 93.0284C50.8092 92.9396 50.7829 92.7575 50.8159 92.5411C50.8555 91.9262 51.0432 91.2258 51.3789 90.44C51.8488 89.3399 52.4179 88.6166 53.0737 88.317C53.3993 88.129 53.6623 88.1744 53.7991 88.4112C54.0554 88.8552 53.9611 89.5806 53.457 90.6216C52.797 91.8709 52.097 92.7092 51.3228 93.0773ZM52.1337 97.1478C52.5356 96.9552 52.8145 96.7547 52.9704 96.5463C53.1264 96.3379 53.1639 96.1978 53.1297 96.1386C53.0614 96.0202 52.9259 96.059 52.7016 96.149C52.5536 96.2344 52.3464 96.3541 52.097 96.5375C51.9957 96.6354 51.9582 96.7755 51.874 96.9031C51.8068 97.0602 51.8285 97.1661 51.8627 97.2253C51.8798 97.2549 51.9561 97.2503 52.1337 97.1478ZM73.1762 95.6551C73.265 95.6038 73.5314 95.45 73.9583 95.164C74.3852 94.8781 74.9327 94.049 75.6473 92.6891C75.9626 92.073 76.395 91.1129 76.9149 89.8261C77.221 89.0573 77.4132 88.4333 77.5212 87.9368C77.5997 87.4574 77.6872 87.1305 77.7669 86.9267C77.8636 86.7524 77.9558 86.5019 78.0604 86.2047C78.1743 86.06 78.3244 85.4997 78.5529 84.46C78.6234 84.1036 78.6564 83.8872 78.6051 83.7984C78.5288 83.803 78.4321 83.9773 78.3274 84.2745C77.0189 87.4769 75.4975 90.4471 73.7505 93.2318C73.7209 93.2488 73.7084 93.2955 73.6662 93.3593C73.6241 93.4231 73.5524 93.504 73.4807 93.5848C73.4386 93.6486 73.3669 93.7295 73.2906 93.7341C73.2314 93.7682 73.1847 93.7557 73.1334 93.6669C73.0559 93.396 73.1389 92.9928 73.4541 92.3767C74.0504 91.0852 74.5682 90.2732 75.0373 89.9234C75.2524 89.6808 75.4163 89.3494 75.5118 88.8996C75.5743 88.6662 75.6244 88.4794 75.7382 88.3348C77.4144 84.8806 78.7079 81.1737 79.6608 77.1504C80.0099 75.5675 80.1246 74.6725 80.005 74.4653C79.9458 74.4995 79.6693 75.2511 79.1881 76.6735L78.8241 77.7519C78.8228 77.4763 79.1081 75.8513 79.697 72.9065C79.9381 71.8201 80.0073 71.1881 79.939 71.0697C79.9219 71.0401 79.9219 71.0401 79.8923 71.0572C79.7739 71.1256 79.4474 72.064 78.947 73.9316C78.0303 77.5392 76.7573 81.0764 75.1449 84.5727C74.2584 86.3869 73.2865 88.0531 72.1187 89.5167C71.4778 90.3209 70.7937 90.9132 70.1254 91.2596C69.6051 91.5205 69.1052 91.6118 68.5666 91.5675L68.3673 91.5642C68.0451 91.5529 67.8708 91.4561 67.8025 91.3377C67.7683 91.2785 67.7466 91.1727 67.7079 91.0372C67.6987 90.8846 67.6429 90.7195 67.5403 90.5419C67.4378 90.3643 67.2886 90.1742 67.1735 90.0433C67.071 89.8657 66.9559 89.7347 66.8705 89.5867C66.7167 89.3203 66.7496 89.104 66.9739 89.0139L67.139 88.9581C67.1686 88.941 67.1811 88.8943 67.164 88.8647C67.164 88.8647 67.1298 88.8055 67.0661 88.7634C67.0023 88.7213 66.9681 88.6621 66.9043 88.62C66.8405 88.5779 66.8064 88.5187 66.7722 88.4595C66.3449 87.7195 66.3471 87.2446 66.7786 87.035L67.2863 86.8207C68.0605 86.4527 68.896 85.5756 69.7975 84.2658C69.9659 84.0107 70.1969 83.5221 70.5076 82.8297C71.1709 81.3811 71.6125 80.5736 71.8197 80.454L71.8368 80.4836C72.0248 80.8092 71.77 81.6667 71.0895 83.0857C70.6025 84.1563 70.1484 85.0104 69.7023 85.7416C69.5122 85.8908 69.297 86.1334 69.0694 86.4228C69.0694 86.4228 69.0273 86.4865 68.9852 86.5503C68.926 86.5845 68.8543 86.6654 68.77 86.7929C68.6687 86.8909 68.6437 86.9843 68.6779 87.0435C68.695 87.0731 68.7884 87.0981 68.9239 87.0593C69.2119 87.0114 69.4579 87.0273 69.5729 87.1582C69.7005 87.2424 69.8406 87.2799 70.0182 87.1774C70.107 87.1261 70.255 87.0407 70.4155 86.9085C71.5049 85.9244 72.4551 84.1523 73.1945 81.6731C73.604 80.3316 73.5228 79.2339 72.993 78.3163C72.9076 78.1683 72.8438 78.1262 72.755 78.1774C72.6958 78.2116 72.6161 78.4155 72.4864 78.8061C72.3784 79.3026 72.2567 79.5702 72.1508 79.5919L72.0153 79.6307C71.9253 79.4064 71.8899 79.0716 71.9262 78.656C71.9704 78.1174 71.9179 77.753 71.7983 77.5458C71.6957 77.3682 71.5682 77.284 71.3222 77.2681C71.1104 77.3114 70.9191 77.1851 70.7482 76.8891C70.5352 76.6569 70.3643 76.3609 70.1763 76.0353C69.9804 75.8326 69.649 75.6688 69.14 75.6074C68.3383 75.5177 67.5674 75.6865 66.8525 76.0204C65.4988 76.6835 64.4219 77.621 63.6388 78.8624C62.5168 81.0889 61.9596 83.5419 61.9673 86.2212C61.9838 88.0272 62.3351 89.7977 63.0554 91.5921C63.1841 91.9518 63.355 92.2478 63.5259 92.5438C63.7139 92.8695 63.9315 93.178 64.2129 93.5286C64.5113 93.9088 65.0216 94.2457 65.7482 94.6156C66.3005 94.8887 66.7128 95.1242 67.0659 95.394C67.4019 95.6342 67.78 95.8105 68.1581 95.9869C68.5658 96.1462 69.1044 96.1904 69.8081 96.1788C71.3089 96.1806 72.4316 96.006 73.1762 95.6551ZM66.5374 84.2931C66.3131 84.3831 66.1605 84.3923 66.0751 84.2443C66.0238 84.1555 65.9976 83.9733 66.0305 83.7569C66.0702 83.142 66.2578 82.4417 66.5935 81.6558C67.0634 80.5557 67.6325 79.8325 68.2883 79.5328C68.6139 79.3448 68.877 79.3903 69.0137 79.6271C69.2701 80.0711 69.1758 80.7964 68.6717 81.8374C68.0116 83.0867 67.3116 83.925 66.5374 84.2931ZM67.3483 88.3636C67.7502 88.1711 68.0291 87.9706 68.1851 87.7621C68.341 87.5537 68.3785 87.4136 68.3444 87.3544C68.276 87.236 68.1405 87.2748 67.9162 87.3648C67.7682 87.4503 67.561 87.5699 67.3117 87.7533C67.2104 87.8513 67.1728 87.9913 67.0886 88.1189C67.0215 88.2761 67.0432 88.3819 67.0773 88.4411C67.0944 88.4707 67.1707 88.4662 67.3483 88.3636ZM80.6993 77.1034C80.6981 76.8278 80.731 76.6115 80.781 76.4247C80.8061 76.3313 80.814 76.2083 80.8219 76.0854C80.8299 75.9624 80.7911 75.8269 80.7649 75.6447C80.6998 75.327 80.6815 75.0219 80.6757 74.67C80.687 74.3478 80.7325 74.0847 80.7996 73.9276C80.8417 73.8638 80.8542 73.8171 80.8963 73.7533C80.968 73.6724 81.0227 73.562 81.0602 73.4219C81.1148 73.3114 81.1524 73.1714 81.1557 72.9721C81.1295 72.7899 81.1499 72.6202 81.1533 72.421C81.1566 72.2217 81.1474 72.0691 81.1383 71.9165C81.1291 71.7639 81.1712 71.7002 81.1712 71.7002C81.0846 71.2766 81.0833 71.001 81.1676 70.8735C81.2051 70.7334 81.2643 70.6992 81.2814 70.7288C81.3452 70.7709 81.4089 70.813 81.4602 70.9018L81.4773 70.9314C81.5411 70.9736 81.5582 71.0032 81.6049 71.0157C81.639 71.0749 81.6561 71.1045 81.7199 71.1466C81.737 71.1762 81.7541 71.2058 81.7416 71.2525C81.7132 71.5451 81.6848 71.8378 81.6781 72.2363C81.6668 72.5586 81.6681 72.8341 81.6397 73.1268C81.6113 73.4194 81.5488 73.6529 81.435 73.7975C81.3678 73.9547 81.2711 74.129 81.2336 74.269C81.1835 74.4558 81.1756 74.5788 81.1676 74.7017C81.1597 74.8247 81.1643 74.901 81.1643 74.901C81.1643 74.901 81.1689 74.9773 81.178 75.1299C81.2043 75.3121 81.2305 75.4943 81.2443 75.7231C81.2876 75.9349 81.3013 76.1638 81.2684 76.3801C81.2776 76.5327 81.2571 76.7024 81.2788 76.8083C81.2879 76.9609 81.28 77.0839 81.2721 77.2068C81.2812 77.3594 81.2312 77.5462 81.1811 77.7329C81.1482 77.9493 81.1415 78.3478 81.2373 78.924C81.3036 79.5172 81.4757 80.0888 81.7412 80.6854C82.0192 81.2353 82.2756 81.6793 82.5102 82.0174C82.6595 82.2075 82.762 82.3851 82.7666 82.4614C82.8178 82.5502 82.7712 82.5377 82.6265 82.4239C82.5115 82.293 82.3622 82.1029 82.1321 81.841C81.9487 81.5917 81.7311 81.2832 81.5261 80.928C81.2868 80.5136 81.1238 80.0946 80.995 79.7348C80.8959 79.3579 80.865 79.0995 80.873 78.9765C80.8763 78.7772 80.8455 78.5187 80.7976 78.2307C80.7326 77.913 80.7097 77.5315 80.6993 77.1034ZM81.9781 70.0898C82.0669 70.0385 82.1431 70.0339 82.2194 70.0294C82.2957 70.0248 82.3595 70.0669 82.3937 70.1261C82.4279 70.1853 82.4154 70.232 82.3903 70.3254C82.3482 70.3891 82.3061 70.4529 82.2173 70.5042C82.1285 70.5555 82.0226 70.5771 81.9463 70.5817C81.853 70.5567 81.8063 70.5442 81.7721 70.485C81.7379 70.4258 81.7333 70.3495 81.7754 70.2857C81.8175 70.2219 81.8893 70.1411 81.9781 70.0898ZM83.379 81.9499C82.8892 81.4434 82.5245 80.4699 82.3487 79.0717C82.1729 77.6734 82.103 76.2535 82.1686 74.7948C82.2342 73.3361 82.3693 72.2714 82.5741 71.6006C82.8847 70.9082 83.3833 70.5414 84.0825 70.4535C84.8283 70.3781 85.3886 70.5282 85.8396 70.8993C86.096 71.3433 86.3081 72.3259 86.3997 73.8517C86.4912 75.3776 86.4006 76.9296 86.1575 78.4908C85.8847 80.0692 85.351 81.1272 84.5734 81.6945C84.3879 81.92 84.2103 82.0226 84.0156 82.0955C83.838 82.198 83.6342 82.1184 83.379 81.9499ZM92.2606 74.2962C92.0156 73.53 91.8218 72.8525 91.7214 72.2001C91.6084 71.5943 91.4488 70.9761 91.2254 70.3157C91.0966 69.9559 91.002 69.6553 90.9883 69.4265C90.9621 69.2443 90.9483 69.0154 90.9688 68.8457C90.9846 68.5998 90.9617 68.2183 90.875 67.7948C90.8146 67.5534 90.7713 67.3416 90.7621 67.189C90.753 67.0364 90.7609 66.9134 90.7688 66.7905C90.8018 66.5741 90.771 66.3156 90.6934 66.0446C90.478 65.2613 90.3434 64.5497 90.2851 63.8334C90.2372 63.5454 90.1892 63.2573 90.1413 62.9692C90.1197 62.8633 90.098 62.7574 90.0763 62.6515C90.033 62.4398 90.0067 62.2576 89.9805 62.0754C89.9542 61.8932 89.9622 61.7702 90.0464 61.6427C90.101 61.5322 90.2069 61.5105 90.4062 61.5139C90.6692 61.5594 90.8343 61.5035 90.8593 61.4101C90.8844 61.3167 90.8627 61.2109 90.7476 61.0799C90.6326 60.949 90.4879 60.8352 90.2841 60.7556C90.2203 60.7134 90.1269 60.6884 90.0632 60.6463C89.9356 60.5621 89.8422 60.5371 89.7784 60.495C89.7317 60.4825 89.7146 60.4529 89.6976 60.4233C89.7272 60.4062 89.7397 60.3595 89.7693 60.3424C89.8285 60.3082 89.9173 60.2569 89.9719 60.1465C90.0436 60.0656 90.1278 59.938 90.1779 59.7513C90.2279 59.5645 90.2438 59.3185 90.2084 58.9838C90.1763 58.4497 90.1055 57.7802 90.013 57.0048C89.9239 56.0301 89.8177 55.0258 89.741 54.0044C89.6644 52.9831 89.6437 52.1268 89.6958 51.4652C89.7401 50.9266 89.7843 50.3879 89.841 49.8026C89.8657 48.6833 89.9884 47.6653 90.1452 46.7064C90.2908 46.0699 90.4751 45.5688 90.6219 45.2078C90.8233 44.7363 90.9062 44.3332 90.8538 43.9688C90.7717 43.6215 90.4219 43.1525 89.7579 42.5492C89.5961 42.4058 89.4811 42.2749 89.4298 42.1861C89.3785 42.0973 89.3569 41.9914 89.3398 41.9618C89.3523 41.9151 89.3352 41.8855 89.3181 41.8559C89.301 41.8263 89.2839 41.7967 89.2372 41.7842C88.0267 41.2596 86.831 41.2395 85.6162 41.6646C85.1346 42.0611 84.7569 42.9106 84.5421 44.1792C84.3147 45.4945 84.1808 46.8347 84.1277 48.2467C84.0872 49.612 84.0875 50.638 84.1412 51.2779C84.2133 52.223 84.3207 53.5029 84.4294 55.0583C84.5439 56.9656 84.6822 58.5039 84.8146 59.6904C84.9025 60.3895 84.9483 61.1524 85.0112 61.9449C85.1061 63.2714 85.2386 64.4579 85.4553 65.5168C85.607 66.2581 85.7587 66.9993 85.8933 67.711C85.9024 67.8635 85.9412 67.999 85.9799 68.1345C84.8285 67.5758 83.6317 67.2801 82.3598 67.2646C80.9603 67.1648 79.8672 67.3223 79.0851 67.8133C78.3325 68.2873 77.7134 69.1973 77.2572 70.5263C76.7476 72.2413 76.6128 74.332 76.8698 76.8279C77.0972 79.3409 77.5852 81.3483 78.3384 82.9263C78.5138 83.2986 78.7656 83.6663 79.0299 83.9873C80.8286 86.1457 83.113 86.958 85.8537 86.4413C87.9248 85.9954 89.2373 84.6456 89.7911 82.392C89.8207 82.3749 89.8207 82.3749 89.8037 82.3453C89.8787 82.0651 89.988 81.8442 90.0722 81.7166C90.186 81.572 90.3728 81.622 90.6154 81.8372C90.7692 82.1036 90.9526 82.3529 91.1235 82.6489C91.5462 83.3126 91.9859 84.0059 92.4849 84.6651C93.0009 85.3538 93.4907 85.8604 94.0135 86.1506C94.4258 86.3862 94.8209 86.5921 95.2457 86.781C95.6705 86.9699 95.9848 87.1042 96.2058 87.2134C96.4392 87.276 96.6727 87.3385 96.9357 87.384C97.1817 87.3998 97.504 87.4111 97.9788 87.4133C98.3477 87.4371 98.6746 87.5246 98.8955 87.6339C99.006 87.6885 99.1165 87.7431 99.2098 87.7681C99.2861 87.7636 99.3624 87.759 99.4512 87.7077C99.6584 87.5881 99.8064 87.5026 99.9123 87.481C99.9886 87.4764 100.048 87.4422 100.031 87.4126C100.014 87.383 99.9794 87.3238 99.8986 87.2521C99.8986 87.2521 99.8986 87.2521 99.8815 87.2225C97.7868 85.235 96.2695 83.4272 95.3762 81.8117C94.483 80.1962 93.6431 78.1947 92.8271 75.8242C92.6595 75.3289 92.492 74.8336 92.2606 74.2962ZM88.6609 48.5106C88.5959 48.1929 88.5605 47.8582 88.5593 47.5826C88.5877 47.2899 88.6331 47.0269 88.7174 46.8993C88.7424 46.806 88.8141 46.7251 88.9154 46.6271C88.9871 46.5463 89.0417 46.4358 89.126 46.3082C89.1806 46.1978 89.2181 46.0577 89.209 45.9051C89.2294 45.7354 89.2032 45.5532 89.1894 45.3244C89.1461 45.1126 89.1494 44.9133 89.0936 44.7482C89.0844 44.5956 89.0628 44.4898 89.0628 44.4898L88.8769 43.6893C88.8769 43.6893 88.9065 43.6722 88.9657 43.638C89.0124 43.6506 89.0716 43.6164 89.1479 43.6118C89.2071 43.5776 89.2834 43.573 89.3597 43.5685C89.436 43.5639 89.5293 43.5889 89.6056 43.5843C89.7457 43.6219 89.8437 43.7232 89.9245 43.7949C90.0054 43.8666 90.0567 43.9554 90.0612 44.0317C90.0658 44.108 89.977 44.1592 89.8244 44.1684C89.7652 44.2026 89.706 44.2368 89.7231 44.2664C89.7106 44.3131 89.7448 44.3723 89.7619 44.4019C89.7665 44.4781 89.7836 44.5077 89.771 44.5544C89.7802 44.707 89.7598 44.8767 89.7393 45.0464C89.7109 45.339 89.6826 45.6317 89.6542 45.9243C89.6087 46.1874 89.5462 46.4208 89.4324 46.5655C89.3481 46.693 89.3106 46.8331 89.2731 46.9732C89.2355 47.1132 89.2276 47.2362 89.2368 47.3888C89.2288 47.5118 89.2209 47.6348 89.2255 47.7111C89.2301 47.7874 89.2642 47.8466 89.2642 47.8466C89.2642 47.8466 89.2517 47.8932 89.2438 48.0162C89.2359 48.1392 89.245 48.2918 89.2417 48.4911C89.2383 48.6903 89.235 48.8896 89.2145 49.0593C89.2112 49.2585 89.2078 49.4578 89.1999 49.5808C89.192 49.7038 89.1669 49.7972 89.1544 49.8439C89.1419 49.8905 89.1294 49.9372 89.1169 49.9839C89.0873 50.001 89.0748 50.0477 89.0623 50.0944C89.0498 50.1411 89.0247 50.2345 89.0168 50.3574C89.0089 50.4804 89.018 50.633 89.0147 50.8323C88.9863 51.1249 89.0184 51.659 89.0596 52.3456C89.0883 53.0789 89.1637 53.8247 89.197 54.6343C89.2598 55.4268 89.3011 56.1134 89.3377 56.7238C89.3868 57.2874 89.4051 57.5926 89.4051 57.5926C89.4051 57.5926 89.3835 57.4867 89.2934 57.2624C89.233 57.021 89.1555 56.75 89.0438 56.4198C88.9788 56.1022 88.8842 55.8016 88.8363 55.5135C88.7884 55.2254 88.7621 55.0432 88.77 54.9203C88.8076 54.7802 88.7893 54.475 88.7618 54.0173C88.7639 53.5424 88.7193 53.0551 88.6998 52.4744C88.6552 51.987 88.6448 51.5589 88.6345 51.1307C88.5945 50.7197 88.6058 50.3974 88.6262 50.2278C88.625 49.9522 88.6408 49.7062 88.6909 49.5195C88.7113 49.3498 88.7318 49.1801 88.7226 49.0275C88.7134 48.875 88.6872 48.6928 88.6609 48.5106ZM88.2842 81.0124C88.3138 80.9953 88.3263 80.9486 88.3513 80.8552C88.4185 80.698 88.4856 80.5409 88.5949 80.3199C88.7041 80.099 88.8008 79.9248 88.8976 79.7505C88.9943 79.5763 89.066 79.4954 89.1423 79.4908C89.2528 79.5454 89.2744 79.6513 89.254 79.821C89.2632 79.9736 89.2131 80.1603 89.1631 80.3471C89.113 80.5339 89.0459 80.691 88.9913 80.8015C89.0084 80.8311 88.9788 80.8482 88.9662 80.8949C88.9287 81.0349 88.8616 81.1921 88.7865 81.4722C88.6489 81.9858 88.4396 82.5803 88.1836 83.1622C87.9275 83.7442 87.6407 84.0677 87.323 84.1327C87.3764 83.7467 87.4969 83.2035 87.7188 82.5623C87.9235 81.8916 88.1078 81.3905 88.2842 81.0124ZM89.5834 59.5419C89.4433 59.5044 89.3625 59.4327 89.3237 59.2972C89.3145 59.1446 89.3054 58.992 89.3554 58.8053C89.3759 58.6356 89.443 58.4784 89.468 58.3851C89.4976 58.368 89.5318 58.4272 89.5831 58.516C89.6343 58.6048 89.656 58.7107 89.6948 58.8462C89.7335 58.9817 89.7256 59.1046 89.7177 59.2276C89.7097 59.3506 89.6551 59.4611 89.5834 59.5419ZM93.5161 37.3009C93.1313 37.5231 92.9025 37.5368 92.817 37.3888C92.7145 37.2112 92.8408 37.0199 93.2256 36.7977C93.5808 36.5926 93.8393 36.5618 93.9418 36.7394C94.0273 36.8874 93.8714 37.0958 93.5161 37.3009ZM99.2525 46.8948L99.0001 44.4752C98.9122 43.7761 98.7572 43.2341 98.535 42.8493C98.2274 42.3165 98.1065 41.8337 98.1257 41.3885C98.1758 41.2017 98.1324 40.9899 97.9786 40.7235C97.8032 40.3512 97.7211 40.004 97.6731 39.7159C97.6377 39.3811 97.5477 39.1568 97.4281 38.9496L97.3426 38.8016C96.8916 38.4306 96.6148 38.1562 96.4781 37.9194L96.2513 37.4583L96.1784 37.2636C96.11 37.1452 95.9996 37.0906 95.9062 37.0656C95.7661 37.028 95.6431 37.0201 95.5031 36.9826C95.2446 37.0134 95.0874 36.9463 95.002 36.7983L94.8994 36.6207L95.0304 36.5056L95.3138 36.3814C95.7328 36.2184 96.0642 36.3823 96.3377 36.8559L96.6966 37.4775C96.8504 37.7439 97.0338 37.9933 97.2297 38.1959C97.4256 38.3985 97.6386 38.6307 97.7754 38.8675L97.9508 39.2398C98.0409 39.4641 98.1263 39.6121 98.1776 39.7009C98.2288 39.7897 98.2459 39.8193 98.2334 39.866C98.285 40.9808 98.5451 42.2515 98.9964 43.6485C99.1719 44.0208 99.2369 44.3385 99.2381 44.614C99.2656 45.0718 99.2726 45.6992 99.2592 46.4963L99.2525 46.8948ZM105.974 80.5478C108.688 78.823 110.115 74.8018 110.304 68.4968C110.304 65.6945 109.798 63.382 108.772 61.6059C108.037 60.3331 106.91 59.4054 105.36 58.84C103.522 58.3225 101.937 58.4483 100.605 59.2173C99.6279 59.7813 98.7798 60.705 98.0777 62.0181C98.0652 62.0648 98.0231 62.1286 97.9981 62.222C97.9434 62.3325 97.8342 62.5534 97.6578 62.9315C97.5861 63.0124 97.544 63.0762 97.4848 63.1103L97.4244 62.869C97.3911 62.0594 97.4307 61.4445 97.4795 60.9821C97.5455 60.5494 97.7377 59.9253 98.0438 59.1566C99.9857 53.4967 100.481 47.7245 99.5014 41.8572L99.2802 40.722C99.1272 39.7052 98.8388 38.7271 98.3558 37.822C97.9285 37.082 97.4933 36.465 97.0331 35.9413C96.3349 35.2788 95.5958 34.9557 94.8033 35.0186C94.0108 35.0814 93.3629 35.2582 92.8597 35.5487C91.5573 36.3006 90.8768 37.7197 90.7887 39.8229C90.7197 41.4808 90.7475 42.9645 90.9062 44.3332L91.1565 47.2276C91.3177 49.1474 91.4914 51.0205 91.6822 52.9232C91.7655 53.546 91.8238 54.2623 91.8913 55.1311C91.9954 56.6102 92.1757 58.0847 92.3857 59.5422L92.4303 60.0295C92.557 60.8641 92.7486 62.0164 93.0474 63.4226C93.377 65.0873 93.7362 66.7349 94.1251 68.3653L94.2813 69.1829C94.5038 70.5936 94.8264 71.6309 95.2195 72.3117C95.6467 73.0517 96.2799 73.3965 97.1237 73.4224C98.2681 73.3538 99.1277 73.1337 99.6901 72.809C100.519 72.3305 100.921 71.112 100.819 69.158L100.86 68.0683C101 66.0539 101.576 64.1817 102.608 62.4813C102.944 61.971 103.32 61.5963 103.705 61.3741C104.018 61.2328 104.32 61.4138 104.61 61.917C105.106 62.7754 105.366 64.0461 105.361 65.7462C105.382 67.6284 105.295 68.9812 105.094 69.7283C104.803 71.7518 104.132 73.599 103.055 75.2869C102.608 76.018 102.119 76.5374 101.586 76.8451C100.55 77.4432 99.4046 77.2363 98.0731 76.229C97.3716 75.7658 96.9468 75.5769 96.8113 75.6157L96.6041 75.7353C96.2193 75.9575 96.2513 76.4915 96.7298 77.3203C96.9178 77.6459 97.263 78.0386 97.7482 78.4689C98.8804 79.4729 100.231 80.035 101.783 80.1256C102.966 80.1924 103.996 79.9928 104.854 79.4972L105.399 79.1428C106.121 78.4104 106.855 76.6054 107.601 73.7277C108.026 72.1402 108.288 70.8841 108.398 69.9128C108.669 68.0589 108.928 67.0021 109.155 66.7128C109.369 67.971 109.32 69.4593 108.985 71.2711C108.889 71.7209 108.823 72.1536 108.775 72.6159C108.615 74.8 107.954 76.7997 106.762 78.6323L105.973 79.5218C105.463 80.2109 105.257 80.6061 105.309 80.6949C105.36 80.7837 105.572 80.7404 105.974 80.5478ZM96.3662 54.6787L96.3149 54.5899C95.9218 53.9091 95.6386 51.231 95.448 46.526C95.4556 45.377 95.4257 44.3682 95.3116 43.4868C95.2804 42.2024 95.3155 41.5112 95.4043 41.4599C95.4339 41.4429 95.451 41.4725 95.4681 41.5021C96.328 42.308 96.8844 44.4337 97.1668 47.8622C97.1408 48.706 97.0661 50.0121 96.8788 51.7384C96.7085 53.4943 96.5221 54.4703 96.3662 54.6787ZM97.0187 58.4066C96.8899 58.0468 97.0229 57.4569 97.4303 56.5902L97.6067 56.2121C97.8081 55.7406 98.0733 55.3113 98.3384 54.8819C98.3214 54.8523 98.3214 54.8523 98.351 54.8352C98.426 54.5551 98.4498 54.1861 98.3802 53.7922C98.3586 53.6863 98.3369 53.5804 98.3152 53.4745C98.3106 53.3982 98.3357 53.3048 98.3311 53.2285C98.3265 53.1522 98.3219 53.0759 98.3344 53.0292L98.2966 52.1434C98.3466 51.9566 98.3671 51.7869 98.3875 51.6172C98.3954 51.4943 98.4034 51.3713 98.4284 51.2779C98.4534 51.1845 98.4784 51.0911 98.4738 51.0149C98.4864 50.9682 98.4989 50.9215 98.5114 50.8748C98.541 50.8577 98.5614 50.688 98.6194 50.3783C98.6694 50.1915 98.7241 50.081 98.7537 50.064C98.7833 50.0469 98.8004 50.0765 98.8345 50.1357C98.92 50.2837 98.9633 50.4955 98.9179 50.7585C98.7915 50.9498 98.7677 51.3188 98.8932 51.8778C98.9319 52.0133 98.924 52.1363 98.8694 52.2468C98.8147 52.3573 98.7772 52.4973 98.7864 52.6499C98.8001 52.8788 98.7513 53.3411 98.682 53.9731C98.6491 54.1895 98.4068 55.0003 97.9039 56.3168C97.4181 57.6629 97.1371 58.3382 97.0187 58.4066ZM99.7438 69.6207C99.7438 69.6207 99.7267 69.5911 99.7096 69.5614C99.6925 69.5318 99.6958 69.3326 99.7071 69.0103C99.69 68.9807 99.7025 68.934 99.7105 68.8111C99.7355 68.7177 99.7605 68.6243 99.7684 68.5013C99.7764 68.3783 99.8014 68.2849 99.8139 68.2383C99.8264 68.1916 99.856 68.1745 99.856 68.1745L99.8856 68.1574L99.9039 68.4626C99.9177 68.6914 99.9143 68.8907 99.8939 69.0604C99.8609 69.2767 99.8234 69.4168 99.7813 69.4806C99.7859 69.5569 99.7438 69.6207 99.7438 69.6207ZM99.9558 66.775C99.9216 66.7158 99.925 66.5165 99.9783 66.1305C100.107 65.4643 100.287 64.8869 100.535 64.428C100.556 64.5339 100.515 64.8732 100.395 65.4164C100.187 66.2864 100.045 66.7237 99.9558 66.775ZM118.724 68.7264C119.02 68.5555 119.206 68.33 119.357 68.0453C119.807 67.1148 120.031 65.9988 120.012 64.6677C119.97 63.7055 120.055 62.8275 120.267 62.0338C120.41 61.5965 120.463 61.2105 120.445 60.9053C120.414 60.6468 120.383 60.3884 120.327 60.2233C120.271 60.0582 120.262 59.9056 120.317 59.7951C121.128 61.0634 121.95 62.0094 122.831 62.6456C123.682 63.2989 124.938 63.5604 126.569 63.4472C127.48 63.3159 128.234 63.1176 128.856 62.7587C130.099 62.0409 130.931 60.3372 131.351 57.6474L131.736 55.6489C132.1 53.5445 132.197 52.3443 132.043 52.0779C132.009 52.0187 131.945 51.9766 131.886 52.0107C131.725 52.1429 131.462 53.1234 131.097 54.9522L130.604 57.4473C130.308 58.6441 129.796 59.808 129.021 60.9265C131.172 53.6461 131.932 48.195 131.208 44.548L131.148 44.3066L131.101 44.2941C131.042 44.3283 131.009 44.5446 131.002 44.9432C130.919 46.3723 130.851 47.2798 130.82 47.7717C130.771 48.2341 130.713 48.5438 130.629 48.6714C130.558 48.0018 130.524 47.1922 130.499 46.2597C130.485 43.9789 130.304 42.5043 129.945 41.8827C129.911 41.8235 129.865 41.811 129.848 41.7814C129.83 41.7518 129.813 41.7222 129.784 41.7393L129.714 42.3713C129.52 43.4702 129.357 44.8276 129.3 46.4388C128.871 51.0279 128.006 54.7244 126.674 57.5453C126.389 58.1444 126.082 58.6375 125.718 58.9656C125.126 59.3074 124.642 59.1527 124.266 58.5015C123.89 57.8502 123.611 57.0248 123.412 55.9955C123.221 55.1187 123.125 54.5426 123.09 54.2078C123.073 53.1523 123.103 51.3588 123.257 48.8229C123.253 47.9962 123.145 47.4668 122.974 47.1708C122.717 46.7267 122.313 46.3682 121.731 46.1122C120.69 45.6081 119.8 45.5696 119.03 46.014C118.468 46.3387 118.11 47.0186 118.017 48.0195C118.012 48.6936 117.899 49.1138 117.633 49.2677C117.485 49.3531 117.226 49.3839 116.904 49.3727C116.823 49.3009 116.454 49.2771 115.852 49.1908C115.021 49.1182 114.267 49.3166 113.527 49.7438C112.639 50.2565 111.986 51.1073 111.508 52.3304C111.361 52.6914 111.202 53.0991 111.042 53.5068C110.883 53.9145 110.778 54.2118 110.682 54.386C110.602 54.5899 110.522 54.7937 110.472 54.9805C110.41 55.2139 110.419 55.3665 110.487 55.4849C110.539 55.5737 110.507 56.0656 110.388 56.8844C110.131 58.2168 110.411 60.3437 111.217 63.312C111.537 64.5486 111.987 65.67 112.551 66.6468C113.34 67.8092 114.395 68.5422 115.69 68.9392C117.081 69.1619 118.103 69.0853 118.724 68.7264ZM130.524 49.9946C130.495 50.0117 130.478 49.9821 130.46 49.9525C130.426 49.8933 130.388 49.7578 130.408 49.5881C130.419 49.2658 130.457 49.1258 130.516 49.0916C130.546 49.0745 130.546 49.0745 130.58 49.1337C130.614 49.1929 130.64 49.3751 130.641 49.6506C130.579 49.8841 130.554 49.9775 130.524 49.9946ZM124.276 59.68L123.834 59.4615L123.663 59.1655C123.612 59.0767 123.624 59.03 123.713 58.9787L123.772 58.9446C123.942 58.965 124.087 59.0788 124.206 59.286C124.326 59.4932 124.365 59.6287 124.276 59.68ZM117.419 64.073L117.182 64.2097C116.945 64.3464 116.656 64.1188 116.297 63.4972C115.716 62.4907 115.363 61.195 115.224 59.6567C115.112 58.3006 115.234 57.007 115.512 55.7805C115.725 54.9868 115.989 54.2818 116.338 53.7249C116.688 53.168 117.004 52.8274 117.33 52.6394C117.537 52.5198 117.66 52.5277 117.746 52.6757C117.797 52.7645 117.905 53.294 118.041 54.2812C118.278 56.1964 118.356 57.4933 118.257 58.1424L118.234 58.5114C118.207 60.1055 118.095 61.5517 117.833 62.8078C117.68 63.5673 117.55 63.9579 117.419 64.073ZM123.346 58.4801C123.258 58.5314 123.091 58.3117 122.835 57.8677L122.369 56.9922C122.249 56.785 122.147 56.6073 122.032 56.4764C121.917 56.3455 121.848 56.2271 121.797 56.1383C121.626 55.8423 121.642 55.5964 121.874 55.3833C121.933 55.3492 121.954 55.1795 121.889 54.8618C121.81 54.3153 121.846 53.8996 121.964 53.5557C122.006 53.4919 122.009 53.2927 121.978 53.0342C121.947 52.7757 121.929 52.4706 121.957 52.1779C122.007 51.9911 122.036 51.6985 122.047 51.3762C122.021 51.1941 121.96 50.9527 121.9 50.7113C121.84 50.4699 121.843 50.2706 121.846 50.0714L122.064 49.3539L122.297 49.4165C122.407 49.4711 122.518 49.5257 122.552 49.5849C122.603 49.6737 122.57 49.8901 122.517 50.2761C122.373 51.1882 122.328 52.4773 122.428 54.1557C122.514 55.3296 122.662 56.2701 122.92 56.9897C123.314 57.9461 123.465 58.4118 123.346 58.4801ZM128.724 61.8478C128.576 61.9332 128.441 61.972 128.318 61.964C128.225 61.939 128.161 61.8969 128.144 61.8673C128.144 61.8673 128.127 61.8377 128.109 61.8081C128.075 61.7489 128.147 61.668 128.261 61.5234C128.468 61.4038 128.638 61.4242 128.757 61.6314C128.779 61.7373 128.737 61.8011 128.724 61.8478ZM114.415 60.7159C114.369 60.7034 114.322 60.6909 114.288 60.6317C114.117 60.3357 114.054 59.5432 114.035 58.2121C114.015 56.6054 114.202 55.6295 114.535 55.3185L114.565 55.3014C114.599 55.3606 114.58 55.8059 114.524 56.6667C114.448 58.4477 114.423 59.567 114.475 59.9314C114.515 60.3424 114.499 60.5884 114.415 60.7159ZM131.14 46.4815C131.124 45.7015 131.124 45.7015 131.14 46.4815V46.4815ZM140.822 56.7574C141.072 56.574 141.291 56.4076 141.494 56.2117C141.886 55.591 142.213 54.9282 142.502 54.1299C142.724 53.4887 143.01 52.8897 143.33 52.3498C143.632 51.7804 143.821 51.3556 143.896 51.0755C143.984 50.7486 144 50.5027 144.003 50.3034C143.989 50.0745 144.035 49.8115 144.169 49.4971C144.664 48.3036 145.041 47.1785 145.222 46.1263C145.368 45.4897 145.573 44.8189 145.76 44.1186C145.743 44.089 145.793 43.9022 145.91 43.5583C145.998 43.2315 146.14 42.7942 146.265 42.3273C146.403 41.8137 146.528 41.3468 146.624 40.897C146.736 40.4767 146.765 40.1841 146.772 40.0611C146.763 39.9085 146.759 39.8322 146.742 39.8026C146.725 39.773 146.678 39.7605 146.648 39.7776C146.429 39.9439 146.198 40.4325 145.913 41.3071C145.696 42.0246 145.454 42.8354 145.186 43.7396C144.323 46.9612 143.69 48.6683 143.293 48.9372C143.264 48.9543 143.217 48.9418 143.2 48.9122C143.183 48.8826 143.191 48.7596 143.211 48.5899C143.584 46.6381 144.114 44.7534 144.784 42.9062C145.404 41.2458 145.772 39.9681 145.967 39.1447C146.084 38.8008 146.134 38.614 146.083 38.5252C146.078 38.449 145.976 38.2713 145.788 37.9457C145.62 37.4505 145.699 36.9711 145.994 36.5246C146.271 36.0485 146.393 35.7809 146.342 35.6921C146.325 35.6625 146.261 35.6204 146.138 35.6125C146.062 35.617 145.985 35.6216 145.939 35.6091C145.845 35.5841 145.799 35.5716 145.781 35.542C145.645 35.3052 145.58 34.9875 145.633 34.6015L145.648 34.0799C145.639 33.9274 145.629 33.7748 145.561 33.6564C145.527 33.5972 145.434 33.5721 145.374 33.6063C145.273 33.7043 145.147 33.8956 145.025 34.1633C144.739 34.7623 144.593 35.1233 144.572 35.293C143.841 37.6492 143.356 39.2708 143.072 40.1454C141.853 43.5721 140.426 46.8429 138.838 49.9703C138.312 50.9053 137.709 51.5693 137.003 52.0558C136.487 52.393 136 52.4376 135.558 52.2191C135.426 52.0586 135.311 51.9277 135.225 51.7797C135.106 51.5725 135.007 51.1956 134.869 50.6832C134.574 49.3533 134.353 48.2181 134.264 47.2434C134.175 46.2687 134.288 45.0981 134.617 43.6849C135.182 42.135 136.276 41.2271 137.865 40.902C138.388 40.4418 138.594 40.0467 138.525 39.6527C138.455 39.2587 138.412 39.0469 138.361 38.9581C138.07 38.4549 137.661 38.0201 137.075 37.6878C136.326 37.212 135.656 37.0073 135.033 37.0906C134.367 36.9622 133.596 37.1309 132.644 37.6015C131.739 38.0846 130.937 39.0209 130.274 40.4695C129.762 41.6334 129.488 42.9362 129.482 44.3607C129.456 47.2564 129.779 49.3196 130.357 50.5252C130.981 51.7434 131.345 52.4413 131.43 52.5894C132.592 54.6022 134.372 56.1798 136.793 57.2289C138.215 57.7101 139.584 57.5514 140.822 56.7574ZM140.304 55.5175C140.092 55.5608 140.016 55.5654 139.999 55.5358C139.982 55.5062 140.011 55.4891 140.083 55.4083C140.244 55.2761 140.311 55.119 140.272 54.9835C140.263 54.8309 140.258 54.7546 140.317 54.7204C140.752 54.3115 141.248 53.3935 141.806 51.9666L142.388 50.4462C142.615 49.8814 142.808 49.5329 142.956 49.4474C143.075 49.3791 143.168 49.4041 143.236 49.5225C143.407 49.8185 143.056 50.8503 142.148 52.5586C141.366 54.0756 140.751 55.0619 140.304 55.5175ZM152.239 53.8364C152.404 53.7805 152.049 52.9596 151.19 51.4033C150.599 50.2443 150.179 49.1058 149.898 48.0048L149.598 47.0734C149.314 46.1717 149.222 45.6718 149.294 45.5909L149.425 45.4759C149.573 45.3904 150.129 45.4643 151.063 45.7145C152.603 46.1273 154.186 46.4764 155.888 46.7571C158.085 47.1458 159.878 46.9004 161.328 46.063C162.038 45.6529 162.701 44.9547 163.239 43.9729L164.152 42.3409C164.425 41.7885 164.53 41.4913 164.478 41.4025C164.461 41.3729 164.432 41.39 164.372 41.4242C164.076 41.5951 163.802 41.8719 163.537 42.3012C163.138 43.0449 162.322 43.7523 161.168 44.4188C160.931 44.5555 160.766 44.6114 160.749 44.5818C160.744 44.5055 160.871 44.3142 161.158 43.9907L162.394 42.6455C163.574 41.1352 164.375 39.173 164.767 36.7759C165.159 34.3789 165.395 32.1902 165.488 30.1633C165.482 29.8115 165.523 29.4721 165.564 29.1328C165.741 28.0043 165.737 26.902 165.473 25.8306C165.374 25.4537 165.287 25.0302 165.289 24.5553C165.402 24.1351 165.362 23.7241 165.157 23.3689C165.106 23.2801 165.042 23.2379 164.983 23.2721C164.835 23.3576 164.614 24.2743 164.304 25.9927L163.802 28.6107C162.692 34.3432 161.505 38.3039 160.184 40.5271C159.796 40.9485 159.386 41.2641 158.942 41.5204C157.876 42.1357 156.712 42.374 155.418 42.2526C154.053 42.212 153.259 41.9994 153.02 41.585C152.815 41.2298 152.889 40.674 153.195 39.9053L154.071 37.663C154.737 36.0151 155.217 35.0675 155.513 34.8966L155.589 34.8921C155.606 34.9217 155.606 34.9217 155.593 34.9683C155.581 35.015 155.568 35.0617 155.514 35.1722L155.741 34.8829C155.683 35.1926 155.608 35.4728 155.516 35.7233C155.324 36.3474 155.044 37.2983 154.677 38.576C155.194 38.5144 155.757 37.4392 156.413 35.3632C157.07 33.2872 157.436 31.7339 157.571 30.6692L157.645 30.1134C157.723 29.634 157.797 29.0783 157.824 28.5101C157.869 27.9715 157.637 27.4341 157.147 26.9276C156.645 26.4677 156.046 26.1821 155.397 26.0832C154.981 26.0469 154.664 26.1119 154.427 26.2486C154.16 26.4024 153.916 26.6621 153.693 27.0277C153.39 27.5972 152.977 29.1379 152.437 31.6205C151.981 33.9754 151.089 36.4637 149.761 39.0854C149.262 40.2027 148.811 40.8575 148.456 41.0626C148.337 41.131 148.291 41.1185 148.239 41.0297C148.103 40.7929 148.075 40.3351 148.174 39.686C148.277 39.1132 148.289 38.791 148.238 38.7022C148.186 38.6134 148.08 38.6351 147.886 38.708C147.856 38.7251 147.826 38.7422 147.809 38.7126L148.147 38.4779C148.515 38.2261 148.642 38.0348 148.62 37.9289C148.569 37.8401 148.552 37.8105 148.581 37.7934C148.581 37.7934 148.645 37.8355 148.755 37.8901C148.836 37.9618 148.913 37.9573 149.001 37.906C149.09 37.8547 149.103 37.808 149.034 37.6896C149 37.6304 148.983 37.6008 148.919 37.5587C148.885 37.4995 148.838 37.487 148.804 37.4278C148.633 37.1318 148.738 35.8086 149.105 33.5049C149.348 31.9437 149.48 31.0783 149.5 30.9086C149.571 30.5522 149.641 30.1957 149.771 29.8051C149.888 29.4612 149.912 29.0922 149.83 28.745C149.735 28.4444 149.738 28.2451 149.916 28.1426C150.102 27.9171 150.247 27.2805 150.365 26.1862C150.419 25.8001 150.388 25.5417 150.302 25.3937C150.217 25.2456 150.242 25.1523 150.39 25.0668C150.575 24.8413 150.679 24.2685 150.717 23.378C150.741 23.0091 150.735 22.6572 150.67 22.3396C150.622 22.0515 150.643 21.8818 150.744 21.7839C150.862 21.7155 150.905 21.6517 150.87 21.5925C150.853 21.5629 150.807 21.5504 150.76 21.5379C150.696 21.4958 150.632 21.4537 150.598 21.3945C150.53 21.2761 150.584 21.1656 150.703 21.0972C150.762 21.0631 150.792 21.046 150.898 21.0243C150.991 21.0493 151.021 21.0322 151.08 20.9981C151.169 20.9468 151.194 20.8534 151.108 20.7054C151.052 20.5403 151.042 20.1122 151.141 19.4631C151.193 18.8015 151.24 18.0636 151.254 17.2665C151.238 16.4865 151.286 16.0242 151.341 15.9137C151.43 15.8624 151.42 15.4343 151.386 14.6247C151.323 13.8322 151.316 13.2048 151.382 12.7721C151.436 12.386 151.434 12.1105 151.383 12.0217L151.366 11.9921C151.298 11.8737 151.323 11.7803 151.454 11.6652C151.521 11.5081 151.529 11.3851 151.46 11.2667L151.426 11.2075C151.324 11.0299 151.332 10.9069 151.42 10.8556C151.509 10.8044 151.5 10.6518 151.405 10.3512C151.332 10.1565 151.283 9.59287 151.228 8.67738C151.221 8.04996 151.177 7.56262 151.018 7.21992C150.963 7.05483 150.953 6.90225 150.949 6.82596C150.965 6.57999 150.887 6.30901 150.75 6.07221C150.477 5.5986 150.038 5.18084 149.481 4.83144C149.18 4.65048 148.984 4.44786 148.898 4.29986C148.813 4.15186 148.698 4.02094 148.524 3.92421C147.385 3.31879 146.223 3.35788 145.069 4.02438C144.506 4.34909 144.022 4.94478 143.58 5.75225C142.625 7.44807 142.202 8.56071 142.281 9.10725C142.383 9.28486 142.384 9.56042 142.272 9.98063C142.222 10.1674 142.167 10.2779 142.125 10.3416C141.91 10.5843 141.734 11.9883 141.609 14.5071C141.519 16.0592 141.547 17.5429 141.688 18.882C141.739 21.7731 141.846 23.8033 141.978 24.9898L142.264 27.1931C142.376 28.5492 143.018 32.8749 144.161 40.1872C144.276 41.0685 144.308 41.6026 144.287 41.7722C144.25 41.9123 144.276 42.0945 144.361 42.2425L144.396 42.3017C144.464 42.4201 144.546 42.7674 144.693 43.4323C144.759 44.0255 144.829 44.4195 144.949 44.6267L145.029 44.6984C145.098 44.8168 145.107 44.9694 145.133 45.1516C145.351 46.4861 145.722 47.8114 146.198 49.115C146.348 49.5807 146.529 50.0293 146.751 50.4141C147.161 51.1245 147.638 51.6778 148.119 52.0317C148.812 52.6179 149.607 53.1062 150.474 53.5136C151.37 53.9038 151.914 54.0244 152.18 53.8706L152.239 53.8364ZM149.468 7.40488C149.416 7.31608 149.36 7.15099 149.33 6.89252C149.295 6.83332 149.291 6.75703 149.303 6.71034C149.316 6.66365 149.316 6.66365 149.328 6.61696L149.311 6.58736L149.422 6.64198C149.507 6.78998 149.516 6.94256 149.525 7.09514C149.535 7.24772 149.51 7.3411 149.468 7.40488ZM146.178 25.5646L146.148 25.5817C146.089 25.6159 146.025 25.5738 145.957 25.4554C145.889 25.337 145.862 25.1548 145.878 24.9088C145.958 24.705 145.949 24.5524 145.863 24.4044C145.761 24.2268 145.679 23.8795 145.63 23.3159C145.619 22.8878 145.542 22.6168 145.473 22.4984L145.422 22.4096C145.354 22.2912 145.381 21.723 145.503 20.7049C145.565 20.1959 145.564 19.9203 145.529 19.8611C145.41 19.6539 145.449 18.0131 145.626 14.8327C145.688 13.5732 145.917 11.7831 146.297 9.43277C146.572 8.40558 146.828 7.82363 147.095 7.66982C147.154 7.63564 147.2 7.64815 147.218 7.67775C147.32 7.85536 147.39 8.24932 147.397 8.87674L147.382 9.39826C147.399 9.42786 147.399 9.42786 147.37 9.44495C147.341 11.514 147.358 12.5695 147.392 12.6287C147.478 12.7767 147.487 12.9293 147.437 13.1161C147.387 13.3028 147.251 15.1179 147.041 18.5147C146.981 19.2993 146.958 19.9438 146.956 20.4186C146.888 21.3262 146.778 22.2975 146.613 23.3794C146.433 24.7071 146.262 25.4371 146.178 25.5646ZM143.259 16.4754C143.2 16.5096 143.153 16.4971 143.119 16.4379C143.102 16.4083 143.085 16.3787 143.097 16.332C143.11 16.2853 143.122 16.2386 143.135 16.1919C143.147 16.1452 143.13 16.1156 143.16 16.0985C143.189 16.0814 143.253 16.1236 143.304 16.2124C143.373 16.3308 143.348 16.4241 143.259 16.4754ZM143.266 20.9311C143.236 20.9482 143.19 20.9357 143.156 20.8765C143.083 20.6818 143.024 19.9656 143.027 18.7403C143.013 17.4855 143.053 16.8706 143.142 16.8193C143.171 16.8022 143.171 16.8022 143.188 16.8318C143.223 16.891 143.261 17.0265 143.305 17.2383C143.301 17.4376 143.357 17.6027 143.396 17.7382C143.435 17.8737 143.456 17.9796 143.473 18.0092C143.508 18.0684 143.501 18.4669 143.47 19.2344C143.44 20.0019 143.391 20.4642 143.371 20.6339C143.35 20.8035 143.296 20.914 143.266 20.9311ZM143.464 24.4872C143.435 24.5043 143.435 24.5043 143.417 24.4747C143.298 24.2675 143.278 23.6867 143.312 22.72C143.336 22.351 143.356 22.1814 143.386 22.1643L143.403 22.1939C143.506 22.3715 143.559 23.0114 143.547 24.084C143.561 24.3129 143.523 24.453 143.464 24.4872ZM144.611 24.9696C144.581 24.9867 144.535 24.9742 144.5 24.915L144.462 24.7795C144.406 24.6144 144.35 24.4493 144.282 24.3309C144.213 24.2125 144.209 24.1362 144.298 24.0849C144.386 24.0337 144.484 24.135 144.604 24.3422C144.655 24.431 144.706 24.5198 144.728 24.6257C144.75 24.7316 144.708 24.7954 144.695 24.842C144.653 24.9058 144.641 24.9525 144.611 24.9696ZM144.75 25.7575L144.661 25.8088C144.573 25.8601 144.526 25.8476 144.415 25.7929C144.347 25.6745 144.402 25.5641 144.55 25.4786C144.698 25.3932 144.804 25.3715 144.855 25.4603C144.923 25.5787 144.898 25.6721 144.75 25.7575ZM143.908 27.0331L143.878 27.0502C143.819 27.0844 143.785 27.0252 143.687 26.9239C143.465 26.5391 143.419 25.7762 143.537 24.6819L143.584 24.6944C143.601 24.724 143.605 24.8003 143.64 24.8595C143.644 24.9358 143.713 25.0542 143.785 25.2488C143.906 25.7316 143.993 26.1552 143.952 26.4945C143.958 26.8464 143.937 27.016 143.908 27.0331ZM144.809 27.4997C144.779 27.5168 144.732 27.5043 144.664 27.3859C144.493 27.0899 144.497 26.8906 144.645 26.8052C144.674 26.7881 144.721 26.8006 144.738 26.8302C144.755 26.8598 144.789 26.919 144.811 27.0249C144.833 27.1308 144.808 27.2241 144.829 27.33C144.851 27.4359 144.838 27.4826 144.809 27.4997ZM144.165 28.5031L144.105 28.5373C143.928 28.6398 143.805 28.6319 143.69 28.501C143.604 28.353 143.642 28.2129 143.79 28.1275C144.027 27.9907 144.196 28.0112 144.299 28.1888C144.35 28.2776 144.325 28.371 144.165 28.5031ZM147.748 35.3933C147.718 35.4104 147.672 35.3979 147.637 35.3387C147.518 35.1315 147.465 34.7671 147.463 34.216C147.466 34.0167 147.487 33.8471 147.558 33.7662C147.63 33.6853 147.792 32.8028 148.043 31.1186C148.215 29.9138 148.529 27.9961 148.996 25.3189C149.355 23.1382 149.635 21.1614 149.758 19.3929C149.835 18.6379 149.825 18.2098 149.803 18.1039C149.735 17.9855 149.758 17.341 149.854 16.1408C149.95 14.9406 149.981 14.1731 149.975 13.8212C149.94 13.4865 149.946 13.0879 149.966 12.6427C149.985 12.1975 149.954 11.939 149.92 11.8798L149.886 11.8206C149.817 11.7022 149.813 11.6259 149.884 11.545C149.973 11.4938 150.022 11.0314 150.001 10.1751L149.913 8.45006C149.834 7.90351 149.816 7.59835 149.964 7.5129L150.04 7.50832C150.18 7.54585 150.308 7.63008 150.342 7.68928C150.41 7.80768 150.39 7.97735 150.327 8.2108C150.265 8.44425 150.257 8.56723 150.291 8.62644C150.523 9.16382 150.653 9.79917 150.698 10.5621C150.721 10.9435 150.693 11.2362 150.63 11.4696C150.512 11.538 150.518 11.8899 150.601 12.5127C150.714 13.1184 150.741 13.5762 150.654 13.903C150.529 15.3959 150.486 16.2101 150.554 16.3285L150.785 16.5903C150.819 16.6495 150.789 16.6666 150.759 16.6837L150.641 16.752C150.523 16.8204 150.473 17.0071 150.521 17.2952C150.586 17.6129 150.582 17.8122 150.498 17.9397C150.468 17.9568 150.468 17.9568 150.485 17.9864C150.537 18.0752 150.601 18.1173 150.724 18.1253C150.864 18.1628 150.927 18.2049 150.944 18.2345L150.962 18.2641C150.962 18.2641 150.932 18.2812 150.902 18.2983L150.636 18.4521C150.429 18.5717 150.319 18.7927 150.355 19.1274C150.371 19.9074 150.201 21.6633 149.785 24.4293C149.625 25.5874 149.585 26.2024 149.636 26.2912C149.688 26.38 149.663 26.4733 149.578 26.6009C149.43 26.6863 149.305 27.1532 149.191 28.0483C149.029 28.9308 149.015 29.4524 149.117 29.63C149.168 29.7188 149.114 29.8292 148.97 29.991C148.81 30.1231 148.614 30.9464 148.337 32.4485C148.023 34.3661 147.837 35.342 147.748 35.3933ZM144.679 31.7186C144.62 31.7528 144.573 31.7403 144.522 31.6515C144.505 31.6219 144.488 31.5923 144.454 31.5331C144.449 31.4568 144.415 31.3976 144.41 31.3213C144.423 31.2746 144.406 31.245 144.435 31.2279C144.495 31.1937 144.575 31.2654 144.661 31.4134C144.746 31.5614 144.768 31.6673 144.679 31.7186ZM148.777 48.4549C148.747 48.472 148.654 48.447 148.573 48.3753C148.436 48.1385 148.337 47.7616 148.229 47.2321C148.138 46.7323 148.034 46.2791 147.875 45.9364C147.722 45.67 147.54 44.9459 147.315 43.7344L147.084 42.4466C146.949 41.7349 146.85 41.3581 146.816 41.2989C146.731 41.1509 146.704 40.9687 146.75 40.7056C146.812 40.4722 146.88 40.315 146.939 40.2808C146.968 40.2637 147.066 40.3651 147.186 40.5723C147.357 40.8683 147.439 41.2155 147.479 41.6266C147.489 42.0547 147.503 42.2836 147.52 42.3132C147.627 42.5671 147.692 42.8848 147.757 43.2024C147.784 43.3846 147.822 43.5201 147.861 43.6556L147.866 43.7319C147.909 43.9437 147.999 44.168 148.119 44.3752L148.319 44.6541C148.37 44.7429 148.405 44.8021 148.375 44.8192C148.345 44.8363 148.316 44.8534 148.333 44.883C148.236 45.0572 148.267 45.3157 148.379 45.6459C148.464 45.7939 148.507 46.0057 148.538 46.2641C148.56 46.37 148.594 46.4292 148.616 46.5351C148.62 46.6114 148.672 46.7002 148.723 46.789L148.808 46.937L148.886 47.208C148.772 47.3526 148.798 47.5348 148.842 47.7466C148.852 48.1748 148.836 48.4207 148.777 48.4549ZM165.204 29.2616C165.158 29.2491 165.141 29.2195 165.106 29.1602L165.016 28.936C164.956 28.6946 164.976 28.5249 165.065 28.4736C165.095 28.4565 165.095 28.4565 165.142 28.4691C165.159 28.4987 165.222 28.5408 165.239 28.5704C165.325 28.7184 165.334 28.8709 165.297 29.011C165.259 29.1511 165.234 29.2445 165.204 29.2616ZM164.863 24.8413C164.833 24.8584 164.816 24.8288 164.799 24.7992C164.765 24.74 164.743 24.6341 164.751 24.5111C164.802 24.5999 164.853 24.6887 164.841 24.7354L164.863 24.8413ZM165.093 40.4162C165.211 40.3479 165.363 40.0631 165.547 39.562C165.727 38.9847 165.78 38.5986 165.678 38.421C165.609 38.3026 165.499 38.248 165.351 38.3335C165.173 38.436 165.039 38.7503 164.948 39.2764C164.81 39.79 164.816 40.1419 164.936 40.3491C164.987 40.4379 165.034 40.4504 165.093 40.4162ZM165.686 38.2981C165.834 38.2126 165.954 37.6694 166 36.656C166.026 35.8122 165.994 35.2781 165.892 35.1005C165.875 35.0709 165.858 35.0413 165.828 35.0584C165.781 35.0459 165.752 35.063 165.752 35.063C165.663 35.1143 165.605 35.424 165.548 36.0093L165.476 36.8406C165.381 37.566 165.379 38.0408 165.482 38.2184C165.533 38.3072 165.597 38.3493 165.686 38.2981Z" fill="#535353"/>
</svg>
