<svg width="28" height="27" fill="none" xmlns="http://www.w3.org/2000/svg"><path d="M23.577 17.05c-2.198-3.213-4.567-6.738-10.106-5.254-2.469.662-4.112 1.935-5.023 3.892-.808 1.734-.953 3.771-1.101 5.711-.184 2.378 2.288 4.067 4.447 3.02 1.77-.859 4.172-2.15 8.025-2.428 1.485-.106 1.628-.098 2.012-.201 2.006-.538 2.977-2.944 1.746-4.74z" fill="#FBDD7B"/><path d="M21.831 21.79c2.006-.538 2.977-2.944 1.746-4.74-2.198-3.213-4.567-6.738-10.106-5.254l2.888 10.777c2.774-.744 4.57-.541 5.472-.783z" fill="#FECB3E"/><path d="m16.566 16.404-1.085.29-.29-1.084a.674.674 0 1 0-1.302.348l.29 1.085-1.084.29a.674.674 0 0 0 .349 1.303l1.084-.291.291 1.085a.674.674 0 0 0 1.302-.35l-.29-1.084 1.084-.29a.674.674 0 1 0-.349-1.302z" fill="#FFF8E0"/><path d="m16.12 19.08-.29-1.084 1.085-.29a.674.674 0 1 0-.349-1.302l-1.085.29-.29-1.084a.674.674 0 0 0-.825-.477l1.278 4.773a.674.674 0 0 0 .477-.825z" fill="#FFE799"/><path d="M21.276 6.212a2.474 2.474 0 0 0-1.747 3.026 2.474 2.474 0 0 0 3.026 1.747c1.316-.352 2.143-1.721 1.79-3.037-.352-1.316-1.753-2.088-3.069-1.736zM16.42 8.916c1.512-.405 2.326-2.271 1.817-4.168-.508-1.897-2.146-3.107-3.658-2.702-1.511.405-2.325 2.272-1.817 4.169.509 1.897 2.146 3.106 3.658 2.701z" fill="#FECB3E"/><path d="M9.478 10.777c1.511-.405 2.325-2.272 1.817-4.169-.509-1.897-2.146-3.107-3.658-2.701-1.512.405-2.325 2.271-1.817 4.168.508 1.897 2.146 3.107 3.658 2.702zM3.92 10.863c-1.316.353-2.143 1.722-1.79 3.038.352 1.316 1.753 2.088 3.069 1.735a2.474 2.474 0 0 0 1.747-3.026 2.474 2.474 0 0 0-3.026-1.747z" fill="#FBDD7B"/></svg>