<svg width="14" height="15" fill="none" xmlns="http://www.w3.org/2000/svg"><path d="M11.667 2.25a.583.583 0 0 0-.584-.583h-1.75V.5H8.167v1.167h-1.75V.5H5.25v1.167H3.5V.5H2.333v1.167H.583A.583.583 0 0 0 0 2.25v1.167h11.667V2.25zM9.323 7.089a4.079 4.079 0 0 1 2.344 0V4H0v7.583c0 .322.261.584.583.584H6.59a4.078 4.078 0 0 1 2.734-5.078zM8.167 5.167h1.166v1.166H8.167V5.167zm-2.917 0h1.167v1.166H5.25V5.167zM3.5 11H2.333V9.833H3.5V11zm0-2.333H2.333V7.5H3.5v1.167zm0-2.334H2.333V5.167H3.5v1.166zM5.25 7.5h1.167v1.167H5.25V7.5z" fill="#FFBD54"/><path d="M10.5 7.5a3.5 3.5 0 1 0 0 7 3.5 3.5 0 0 0 0-7zm.412 3.912a.587.587 0 0 1-.596.142l-1.75-.584.369-1.108 1.407.467 1.496-1.495.824.824-1.75 1.754z" fill="#FFBD54"/></svg>