<svg width="649" height="835" fill="none" xmlns="http://www.w3.org/2000/svg"><path d="M322.919 378.931c-49.198-25.435-107.202-24.095-155.161 3.595-47.959 27.689-78.122 77.252-80.689 132.573l-6.195 133.31c-1.029 22.116 4.965 43.525 17.322 61.897 12.359 18.377 29.927 31.991 50.809 39.386 20.883 7.376 43.109 7.826 64.277 1.305 21.168-6.522 39.283-19.416 52.39-37.275l.874-1.202c33.202-44.553 83.804-73.533 139.075-79.598 14.257-1.566 27.763-5.994 39.919-13.012a103.1 103.1 0 0 0 18.546-13.709c16.235-15.067 26.958-34.541 31.013-56.321 4.049-21.771 1.045-43.799-8.689-63.698-9.733-19.899-25.274-35.789-44.946-45.965l-118.545-61.286zM41.424 541.283c14.44-17.84 19.904-40.931 15.382-65.02-4.3-22.925-17.27-44.121-36.525-59.687-19.253-15.549-42.696-23.782-66.016-23.186-24.493.63-45.927 10.805-60.329 28.64-28.996 35.846-19.509 91.774 21.165 124.694 32.421 26.175 74.97 29.948 105.58 12.275a74.371 74.371 0 0 0 20.743-17.716zM118.433 395.181c46.59-26.899 59.562-91.967 28.916-145.048-30.653-53.094-93.495-74.402-140.085-47.504-46.586 26.896-59.548 91.971-28.895 145.065 30.646 53.08 93.479 74.383 140.064 47.487zM278.01 334.583l.004-.003a79.516 79.516 0 0 0 23.789-9.047c33.976-19.616 52.811-63.464 43.503-108.764-5.354-26.078-19.188-48.935-38.951-64.354-20.685-16.145-45.307-22.316-69.338-17.377-24.034 4.941-44.228 20.327-56.869 43.32-12.077 21.964-15.772 48.422-10.409 74.495 11.307 55.006 59.878 91.67 108.271 81.73zM449.46 220.616l-.02-.006c-45.832-5.184-87.944 32.846-93.876 84.791-5.895 51.948 26.573 98.464 72.366 103.694 16.705 1.912 32.921-1.926 47.07-10.095 24.659-14.238 43.049-41.637 46.836-74.684 5.891-51.945-26.573-98.465-72.376-103.7z" fill="#FFBD54"/></svg>