<svg width="239" height="302" fill="none" xmlns="http://www.w3.org/2000/svg"><path d="M126.287 123.686c1.519 19.835 13.185 37.891 31.209 48.297 18.024 10.406 39.493 11.481 57.429 2.878l43.221-20.728c7.171-3.439 12.757-8.97 16.153-15.991 3.397-7.023 4.283-14.876 2.566-22.717-1.722-7.837-5.889-14.92-12.048-20.482-6.159-5.563-13.734-9.08-21.904-10.172l-.548-.072c-20.48-2.885-39.423-13.904-52.048-30.295a40.462 40.462 0 0 0-11.84-10.369 41.246 41.246 0 0 0-7.916-3.513c-7.896-2.554-16.113-2.62-23.764-.194-7.647 2.428-14.008 7.123-18.394 13.576-4.386 6.454-6.382 14.056-5.776 21.988l3.66 47.794zM232.026 184.794c-8.423-1.517-16.76.69-23.477 6.214-6.392 5.256-10.56 12.95-11.734 21.668-1.169 8.714.78 17.504 5.488 24.753 4.946 7.614 12.308 12.639 20.722 14.144 16.919 3.041 32.709-9.465 35.202-27.887 1.966-14.672-5.092-28.726-16.596-35.368a29.62 29.62 0 0 0-9.605-3.524zM171.046 185.377c-17.51-10.109-40.534-3.127-51.326 15.564-10.793 18.695-5.329 42.129 12.18 52.238 17.508 10.108 40.533 3.123 51.327-15.573 10.791-18.691 5.327-42.121-12.181-52.229zM121.013 145.387l-.002-.001a31.732 31.732 0 0 0-7.462-5.959c-12.77-7.372-30.242-5.849-42.717 4.792-7.182 6.125-11.705 14.374-12.734 23.227-1.08 9.267 1.748 18.078 7.962 24.812 6.217 6.736 14.98 10.483 24.678 10.556 9.265.07 18.321-3.267 25.5-9.394 15.147-12.922 17.289-34.47 4.775-48.033zM51.856 110.734l.002.008c7.25 15.328 27.4 22.132 44.924 15.164 17.517-6.98 25.886-25.128 18.658-40.453-2.635-5.59-6.988-10.049-12.306-13.119-9.268-5.35-21.469-6.485-32.62-2.057C53 77.258 44.628 95.406 51.856 110.734z" fill="#FFBD54"/></svg>