<svg width="649" height="835" viewBox="0 0 649 835" fill="none" xmlns="http://www.w3.org/2000/svg">
<path d="M322.919 378.931C273.721 353.496 215.717 354.836 167.758 382.526C119.799 410.215 89.6357 459.778 87.0692 515.099L80.8744 648.409C79.8452 670.525 85.8389 691.934 98.1959 710.306C110.555 728.683 128.123 742.297 149.005 749.692C169.888 757.068 192.114 757.518 213.282 750.997C234.45 744.475 252.565 731.581 265.672 713.722L266.546 712.52C299.748 667.967 350.35 638.987 405.621 632.922C419.878 631.356 433.384 626.928 445.54 619.91C452.15 616.094 458.365 611.505 464.086 606.201C480.321 591.134 491.044 571.66 495.099 549.88C499.148 528.109 496.144 506.081 486.41 486.182C476.677 466.283 461.136 450.393 441.464 440.217L322.919 378.931Z" fill="#FFBD54"/>
<path d="M41.4243 541.283C55.8646 523.443 61.3283 500.352 56.806 476.263C52.5058 453.338 39.5367 432.142 20.2806 416.576C1.02772 401.027 -22.4152 392.794 -45.7346 393.39C-70.228 394.02 -91.6624 404.195 -106.064 422.03C-135.06 457.876 -125.573 513.804 -84.8987 546.724C-52.478 572.899 -9.92976 576.672 20.6809 558.999C28.4971 554.486 35.5345 548.574 41.4243 541.283Z" fill="#FFBD54"/>
<path d="M118.433 395.181C165.023 368.282 177.995 303.214 147.349 250.133C116.696 197.039 53.8535 175.731 7.26384 202.629C-39.3215 229.525 -52.2842 294.6 -21.6306 347.694C9.01543 400.774 71.848 422.077 118.433 395.181Z" fill="#FFBD54"/>
<path d="M278.01 334.583L278.014 334.58C286.554 332.821 294.522 329.737 301.803 325.533C335.779 305.917 354.614 262.069 345.306 216.769C339.952 190.691 326.118 167.834 306.355 152.415C285.67 136.27 261.048 130.099 237.017 135.038C212.983 139.979 192.789 155.365 180.148 178.358C168.071 200.322 164.376 226.78 169.739 252.853C181.046 307.859 229.617 344.523 278.01 334.583Z" fill="#FFBD54"/>
<path d="M449.46 220.616L449.44 220.61C403.608 215.426 361.496 253.456 355.564 305.401C349.669 357.349 382.137 403.865 427.93 409.095C444.635 411.007 460.851 407.169 475 399C499.659 384.762 518.049 357.363 521.836 324.316C527.727 272.371 495.263 225.851 449.46 220.616Z" fill="#FFBD54"/>
</svg>
