<svg width="50" height="42" fill="none" xmlns="http://www.w3.org/2000/svg"><path d="m49.6 33.4-5 6.8c-2 .8-3.933 1.2-5.8 1.2-1.067 0-2.267-.2-3.6-.6-1.2-.533-2.333-1.2-3.4-2-1.067-.933-2-2.067-2.8-3.4-.667-1.333-1-2.867-1-4.6 0-2 .2-4.067.6-6.2.4-2.133 1.133-4.467 2.2-7 1.2-2.533 2.8-5.2 4.8-8 2.133-2.8 4.867-5.867 8.2-9.2h1c.4-.133.733-.2 1-.2 2.267 0 3.533 1 3.8 3-.133.533-.533 1.333-1.2 2.4a21.014 21.014 0 0 1-2 3.2 58.557 58.557 0 0 1-2 3c-.533.8-.867 1.267-1 1.4-1.467 2.667-2.467 5.667-3 9h1c.8 0 1.6.133 2.4.4.933.133 1.8.6 2.6 1.4.8.8 1.467 1.933 2 3.4.667 1.467 1.067 3.467 1.2 6zm-28 0-5 6.8c-2 .8-3.933 1.2-5.8 1.2-1.067 0-2.267-.2-3.6-.6-1.2-.533-2.333-1.2-3.4-2-1.067-.933-2-2.067-2.8-3.4-.667-1.333-1-2.867-1-4.6 0-2 .2-4.067.6-6.2.4-2.133 1.133-4.467 2.2-7 1.2-2.533 2.8-5.2 4.8-8 2.133-2.8 4.867-5.867 8.2-9.2h1c.4-.133.733-.2 1-.2 2.267 0 3.533 1 3.8 3-.133.533-.533 1.333-1.2 2.4a21.014 21.014 0 0 1-2 3.2 58.557 58.557 0 0 1-2 3c-.533.8-.867 1.267-1 1.4-1.467 2.667-2.467 5.667-3 9h1c.8 0 1.6.133 2.4.4.933.133 1.8.6 2.6 1.4.8.8 1.467 1.933 2 3.4.667 1.467 1.067 3.467 1.2 6z" fill="#DBDBDB"/></svg>