<svg width="1431" height="4367" fill="none" xmlns="http://www.w3.org/2000/svg"><path d="M393.504 64.953c1.766-.118 4.139-.568 5.014-1.443.875-.875 1.324-3.248 1.443-5.014.133-1.977.012-4.93-1.317-7.773a1.23 1.23 0 0 0-1.213-.705 13.54 13.54 0 0 0-7.575 3.091l-3.491-3.49a18.414 18.414 0 0 1 7.189-3.883 1.23 1.23 0 0 0-.658-2.371 20.886 20.886 0 0 0-8.275 4.51l-3.487-3.485a25.628 25.628 0 0 1 6.774-4.444 1.231 1.231 0 0 0-1.007-2.245 28.074 28.074 0 0 0-7.509 4.948l-3.483-3.483a33.198 33.198 0 0 1 4.806-3.712 1.231 1.231 0 0 0-1.319-2.078 35.669 35.669 0 0 0-5.229 4.05l-2.816-2.816a8.55 8.55 0 0 0 1.714-5.159c0-2.3-.896-4.464-2.523-6.09a1.23 1.23 0 0 0-2.077.628 12.047 12.047 0 0 1-9.476 9.476 1.23 1.23 0 0 0-.629 2.077 8.558 8.558 0 0 0 6.091 2.523 8.547 8.547 0 0 0 5.159-1.715l2.817 2.816a35.751 35.751 0 0 0-4.044 5.223 1.23 1.23 0 1 0 2.078 1.319 33.332 33.332 0 0 1 3.707-4.801l3.484 3.482a28.09 28.09 0 0 0-4.944 7.504 1.232 1.232 0 0 0 2.246 1.008 25.6 25.6 0 0 1 4.44-6.77l3.487 3.485a20.884 20.884 0 0 0-4.509 8.272 1.23 1.23 0 0 0 2.372.658 18.412 18.412 0 0 1 3.881-7.187l3.491 3.49a13.546 13.546 0 0 0-3.091 7.575c-.002.033-.004.066-.004.098 0 .475.274.911.709 1.114 2.843 1.33 5.797 1.45 7.774 1.317zm-1.077-5.793a1.23 1.23 0 1 1 1.738-1.74 1.23 1.23 0 0 1-1.738 1.74zM693.959 325.035c-.111-1.64-.528-3.843-1.341-4.656-.812-.813-3.016-1.23-4.655-1.34-1.836-.124-4.579-.012-7.219 1.223a1.143 1.143 0 0 0-.655 1.126 12.572 12.572 0 0 0 2.871 7.034l-3.241 3.242a17.103 17.103 0 0 1-3.606-6.675 1.142 1.142 0 1 0-2.202.611 19.39 19.39 0 0 0 4.189 7.684l-3.237 3.237a23.77 23.77 0 0 1-4.126-6.29 1.144 1.144 0 0 0-2.085.936 26.066 26.066 0 0 0 4.594 6.972l-3.234 3.235a30.892 30.892 0 0 1-3.447-4.463 1.142 1.142 0 1 0-1.929 1.225 33.113 33.113 0 0 0 3.76 4.855l-2.615 2.616a7.937 7.937 0 0 0-4.79-1.592 7.944 7.944 0 0 0-5.656 2.343 1.142 1.142 0 0 0 .584 1.928 11.188 11.188 0 0 1 8.799 8.8 1.142 1.142 0 0 0 1.929.584 7.95 7.95 0 0 0 2.342-5.656 7.938 7.938 0 0 0-1.592-4.791l2.615-2.616a33.106 33.106 0 0 0 4.85 3.755 1.142 1.142 0 1 0 1.224-1.929 30.986 30.986 0 0 1-4.458-3.443l3.234-3.235a26.04 26.04 0 0 0 6.969 4.591 1.143 1.143 0 0 0 .936-2.085 23.77 23.77 0 0 1-6.288-4.124l3.237-3.237a19.391 19.391 0 0 0 7.682 4.187 1.141 1.141 0 1 0 .611-2.203 17.095 17.095 0 0 1-6.674-3.604l3.241-3.242a12.568 12.568 0 0 0 7.033 2.87 1.143 1.143 0 0 0 1.127-.655c1.234-2.639 1.346-5.382 1.223-7.218zm-5.381 1a1.143 1.143 0 1 1-1.616-1.617 1.143 1.143 0 0 1 1.616 1.617z" fill="#F3F3F3"/><path d="M773.959 715.035c-.111-1.64-.528-3.843-1.341-4.656-.812-.813-3.016-1.23-4.655-1.34-1.836-.124-4.579-.012-7.219 1.223a1.143 1.143 0 0 0-.655 1.126 12.572 12.572 0 0 0 2.871 7.034l-3.241 3.242a17.103 17.103 0 0 1-3.606-6.675 1.142 1.142 0 1 0-2.202.611 19.39 19.39 0 0 0 4.189 7.684l-3.237 3.237a23.77 23.77 0 0 1-4.126-6.29 1.144 1.144 0 0 0-2.085.936 26.066 26.066 0 0 0 4.594 6.972l-3.234 3.235a30.892 30.892 0 0 1-3.447-4.463 1.142 1.142 0 1 0-1.929 1.225 33.113 33.113 0 0 0 3.76 4.855l-2.615 2.616a7.937 7.937 0 0 0-4.79-1.592 7.944 7.944 0 0 0-5.656 2.343 1.142 1.142 0 0 0 .584 1.928 11.188 11.188 0 0 1 8.799 8.8 1.142 1.142 0 0 0 1.929.584 7.95 7.95 0 0 0 2.342-5.656 7.938 7.938 0 0 0-1.592-4.791l2.615-2.616a33.106 33.106 0 0 0 4.85 3.755 1.142 1.142 0 1 0 1.224-1.929 30.986 30.986 0 0 1-4.458-3.443l3.234-3.235a26.04 26.04 0 0 0 6.969 4.591 1.143 1.143 0 0 0 .936-2.085 23.77 23.77 0 0 1-6.288-4.124l3.237-3.237a19.391 19.391 0 0 0 7.682 4.187 1.141 1.141 0 1 0 .611-2.203 17.095 17.095 0 0 1-6.674-3.604l3.241-3.242a12.568 12.568 0 0 0 7.033 2.87 1.143 1.143 0 0 0 1.127-.655c1.234-2.639 1.346-5.382 1.223-7.218zm-5.381 1a1.143 1.143 0 1 1-1.616-1.617 1.143 1.143 0 0 1 1.616 1.617zM259.959 1292.03c-.111-1.64-.528-3.84-1.341-4.65-.812-.81-3.016-1.23-4.655-1.34-1.836-.12-4.579-.01-7.219 1.22-.432.2-.693.65-.655 1.13a12.542 12.542 0 0 0 2.871 7.03l-3.241 3.24a17.063 17.063 0 0 1-3.606-6.67 1.142 1.142 0 1 0-2.202.61 19.342 19.342 0 0 0 4.189 7.68l-3.237 3.24a23.658 23.658 0 0 1-4.126-6.29 1.145 1.145 0 0 0-1.511-.57c-.576.25-.833.93-.574 1.51a26.025 26.025 0 0 0 4.594 6.97l-3.234 3.23a30.866 30.866 0 0 1-3.447-4.46 1.143 1.143 0 1 0-1.929 1.23 33.124 33.124 0 0 0 3.76 4.85l-2.615 2.62a7.899 7.899 0 0 0-4.79-1.6c-2.137 0-4.146.84-5.656 2.35a1.142 1.142 0 0 0 .584 1.93 11.18 11.18 0 0 1 8.799 8.8c.083.41.386.74.79.87.109.03.22.04.331.04.298 0 .59-.11.808-.33a7.95 7.95 0 0 0 2.342-5.66c0-1.75-.559-3.41-1.592-4.79l2.615-2.61a33.004 33.004 0 0 0 4.85 3.75c.19.12.401.18.611.18.378 0 .748-.19.966-.53.338-.53.18-1.24-.353-1.58-1.58-1-3.075-2.16-4.458-3.44l3.234-3.23a26.11 26.11 0 0 0 6.969 4.59c.152.06.311.1.467.1.436 0 .853-.25 1.043-.68.259-.57.001-1.25-.574-1.51a23.78 23.78 0 0 1-6.288-4.12l3.237-3.24a19.422 19.422 0 0 0 7.682 4.19 1.14 1.14 0 0 0 1.406-.8 1.146 1.146 0 0 0-.795-1.41 17.1 17.1 0 0 1-6.674-3.6l3.241-3.24a12.61 12.61 0 0 0 7.033 2.87h.092c.441 0 .846-.25 1.035-.66 1.234-2.64 1.346-5.38 1.223-7.22zm-5.381 1c-.446.45-1.169.45-1.616 0a1.136 1.136 0 0 1 0-1.61c.447-.45 1.17-.45 1.616 0 .447.45.447 1.17 0 1.61zM70.959 2000.03c-.11-1.64-.528-3.84-1.34-4.65-.813-.81-3.017-1.23-4.656-1.34-1.836-.12-4.58-.01-7.219 1.22-.432.2-.693.65-.655 1.13a12.542 12.542 0 0 0 2.87 7.03l-3.24 3.24a17.06 17.06 0 0 1-3.606-6.67 1.143 1.143 0 1 0-2.202.61 19.346 19.346 0 0 0 4.189 7.68l-3.237 3.24a23.663 23.663 0 0 1-4.126-6.29 1.144 1.144 0 0 0-1.51-.57c-.576.25-.834.93-.575 1.51 1.149 2.56 2.692 4.9 4.594 6.97l-3.234 3.23a30.783 30.783 0 0 1-3.447-4.46 1.143 1.143 0 0 0-1.93 1.23 33.166 33.166 0 0 0 3.76 4.85l-2.614 2.62a7.9 7.9 0 0 0-4.79-1.6c-2.137 0-4.145.84-5.656 2.35-.298.3-.408.73-.286 1.14.122.4.456.7.87.79a11.18 11.18 0 0 1 8.8 8.8c.082.41.385.74.788.87.11.03.221.04.332.04.298 0 .59-.11.808-.33a7.948 7.948 0 0 0 2.342-5.66c0-1.75-.559-3.41-1.592-4.79l2.615-2.61a33.045 33.045 0 0 0 4.85 3.75c.19.12.401.18.61.18.38 0 .75-.19.967-.53.338-.53.18-1.24-.353-1.58a30.9 30.9 0 0 1-4.458-3.44l3.234-3.23c2.07 1.9 4.41 3.44 6.969 4.59.152.06.31.1.467.1.436 0 .853-.25 1.043-.68.259-.57.001-1.25-.574-1.51a23.774 23.774 0 0 1-6.288-4.12l3.237-3.24c2.206 1.96 4.84 3.4 7.682 4.19a1.14 1.14 0 0 0 1.406-.8 1.146 1.146 0 0 0-.795-1.41 17.102 17.102 0 0 1-6.674-3.6l3.24-3.24a12.613 12.613 0 0 0 7.034 2.87h.092c.44 0 .846-.25 1.035-.66 1.234-2.64 1.346-5.38 1.223-7.22zm-5.38 1c-.447.45-1.17.45-1.617 0a1.135 1.135 0 0 1 0-1.61c.447-.45 1.17-.45 1.616 0 .447.45.447 1.17 0 1.61zM713.959 2086.03c-.111-1.64-.528-3.84-1.341-4.65-.812-.81-3.016-1.23-4.655-1.34-1.836-.12-4.579-.01-7.219 1.22-.432.2-.693.65-.655 1.13a12.542 12.542 0 0 0 2.871 7.03l-3.241 3.24a17.063 17.063 0 0 1-3.606-6.67 1.142 1.142 0 1 0-2.202.61 19.342 19.342 0 0 0 4.189 7.68l-3.237 3.24a23.658 23.658 0 0 1-4.126-6.29c-.259-.57-.935-.83-1.511-.57-.576.25-.833.93-.574 1.51a26.025 26.025 0 0 0 4.594 6.97l-3.234 3.23a30.866 30.866 0 0 1-3.447-4.46 1.143 1.143 0 1 0-1.929 1.23 33.124 33.124 0 0 0 3.76 4.85l-2.615 2.62a7.899 7.899 0 0 0-4.79-1.6c-2.137 0-4.146.84-5.656 2.35a1.142 1.142 0 0 0 .584 1.93 11.18 11.18 0 0 1 8.799 8.8c.083.41.386.74.79.87.109.03.22.04.331.04.298 0 .59-.11.808-.33a7.95 7.95 0 0 0 2.342-5.66c0-1.75-.559-3.41-1.592-4.79l2.615-2.61a33.004 33.004 0 0 0 4.85 3.75c.19.12.401.18.611.18.378 0 .748-.19.966-.53.338-.53.18-1.24-.353-1.58-1.58-1-3.075-2.16-4.458-3.44l3.234-3.23a26.11 26.11 0 0 0 6.969 4.59c.152.06.311.1.467.1.436 0 .853-.25 1.043-.68.259-.57.001-1.25-.574-1.51a23.78 23.78 0 0 1-6.288-4.12l3.237-3.24a19.422 19.422 0 0 0 7.682 4.19 1.14 1.14 0 0 0 1.406-.8 1.146 1.146 0 0 0-.795-1.41 17.1 17.1 0 0 1-6.674-3.6l3.241-3.24a12.61 12.61 0 0 0 7.033 2.87h.092c.441 0 .846-.25 1.035-.66 1.234-2.64 1.346-5.38 1.223-7.22zm-5.381 1c-.446.45-1.169.45-1.616 0a1.136 1.136 0 0 1 0-1.61c.447-.45 1.17-.45 1.616 0 .447.45.447 1.17 0 1.61zM86.959 2477.03c-.11-1.64-.528-3.84-1.34-4.65-.813-.81-3.017-1.23-4.656-1.34-1.837-.12-4.58-.01-7.219 1.22-.432.2-.693.65-.655 1.13a12.542 12.542 0 0 0 2.87 7.03l-3.24 3.24a17.06 17.06 0 0 1-3.606-6.67 1.143 1.143 0 1 0-2.202.61 19.346 19.346 0 0 0 4.189 7.68l-3.237 3.24a23.663 23.663 0 0 1-4.126-6.29c-.259-.57-.935-.83-1.51-.57-.576.25-.834.93-.575 1.51 1.149 2.56 2.692 4.9 4.594 6.97l-3.234 3.23a30.783 30.783 0 0 1-3.447-4.46 1.143 1.143 0 0 0-1.93 1.23 33.166 33.166 0 0 0 3.76 4.85l-2.614 2.62a7.9 7.9 0 0 0-4.79-1.6c-2.137 0-4.145.84-5.656 2.35-.298.3-.408.73-.286 1.14.122.4.456.7.87.79a11.18 11.18 0 0 1 8.8 8.8c.082.41.385.74.788.87.11.03.221.04.332.04.298 0 .59-.11.808-.33a7.948 7.948 0 0 0 2.342-5.66c0-1.75-.559-3.41-1.592-4.79l2.615-2.61a33.045 33.045 0 0 0 4.85 3.75c.19.12.401.18.61.18.38 0 .75-.19.967-.53.338-.53.18-1.24-.353-1.58a30.9 30.9 0 0 1-4.458-3.44l3.234-3.23c2.07 1.9 4.41 3.44 6.969 4.59.152.06.31.1.467.1.436 0 .853-.25 1.043-.68.259-.57.001-1.25-.574-1.51a23.774 23.774 0 0 1-6.288-4.12l3.237-3.24c2.206 1.96 4.84 3.4 7.682 4.19a1.14 1.14 0 0 0 1.406-.8 1.146 1.146 0 0 0-.795-1.41 17.102 17.102 0 0 1-6.674-3.6l3.24-3.24a12.613 12.613 0 0 0 7.034 2.87h.092c.44 0 .846-.25 1.035-.66 1.234-2.64 1.346-5.38 1.223-7.22zm-5.38 1c-.447.45-1.17.45-1.617 0a1.135 1.135 0 0 1 0-1.61c.447-.45 1.17-.45 1.616 0 .447.45.447 1.17 0 1.61zM1244.96 2736.03c-.11-1.64-.53-3.84-1.34-4.65-.81-.81-3.02-1.23-4.66-1.34-1.83-.12-4.58-.01-7.22 1.22-.43.2-.69.65-.65 1.13.21 2.59 1.22 5.05 2.87 7.03l-3.24 3.24a17.084 17.084 0 0 1-3.61-6.67c-.17-.61-.8-.97-1.4-.8-.61.17-.97.8-.8 1.41a19.38 19.38 0 0 0 4.19 7.68l-3.24 3.24c-1.7-1.87-3.09-3.98-4.12-6.29-.26-.57-.94-.83-1.51-.57-.58.25-.84.93-.58 1.51 1.15 2.56 2.69 4.9 4.6 6.97l-3.24 3.23a30.818 30.818 0 0 1-3.44-4.46c-.34-.53-1.05-.69-1.58-.35-.53.34-.69 1.04-.35 1.58 1.09 1.72 2.35 3.35 3.76 4.85l-2.62 2.62a7.888 7.888 0 0 0-4.79-1.6c-2.14 0-4.14.84-5.66 2.35-.29.3-.4.73-.28 1.14.12.4.46.7.87.79 4.45.89 7.91 4.34 8.8 8.8.08.41.38.74.79.87.11.03.22.04.33.04.3 0 .59-.11.81-.33a7.949 7.949 0 0 0 2.34-5.66c0-1.75-.56-3.41-1.59-4.79l2.61-2.61c1.5 1.4 3.13 2.66 4.85 3.75.19.12.4.18.61.18.38 0 .75-.19.97-.53.34-.53.18-1.24-.35-1.58-1.58-1-3.08-2.16-4.46-3.44l3.23-3.23c2.07 1.9 4.41 3.44 6.97 4.59.15.06.31.1.47.1a1.146 1.146 0 0 0 .47-2.19 23.662 23.662 0 0 1-6.29-4.12l3.24-3.24c2.2 1.96 4.84 3.4 7.68 4.19.1.02.2.04.3.04.5 0 .96-.33 1.1-.84a1.14 1.14 0 0 0-.79-1.41c-2.46-.68-4.75-1.92-6.68-3.6l3.25-3.24c1.98 1.65 4.44 2.66 7.03 2.87h.09c.44 0 .85-.25 1.04-.66 1.23-2.64 1.34-5.38 1.22-7.22zm-5.38 1a1.14 1.14 0 1 1-1.62-1.61 1.14 1.14 0 1 1 1.62 1.61zM1153.96 3450.03c-.11-1.64-.53-3.84-1.34-4.65-.81-.81-3.02-1.23-4.66-1.34-1.83-.12-4.58-.01-7.22 1.22-.43.2-.69.65-.65 1.13.21 2.59 1.22 5.05 2.87 7.03l-3.24 3.24a17.084 17.084 0 0 1-3.61-6.67c-.17-.61-.8-.97-1.4-.8-.61.17-.97.8-.8 1.41a19.38 19.38 0 0 0 4.19 7.68l-3.24 3.24c-1.7-1.87-3.09-3.98-4.12-6.29-.26-.57-.94-.83-1.51-.57-.58.25-.84.93-.58 1.51 1.15 2.56 2.69 4.9 4.6 6.97l-3.24 3.23a30.818 30.818 0 0 1-3.44-4.46c-.34-.53-1.05-.69-1.58-.35-.53.34-.69 1.04-.35 1.58 1.09 1.72 2.35 3.35 3.76 4.85l-2.62 2.62a7.888 7.888 0 0 0-4.79-1.6c-2.14 0-4.14.84-5.66 2.35-.29.3-.4.73-.28 1.14.12.4.46.7.87.79 4.45.89 7.91 4.34 8.8 8.8.08.41.38.74.79.87.11.03.22.04.33.04.3 0 .59-.11.81-.33a7.949 7.949 0 0 0 2.34-5.66c0-1.75-.56-3.41-1.59-4.79l2.61-2.61c1.5 1.4 3.13 2.66 4.85 3.75.19.12.4.18.61.18.38 0 .75-.19.97-.53.34-.53.18-1.24-.35-1.58-1.58-1-3.08-2.16-4.46-3.44l3.23-3.23c2.07 1.9 4.41 3.44 6.97 4.59.15.06.31.1.47.1a1.146 1.146 0 0 0 .47-2.19 23.662 23.662 0 0 1-6.29-4.12l3.24-3.24c2.2 1.96 4.84 3.4 7.68 4.19.1.02.2.04.3.04.5 0 .96-.33 1.1-.84a1.14 1.14 0 0 0-.79-1.41c-2.46-.68-4.75-1.92-6.68-3.6l3.25-3.24c1.98 1.65 4.44 2.66 7.03 2.87h.09c.44 0 .85-.25 1.04-.66 1.23-2.64 1.34-5.38 1.22-7.22zm-5.38 1a1.14 1.14 0 1 1-1.62-1.61 1.14 1.14 0 1 1 1.62 1.61zM623.947 4284.2c-.15-2.23-.717-5.22-1.821-6.33-1.105-1.1-4.099-1.67-6.328-1.82-2.495-.17-6.223-.01-9.81 1.66-.587.28-.942.89-.89 1.54a17.09 17.09 0 0 0 3.901 9.56l-4.405 4.4a23.24 23.24 0 0 1-4.9-9.07 1.548 1.548 0 0 0-1.911-1.08 1.55 1.55 0 0 0-1.082 1.91 26.376 26.376 0 0 0 5.693 10.44l-4.398 4.4a32.132 32.132 0 0 1-5.609-8.55c-.351-.78-1.27-1.13-2.053-.78a1.558 1.558 0 0 0-.78 2.06 35.436 35.436 0 0 0 6.244 9.47l-4.395 4.4a41.95 41.95 0 0 1-4.685-6.07 1.557 1.557 0 0 0-2.144-.48 1.56 1.56 0 0 0-.479 2.15 45.672 45.672 0 0 0 5.111 6.6l-3.553 3.55a10.813 10.813 0 0 0-6.511-2.16c-2.904 0-5.634 1.13-7.687 3.18-.405.41-.554 1-.388 1.55.166.55.62.96 1.182 1.07a15.21 15.21 0 0 1 11.959 11.96c.112.56.524 1.02 1.072 1.18.149.05.3.07.45.07.406 0 .803-.16 1.099-.46a10.786 10.786 0 0 0 3.184-7.68c0-2.38-.76-4.64-2.164-6.51l3.553-3.56a45.157 45.157 0 0 0 6.591 5.11c.258.16.546.24.831.24.514 0 1.017-.26 1.313-.72a1.56 1.56 0 0 0-.479-2.15 41.387 41.387 0 0 1-6.059-4.68l4.395-4.39a35.46 35.46 0 0 0 9.471 6.24c.206.09.422.13.635.13.593 0 1.159-.34 1.417-.91.352-.79.002-1.71-.78-2.06-3.133-1.4-6-3.28-8.545-5.6l4.398-4.4a26.39 26.39 0 0 0 10.441 5.69c.139.04.278.06.416.06.68 0 1.305-.45 1.495-1.14.23-.83-.254-1.68-1.081-1.91a23.247 23.247 0 0 1-9.07-4.9l4.404-4.41a17.05 17.05 0 0 0 9.56 3.9c.041.01.083.01.124.01.599 0 1.149-.35 1.406-.9 1.678-3.59 1.83-7.31 1.662-9.81zm-7.312 1.36c-.606.61-1.59.61-2.196 0a1.557 1.557 0 0 1 0-2.2c.606-.6 1.59-.6 2.196 0 .607.61.607 1.59 0 2.2z" fill="#78C0DE" opacity=".09"/><path d="M1371.96 2311.03c-.11-1.64-.53-3.84-1.34-4.65-.81-.81-3.02-1.23-4.66-1.34-1.83-.12-4.58-.01-7.22 1.22-.43.2-.69.65-.65 1.13.21 2.59 1.22 5.05 2.87 7.03l-3.24 3.24a17.084 17.084 0 0 1-3.61-6.67c-.17-.61-.8-.97-1.4-.8-.61.17-.97.8-.8 1.41a19.38 19.38 0 0 0 4.19 7.68l-3.24 3.24c-1.7-1.87-3.09-3.98-4.12-6.29-.26-.57-.94-.83-1.51-.57-.58.25-.84.93-.58 1.51 1.15 2.56 2.69 4.9 4.6 6.97l-3.24 3.23a30.818 30.818 0 0 1-3.44-4.46c-.34-.53-1.05-.69-1.58-.35-.53.34-.69 1.04-.35 1.58 1.09 1.72 2.35 3.35 3.76 4.85l-2.62 2.62a7.888 7.888 0 0 0-4.79-1.6c-2.14 0-4.14.84-5.66 2.35-.29.3-.4.73-.28 1.14.12.4.46.7.87.79 4.45.89 7.91 4.34 8.8 8.8.08.41.38.74.79.87.11.03.22.04.33.04.3 0 .59-.11.81-.33a7.949 7.949 0 0 0 2.34-5.66c0-1.75-.56-3.41-1.59-4.79l2.61-2.61c1.5 1.4 3.13 2.66 4.85 3.75.19.12.4.18.61.18.38 0 .75-.19.97-.53.34-.53.18-1.24-.35-1.58-1.58-1-3.08-2.16-4.46-3.44l3.23-3.23c2.07 1.9 4.41 3.44 6.97 4.59.15.06.31.1.47.1a1.146 1.146 0 0 0 .47-2.19 23.662 23.662 0 0 1-6.29-4.12l3.24-3.24c2.2 1.96 4.84 3.4 7.68 4.19.1.02.2.04.3.04.5 0 .96-.33 1.1-.84a1.14 1.14 0 0 0-.79-1.41c-2.46-.68-4.75-1.92-6.68-3.6l3.25-3.24c1.98 1.65 4.44 2.66 7.03 2.87h.09c.44 0 .85-.25 1.04-.66 1.23-2.64 1.34-5.38 1.22-7.22zm-5.38 1a1.14 1.14 0 1 1-1.62-1.61 1.14 1.14 0 1 1 1.62 1.61z" fill="#DBDBDB" opacity=".09"/><path d="M1397.96 1839.03c-.11-1.64-.53-3.84-1.34-4.65-.81-.81-3.02-1.23-4.66-1.34-1.83-.12-4.58-.01-7.22 1.22-.43.2-.69.65-.65 1.13.21 2.59 1.22 5.05 2.87 7.03l-3.24 3.24a17.084 17.084 0 0 1-3.61-6.67c-.17-.61-.8-.97-1.4-.8-.61.17-.97.8-.8 1.41a19.38 19.38 0 0 0 4.19 7.68l-3.24 3.24c-1.7-1.87-3.09-3.98-4.12-6.29-.26-.57-.94-.83-1.51-.57-.58.25-.84.93-.58 1.51 1.15 2.56 2.69 4.9 4.6 6.97l-3.24 3.23a30.818 30.818 0 0 1-3.44-4.46c-.34-.53-1.05-.69-1.58-.35-.53.34-.69 1.04-.35 1.58 1.09 1.72 2.35 3.35 3.76 4.85l-2.62 2.62a7.888 7.888 0 0 0-4.79-1.6c-2.14 0-4.14.84-5.66 2.35-.29.3-.4.73-.28 1.14.12.4.46.7.87.79 4.45.89 7.91 4.34 8.8 8.8.08.41.38.74.79.87.11.03.22.04.33.04.3 0 .59-.11.81-.33a7.949 7.949 0 0 0 2.34-5.66c0-1.75-.56-3.41-1.59-4.79l2.61-2.61c1.5 1.4 3.13 2.66 4.85 3.75.19.12.4.18.61.18.38 0 .75-.19.97-.53.34-.53.18-1.24-.35-1.58-1.58-1-3.08-2.16-4.46-3.44l3.23-3.23c2.07 1.9 4.41 3.44 6.97 4.59.15.06.31.1.47.1a1.146 1.146 0 0 0 .47-2.19 23.662 23.662 0 0 1-6.29-4.12l3.24-3.24c2.2 1.96 4.84 3.4 7.68 4.19.1.02.2.04.3.04.5 0 .96-.33 1.1-.84a1.14 1.14 0 0 0-.79-1.41c-2.46-.68-4.75-1.92-6.68-3.6l3.25-3.24c1.98 1.65 4.44 2.66 7.03 2.87h.09c.44 0 .85-.25 1.04-.66 1.23-2.64 1.34-5.38 1.22-7.22zm-5.38 1a1.14 1.14 0 1 1-1.62-1.61 1.14 1.14 0 1 1 1.62 1.61z" fill="#78C0DE" opacity=".09"/><path d="M80.952 633.428c-.136-2.019-.65-4.73-1.65-5.731-1-1-3.712-1.514-5.73-1.649-2.26-.152-5.636-.014-8.885 1.505a1.406 1.406 0 0 0-.806 1.386 15.473 15.473 0 0 0 3.533 8.658l-3.989 3.991a21.055 21.055 0 0 1-4.438-8.217 1.406 1.406 0 0 0-2.71.752 23.865 23.865 0 0 0 5.155 9.458l-3.983 3.985a29.281 29.281 0 0 1-5.08-7.742 1.407 1.407 0 1 0-2.566 1.151 32.085 32.085 0 0 0 5.655 8.582l-3.98 3.982a37.983 37.983 0 0 1-4.243-5.493 1.407 1.407 0 0 0-2.375 1.507 40.822 40.822 0 0 0 4.628 5.977l-3.218 3.219a9.773 9.773 0 0 0-5.896-1.959 9.782 9.782 0 0 0-6.962 2.883 1.407 1.407 0 0 0 .719 2.374 13.77 13.77 0 0 1 10.83 10.831 1.406 1.406 0 0 0 2.374.719 9.782 9.782 0 0 0 2.884-6.962 9.772 9.772 0 0 0-1.96-5.897l3.218-3.219a40.819 40.819 0 0 0 5.97 4.621 1.406 1.406 0 1 0 1.507-2.374 37.961 37.961 0 0 1-5.487-4.238l3.98-3.981a32.069 32.069 0 0 0 8.578 5.65 1.402 1.402 0 0 0 1.859-.707 1.406 1.406 0 0 0-.707-1.859 29.272 29.272 0 0 1-7.74-5.076l3.985-3.985a23.865 23.865 0 0 0 9.455 5.154 1.407 1.407 0 0 0 .752-2.711 21.06 21.06 0 0 1-8.215-4.436l3.99-3.991a15.471 15.471 0 0 0 8.657 3.533 1.407 1.407 0 0 0 1.386-.806c1.52-3.249 1.657-6.625 1.505-8.885zm-6.622 1.231a1.407 1.407 0 1 1-1.989-1.99 1.407 1.407 0 0 1 1.989 1.99zM1204.95 546.892c-.15-2.145-.69-5.026-1.75-6.089-1.07-1.063-3.95-1.608-6.09-1.752-2.4-.162-5.99-.015-9.44 1.599-.57.264-.91.851-.86 1.473a16.384 16.384 0 0 0 3.76 9.199l-4.24 4.24a22.24 22.24 0 0 1-4.72-8.73 1.494 1.494 0 1 0-2.88.799 25.409 25.409 0 0 0 5.48 10.049l-4.23 4.234a31.06 31.06 0 0 1-5.4-8.226 1.498 1.498 0 0 0-1.98-.752c-.75.338-1.08 1.222-.75 1.975a34.22 34.22 0 0 0 6.01 9.119l-4.23 4.23a40.938 40.938 0 0 1-4.51-5.836 1.49 1.49 0 0 0-2.06-.461c-.69.442-.9 1.366-.46 2.063a43.01 43.01 0 0 0 4.92 6.349l-3.42 3.421a10.397 10.397 0 0 0-6.27-2.082c-2.79 0-5.42 1.088-7.39 3.064-.39.389-.54.962-.38 1.489.16.528.6.925 1.14 1.033a14.634 14.634 0 0 1 11.51 11.508 1.491 1.491 0 0 0 2.52.763 10.38 10.38 0 0 0 3.07-7.396c0-2.29-.74-4.467-2.09-6.266l3.42-3.42a43.76 43.76 0 0 0 6.34 4.91 1.5 1.5 0 0 0 2.07-.46c.44-.697.23-1.621-.46-2.063a39.79 39.79 0 0 1-5.83-4.502l4.23-4.231a33.892 33.892 0 0 0 9.11 6.004c.2.089.41.131.61.131.57 0 1.12-.328 1.36-.882.34-.753.01-1.638-.75-1.976a31.184 31.184 0 0 1-8.22-5.393l4.23-4.234a25.374 25.374 0 0 0 10.05 5.476 1.497 1.497 0 0 0 1.84-1.041 1.498 1.498 0 0 0-1.04-1.839 22.383 22.383 0 0 1-8.73-4.714l4.24-4.239a16.442 16.442 0 0 0 9.2 3.753 1.5 1.5 0 0 0 1.47-.856c1.61-3.453 1.76-7.04 1.6-9.441zm-7.04 1.308a1.49 1.49 0 0 1-2.11 0 1.5 1.5 0 0 1 0-2.113 1.49 1.49 0 0 1 2.11 0c.59.583.59 1.53 0 2.113zM1097.95 1061.89c-.15-2.14-.69-5.02-1.75-6.09-1.07-1.06-3.95-1.61-6.09-1.75-2.4-.16-5.99-.01-9.44 1.6-.57.26-.91.85-.86 1.47.27 3.39 1.59 6.6 3.76 9.2l-4.24 4.24a22.254 22.254 0 0 1-4.72-8.73 1.497 1.497 0 0 0-1.84-1.04c-.79.22-1.26 1.05-1.04 1.84a25.42 25.42 0 0 0 5.48 10.05l-4.23 4.23a31.11 31.11 0 0 1-5.4-8.22 1.49 1.49 0 0 0-1.98-.75c-.75.33-1.08 1.22-.75 1.97 1.51 3.35 3.52 6.41 6.01 9.12l-4.23 4.23a40.973 40.973 0 0 1-4.51-5.84c-.44-.69-1.36-.9-2.06-.46-.69.45-.9 1.37-.46 2.07 1.43 2.25 3.08 4.38 4.92 6.35l-3.42 3.42c-1.8-1.36-3.98-2.09-6.27-2.09-2.79 0-5.42 1.09-7.39 3.07-.39.39-.54.96-.38 1.49.16.52.6.92 1.14 1.03 5.83 1.16 10.34 5.68 11.51 11.51.11.54.5.98 1.03 1.13a1.458 1.458 0 0 0 1.49-.37c1.98-1.97 3.07-4.6 3.07-7.4 0-2.29-.74-4.46-2.09-6.26l3.42-3.42c1.97 1.83 4.09 3.48 6.34 4.91.25.16.53.23.8.23.5 0 .98-.24 1.27-.69.44-.7.23-1.62-.46-2.06a40.333 40.333 0 0 1-5.83-4.51l4.23-4.23c2.7 2.49 5.76 4.51 9.11 6.01.2.09.41.13.61.13.57 0 1.12-.33 1.36-.88.34-.76.01-1.64-.75-1.98a31.075 31.075 0 0 1-8.22-5.39l4.23-4.24c2.89 2.57 6.33 4.45 10.05 5.48.13.04.27.05.4.05.65 0 1.26-.43 1.44-1.09.22-.8-.25-1.62-1.04-1.84-3.22-.89-6.21-2.51-8.73-4.71l4.24-4.24c2.6 2.16 5.81 3.48 9.2 3.75h.12c.57 0 1.1-.33 1.35-.86 1.61-3.45 1.76-7.04 1.6-9.44zm-7.04 1.31c-.58.58-1.53.58-2.11 0-.58-.58-.58-1.53 0-2.11.58-.59 1.53-.59 2.11 0 .59.58.59 1.53 0 2.11z" fill="#F3F3F3"/><path d="M1253.11 59.248c-1.59 1.066-3.57 2.771-3.92 4.065-.34 1.293.52 3.76 1.37 5.479.94 1.924 2.65 4.627 5.43 6.571.46.318 1.07.32 1.52.005 2.5-1.718 4.39-4.17 5.43-6.995l5.16 1.382a19.878 19.878 0 0 1-4.64 7.527 1.331 1.331 0 0 0 1.9 1.867 22.663 22.663 0 0 0 5.32-8.704l5.15 1.38a27.9 27.9 0 0 1-3.94 7.829 1.32 1.32 0 0 0 .3 1.859c.59.43 1.42.296 1.85-.3a30.156 30.156 0 0 0 4.36-8.699l5.15 1.379a36.334 36.334 0 0 1-2.49 6.079c-.34.651-.09 1.456.56 1.796.65.341 1.46.089 1.8-.563a38.905 38.905 0 0 0 2.71-6.623l4.16 1.114a9.254 9.254 0 0 0 1.18 5.762 9.288 9.288 0 0 0 5.66 4.343c.48.127.98-.018 1.32-.376.33-.358.45-.872.29-1.337a13.04 13.04 0 0 1 3.75-14.007 1.334 1.334 0 0 0 .28-1.666 1.369 1.369 0 0 0-.81-.62 9.277 9.277 0 0 0-7.08.931 9.239 9.239 0 0 0-3.9 4.398l-4.17-1.114c.54-2.332.87-4.708.97-7.082.01-.262-.06-.51-.18-.72a1.328 1.328 0 0 0-2.48.609 35.86 35.86 0 0 1-.88 6.503l-5.15-1.378c.71-3.197.91-6.456.58-9.707a1.215 1.215 0 0 0-.18-.53c-.25-.44-.75-.714-1.28-.66-.74.075-1.27.729-1.19 1.46.3 2.929.13 5.865-.5 8.747l-5.15-1.38c.69-3.368.6-6.864-.26-10.19a1.25 1.25 0 0 0-.13-.334c-.29-.505-.9-.776-1.49-.622-.71.184-1.14.91-.95 1.622.74 2.883.82 5.91.25 8.835l-5.16-1.382c.51-2.967.1-6.036-1.2-8.77-.02-.032-.04-.064-.05-.094a1.336 1.336 0 0 0-1.27-.66c-3.38.291-6.22 1.776-8 2.97zm4.15 4.846a1.331 1.331 0 1 1-.691 2.571 1.331 1.331 0 0 1 .691-2.57z" fill="#FFBD54" opacity=".09"/><path opacity=".09" d="m649.852 80.11-5.889-5.811a1.042 1.042 0 0 0-1.46 0 1.01 1.01 0 0 0 0 1.44l5.888 5.813a5.171 5.171 0 0 1 0 7.374c-.987.975-2.317 1.5-3.738 1.48a5.449 5.449 0 0 1-3.768-1.574l-7.728-7.628c-2.865-2.828-7.52-2.834-10.376-.014a7.193 7.193 0 0 0 0 10.256l2.771 2.735a21.017 21.017 0 0 0-6.82-1.129c-5.54 0-10.749 2.13-14.667 5.997-8.087 7.983-8.087 20.972 0 28.954 3.918 3.867 9.127 5.997 14.667 5.997 5.54 0 10.749-2.13 14.667-5.997 3.917-3.867 6.075-9.008 6.075-14.477 0-5.469-2.158-10.61-6.075-14.477-.092-.091-.186-.18-.279-.269l-8.879-8.776a5.171 5.171 0 0 1 0-7.373c2.051-2.025 5.396-2.019 7.455.014l7.728 7.628a7.518 7.518 0 0 0 5.199 2.171c1.983.027 3.842-.71 5.228-2.077a7.194 7.194 0 0 0 .001-10.256zm-20.931 17.96c-2.496.21-4.926.733-7.242 1.554a1.047 1.047 0 0 0-.153-.063 28.792 28.792 0 0 0-13.829-.912c3.182-2.31 7.011-3.558 11.035-3.558 3.674 0 7.184 1.04 10.189 2.979zm-21.089 12.063c-2.55-.078-5.094.18-7.58.773a18.29 18.29 0 0 1 .766-3.213l.055-.016c3.626-1.252 6.821-1.73 10.13-1.501l-.079.076a28.78 28.78 0 0 0-3.292 3.881zm5.427-5.789-.008-.002c-3.773-.534-7.288-.265-11.193.879a18.253 18.253 0 0 1 2.573-3.782c4.403-1.264 9.459-1.498 14.004-.532a28.6 28.6 0 0 0-5.376 3.437zm-13.189 8.712a26.814 26.814 0 0 1 6.458-.895 27.776 27.776 0 0 0-3.643 11.126 18.263 18.263 0 0 1-2.815-10.231zm4.729 12.746c.118-6.842 2.871-13.257 7.785-18.108 4.952-4.889 11.844-7.61 18.844-7.687a18.746 18.746 0 0 1 2.447 2.723c-13.898 1.067-25.018 11.898-26.286 25.595a18.865 18.865 0 0 1-2.79-2.523zm31.665-18.095c-6.249.806-11.768 3.328-16.016 7.332-4.427 4.174-7.129 9.661-7.847 15.91a18.612 18.612 0 0 1-3.034-1.35c.69-13.584 11.795-24.4 25.571-24.899a18.09 18.09 0 0 1 1.326 3.007zm-.527 13.016a28.34 28.34 0 0 0-6.595-9.014 27.433 27.433 0 0 1 4.349-1.424 26.051 26.051 0 0 1 3.527 5.889 18.116 18.116 0 0 1-1.281 4.549zm1.402-8.794a28.03 28.03 0 0 0-1.399-2.088c.352-.055.708-.104 1.066-.147.156.734.268 1.479.333 2.235zm-10.69 8.843a26.095 26.095 0 0 1 4.424 6.591 18.627 18.627 0 0 1-10.65 4.523c.579-4.619 2.853-8.687 6.226-11.114zm-8.311 11.185a19.011 19.011 0 0 1-3.722-.442c.608-5.91 3.191-11.049 7.187-14.875 1.206.8 2.337 1.692 3.384 2.665-3.773 2.833-6.28 7.458-6.849 12.652zm14.289-6.111a28.268 28.268 0 0 0-9.233-10.6 24.893 24.893 0 0 1 3.936-2.581 26.257 26.257 0 0 1 7.374 10.429 18.51 18.51 0 0 1-2.077 2.752z" fill="#78C0DE"/><path d="m1428.97 186.907-5.56-5.618a.969.969 0 0 0-1.38 0 .994.994 0 0 0 0 1.393l5.56 5.618a5.074 5.074 0 0 1 0 7.128 4.821 4.821 0 0 1-3.53 1.431 5.091 5.091 0 0 1-3.56-1.521l-7.3-7.374a6.887 6.887 0 0 0-9.8-.014c-2.7 2.733-2.7 7.181 0 9.914l2.62 2.644a19.39 19.39 0 0 0-6.44-1.091c-5.23 0-10.15 2.059-13.85 5.797-7.64 7.717-7.64 20.273 0 27.989 3.7 3.738 8.62 5.797 13.85 5.797s10.15-2.059 13.85-5.797c3.7-3.738 5.74-8.708 5.74-13.994 0-5.287-2.04-10.257-5.74-13.995a5.312 5.312 0 0 0-.26-.26l-8.39-8.483c-1.94-1.965-1.94-5.163 0-7.128a4.948 4.948 0 0 1 7.04.014l7.3 7.374a7.038 7.038 0 0 0 4.91 2.098 6.747 6.747 0 0 0 4.94-2.008c2.71-2.733 2.71-7.18 0-9.914zm-19.77 17.361c-2.35.202-4.65.708-6.84 1.502a.688.688 0 0 0-.14-.061 26.594 26.594 0 0 0-13.06-.882 17.37 17.37 0 0 1 10.42-3.439c3.47 0 6.79 1.006 9.62 2.88zm-19.91 11.661c-2.41-.076-4.81.174-7.16.746.15-1.05.39-2.09.72-3.105.02-.005.03-.01.05-.016 3.43-1.21 6.44-1.672 9.57-1.45-.03.024-.05.048-.08.073a27.572 27.572 0 0 0-3.1 3.752zm5.12-5.597-.01-.001c-3.56-.517-6.88-.257-10.57.849a18.185 18.185 0 0 1 2.43-3.656c4.16-1.222 8.94-1.448 13.23-.514-1.8.905-3.5 2.016-5.08 3.322zm-12.45 8.422c1.99-.543 4.04-.832 6.09-.865a27.478 27.478 0 0 0-3.44 10.755 17.99 17.99 0 0 1-2.65-9.89zm4.46 12.321c.11-6.614 2.71-12.815 7.35-17.505 4.68-4.725 11.19-7.356 17.8-7.43.16.153.33.308.48.467.67.679 1.28 1.404 1.83 2.166-13.12 1.031-23.63 11.501-24.82 24.741a16.997 16.997 0 0 1-1.95-1.704c-.24-.24-.47-.485-.69-.735zm29.91-17.491c-5.9.778-11.12 3.216-15.13 7.087-4.18 4.035-6.73 9.339-7.41 15.38-.99-.348-1.95-.783-2.87-1.306.66-13.13 11.14-23.586 24.15-24.068.51.93.93 1.902 1.26 2.907zm-.5 12.581a27.44 27.44 0 0 0-6.23-8.713 25.59 25.59 0 0 1 4.11-1.377 25.218 25.218 0 0 1 3.33 5.693 17.865 17.865 0 0 1-1.21 4.397zm1.32-8.5c-.41-.693-.85-1.366-1.32-2.019.33-.053.67-.1 1.01-.142.15.709.25 1.43.31 2.161zm-10.09 8.548a25.712 25.712 0 0 1 4.18 6.371 17.41 17.41 0 0 1-10.06 4.373c.54-4.465 2.69-8.398 5.88-10.744zm-7.85 10.812c-1.2-.025-2.37-.169-3.52-.427.58-5.713 3.02-10.681 6.79-14.379 1.14.773 2.21 1.635 3.2 2.576-3.57 2.739-5.93 7.209-6.47 12.23zm13.49-5.907a27.17 27.17 0 0 0-8.72-10.247 23.756 23.756 0 0 1 3.72-2.495 25.332 25.332 0 0 1 6.96 10.081 17.51 17.51 0 0 1-1.96 2.661z" fill="#F3F3F3"/><path d="m941.971 550.907-5.561-5.618a.969.969 0 0 0-1.38 0 .994.994 0 0 0 0 1.393l5.562 5.618c1.945 1.965 1.945 5.163 0 7.128a4.825 4.825 0 0 1-3.531 1.431 5.087 5.087 0 0 1-3.559-1.521l-7.299-7.374c-2.705-2.734-7.101-2.74-9.799-.014-2.705 2.733-2.705 7.181 0 9.914l2.617 2.644a19.426 19.426 0 0 0-6.441-1.091c-5.232 0-10.152 2.059-13.852 5.797-7.637 7.717-7.637 20.273 0 27.989 3.7 3.738 8.62 5.797 13.852 5.797 5.233 0 10.152-2.059 13.852-5.797 3.7-3.738 5.738-8.708 5.738-13.994 0-5.287-2.038-10.257-5.738-13.995-.087-.088-.175-.174-.263-.26l-8.386-8.483c-1.945-1.965-1.945-5.163 0-7.128a4.949 4.949 0 0 1 7.041.014l7.299 7.374a7.016 7.016 0 0 0 4.91 2.098 6.754 6.754 0 0 0 4.938-2.008c2.705-2.733 2.705-7.18 0-9.914zm-19.768 17.361a26.719 26.719 0 0 0-6.84 1.502.877.877 0 0 0-.144-.061 26.597 26.597 0 0 0-13.061-.882 17.387 17.387 0 0 1 10.422-3.439c3.47 0 6.786 1.006 9.623 2.88zm-19.917 11.661a26.66 26.66 0 0 0-7.159.746c.148-1.05.39-2.09.723-3.105a.79.79 0 0 0 .052-.016c3.425-1.21 6.442-1.672 9.567-1.45l-.074.073a27.567 27.567 0 0 0-3.109 3.752zm5.125-5.597-.007-.001c-3.564-.517-6.883-.257-10.572.849a17.735 17.735 0 0 1 2.431-3.656c4.158-1.222 8.933-1.448 13.226-.514a26.969 26.969 0 0 0-5.078 3.322zm-12.456 8.422a24.761 24.761 0 0 1 6.099-.865 27.266 27.266 0 0 0-3.44 10.755 17.965 17.965 0 0 1-2.659-9.89zm4.466 12.321c.111-6.614 2.711-12.815 7.353-17.505 4.677-4.725 11.186-7.356 17.797-7.43a18 18 0 0 1 2.311 2.633c-13.126 1.031-23.629 11.501-24.826 24.741a17.868 17.868 0 0 1-2.635-2.439zm29.906-17.491c-5.901.778-11.114 3.216-15.126 7.087-4.182 4.035-6.733 9.339-7.411 15.38a17.36 17.36 0 0 1-2.865-1.306c.651-13.13 11.139-23.586 24.15-24.068.503.93.922 1.902 1.252 2.907zm-.498 12.581a27.357 27.357 0 0 0-6.228-8.713 25.521 25.521 0 0 1 4.107-1.377 25.334 25.334 0 0 1 3.331 5.693 17.778 17.778 0 0 1-1.21 4.397zm1.324-8.5a26.924 26.924 0 0 0-1.321-2.019c.333-.053.669-.1 1.007-.142.148.709.253 1.43.314 2.161zm-10.095 8.548a25.264 25.264 0 0 1 4.178 6.371 17.39 17.39 0 0 1-10.058 4.373c.546-4.465 2.694-8.398 5.88-10.744zm-7.85 10.812a17.627 17.627 0 0 1-3.515-.427c.574-5.713 3.013-10.681 6.787-14.379a25.092 25.092 0 0 1 3.197 2.576c-3.564 2.739-5.931 7.209-6.469 12.23zm13.495-5.907a27.151 27.151 0 0 0-8.72-10.247 23.507 23.507 0 0 1 3.718-2.495 25.392 25.392 0 0 1 6.964 10.081 17.867 17.867 0 0 1-1.962 2.661z" fill="#78C0DE" fill-opacity=".09"/><path d="m1389.97 886.907-5.56-5.618a.969.969 0 0 0-1.38 0 .994.994 0 0 0 0 1.393l5.56 5.618a5.074 5.074 0 0 1 0 7.128 4.821 4.821 0 0 1-3.53 1.431 5.091 5.091 0 0 1-3.56-1.521l-7.3-7.374a6.887 6.887 0 0 0-9.8-.014c-2.7 2.733-2.7 7.181 0 9.914l2.62 2.644a19.39 19.39 0 0 0-6.44-1.091c-5.23 0-10.15 2.059-13.85 5.797-7.64 7.717-7.64 20.273 0 27.989 3.7 3.738 8.62 5.797 13.85 5.797s10.15-2.059 13.85-5.797c3.7-3.738 5.74-8.708 5.74-13.994 0-5.287-2.04-10.257-5.74-13.995a5.312 5.312 0 0 0-.26-.26l-8.39-8.483c-1.94-1.965-1.94-5.163 0-7.128a4.948 4.948 0 0 1 7.04.014l7.3 7.374a7.038 7.038 0 0 0 4.91 2.098 6.747 6.747 0 0 0 4.94-2.008c2.71-2.733 2.71-7.18 0-9.914zm-19.77 17.361c-2.35.202-4.65.708-6.84 1.502a.688.688 0 0 0-.14-.061 26.594 26.594 0 0 0-13.06-.882 17.37 17.37 0 0 1 10.42-3.439c3.47 0 6.79 1.006 9.62 2.88zm-19.91 11.661c-2.41-.076-4.81.174-7.16.746.15-1.05.39-2.09.72-3.105.02-.005.03-.01.05-.016 3.43-1.21 6.44-1.672 9.57-1.45-.03.024-.05.048-.08.073a27.572 27.572 0 0 0-3.1 3.752zm5.12-5.597-.01-.001c-3.56-.517-6.88-.257-10.57.849a18.185 18.185 0 0 1 2.43-3.656c4.16-1.222 8.94-1.448 13.23-.514-1.8.905-3.5 2.016-5.08 3.322zm-12.45 8.422c1.99-.543 4.04-.832 6.09-.865a27.478 27.478 0 0 0-3.44 10.755 17.99 17.99 0 0 1-2.65-9.89zm4.46 12.321c.11-6.614 2.71-12.815 7.35-17.505 4.68-4.725 11.19-7.356 17.8-7.43.16.153.33.308.48.467.67.679 1.28 1.404 1.83 2.166-13.12 1.031-23.63 11.501-24.82 24.741a16.997 16.997 0 0 1-1.95-1.704c-.24-.24-.47-.485-.69-.735zm29.91-17.491c-5.9.778-11.12 3.216-15.13 7.087-4.18 4.035-6.73 9.339-7.41 15.38-.99-.348-1.95-.783-2.87-1.306.66-13.13 11.14-23.586 24.15-24.068.51.93.93 1.902 1.26 2.907zm-.5 12.581a27.44 27.44 0 0 0-6.23-8.713 25.59 25.59 0 0 1 4.11-1.377 25.218 25.218 0 0 1 3.33 5.693 17.865 17.865 0 0 1-1.21 4.397zm1.32-8.5c-.41-.693-.85-1.366-1.32-2.019.33-.053.67-.1 1.01-.142.15.709.25 1.43.31 2.161zm-10.09 8.548a25.712 25.712 0 0 1 4.18 6.371 17.41 17.41 0 0 1-10.06 4.373c.54-4.465 2.69-8.398 5.88-10.744zm-7.85 10.812c-1.2-.025-2.37-.169-3.52-.427.58-5.713 3.02-10.681 6.79-14.379 1.14.773 2.21 1.635 3.2 2.576-3.57 2.739-5.93 7.209-6.47 12.23zm13.49-5.907a27.17 27.17 0 0 0-8.72-10.247 23.756 23.756 0 0 1 3.72-2.495 25.332 25.332 0 0 1 6.96 10.081 17.51 17.51 0 0 1-1.96 2.661zM111.971 921.907l-5.561-5.618a.969.969 0 0 0-1.38 0 .994.994 0 0 0 0 1.393l5.562 5.618c1.945 1.965 1.945 5.163 0 7.128a4.825 4.825 0 0 1-3.531 1.431 5.087 5.087 0 0 1-3.559-1.521l-7.298-7.374c-2.706-2.734-7.102-2.74-9.8-.014-2.705 2.733-2.705 7.181 0 9.914l2.617 2.644a19.423 19.423 0 0 0-6.44-1.091c-5.233 0-10.153 2.059-13.853 5.797-7.637 7.717-7.637 20.273 0 27.989 3.7 3.738 8.62 5.797 13.852 5.797 5.233 0 10.152-2.059 13.852-5.797 3.7-3.738 5.738-8.708 5.738-13.994 0-5.287-2.038-10.257-5.738-13.995-.087-.088-.175-.174-.263-.26l-8.386-8.483c-1.945-1.965-1.945-5.163 0-7.128 1.938-1.957 5.096-1.951 7.041.014l7.299 7.374a7.016 7.016 0 0 0 4.91 2.098 6.754 6.754 0 0 0 4.938-2.008c2.705-2.733 2.705-7.18 0-9.914zm-19.768 17.361a26.71 26.71 0 0 0-6.84 1.502.889.889 0 0 0-.144-.061 26.597 26.597 0 0 0-13.06-.882 17.388 17.388 0 0 1 10.421-3.439c3.47 0 6.786 1.006 9.623 2.88zm-19.917 11.661a26.657 26.657 0 0 0-7.159.746c.148-1.05.39-2.09.723-3.105l.052-.016c3.425-1.21 6.442-1.672 9.567-1.45l-.074.073a27.565 27.565 0 0 0-3.109 3.752zm5.125-5.597-.007-.001c-3.564-.517-6.883-.257-10.572.849a17.724 17.724 0 0 1 2.43-3.656c4.159-1.222 8.934-1.448 13.227-.514a26.99 26.99 0 0 0-5.078 3.322zm-12.456 8.422a24.75 24.75 0 0 1 6.1-.865 27.272 27.272 0 0 0-3.441 10.755 17.963 17.963 0 0 1-2.659-9.89zm4.466 12.321c.111-6.614 2.711-12.815 7.353-17.505 4.677-4.725 11.186-7.356 17.797-7.43a18.045 18.045 0 0 1 2.31 2.633c-13.125 1.031-23.627 11.501-24.825 24.741a17.925 17.925 0 0 1-2.635-2.439zm29.906-17.491c-5.901.778-11.114 3.216-15.126 7.087-4.182 4.035-6.733 9.339-7.411 15.38a17.366 17.366 0 0 1-2.865-1.306c.651-13.13 11.14-23.586 24.15-24.068.503.93.922 1.902 1.252 2.907zm-.498 12.581a27.363 27.363 0 0 0-6.228-8.713 25.547 25.547 0 0 1 4.108-1.377 25.325 25.325 0 0 1 3.33 5.693 17.778 17.778 0 0 1-1.21 4.397zm1.324-8.5c-.41-.693-.85-1.366-1.32-2.019.332-.053.668-.1 1.006-.142.148.709.253 1.43.314 2.161zm-10.095 8.548a25.26 25.26 0 0 1 4.178 6.371 17.39 17.39 0 0 1-10.058 4.373c.546-4.465 2.694-8.398 5.88-10.744zm-7.85 10.812a17.631 17.631 0 0 1-3.515-.427c.574-5.713 3.013-10.681 6.787-14.379a25.055 25.055 0 0 1 3.197 2.576c-3.564 2.739-5.931 7.209-6.469 12.23zm13.495-5.907a27.148 27.148 0 0 0-8.72-10.247 23.485 23.485 0 0 1 3.718-2.495 25.39 25.39 0 0 1 6.964 10.081 17.882 17.882 0 0 1-1.962 2.661zM1047.97 2085.91l-5.56-5.62a.96.96 0 0 0-1.38 0 .99.99 0 0 0 0 1.39l5.56 5.62a5.076 5.076 0 0 1 0 7.13c-.93.94-2.19 1.45-3.53 1.43a5.099 5.099 0 0 1-3.56-1.52l-7.3-7.38c-2.7-2.73-7.1-2.74-9.8-.01-2.7 2.73-2.7 7.18 0 9.91l2.62 2.65c-2.04-.72-4.21-1.09-6.44-1.09-5.23 0-10.15 2.06-13.85 5.79-7.639 7.72-7.639 20.28 0 27.99 3.7 3.74 8.62 5.8 13.85 5.8s10.15-2.06 13.85-5.8c3.7-3.73 5.74-8.7 5.74-13.99 0-5.29-2.04-10.26-5.74-14l-.26-.26-8.39-8.48c-1.94-1.96-1.94-5.16 0-7.13a4.95 4.95 0 0 1 7.04.02l7.3 7.37a7.035 7.035 0 0 0 4.91 2.1c1.88.03 3.63-.69 4.94-2.01 2.71-2.73 2.71-7.18 0-9.91zm-19.77 17.36c-2.35.2-4.65.71-6.84 1.5-.04-.02-.09-.04-.14-.06a26.476 26.476 0 0 0-13.06-.88c3-2.24 6.62-3.44 10.42-3.44 3.47 0 6.79 1 9.62 2.88zm-19.91 11.66c-2.41-.08-4.81.17-7.16.75.15-1.06.39-2.09.72-3.11.02-.01.03-.01.05-.02 3.43-1.21 6.44-1.67 9.57-1.45l-.08.08a27.555 27.555 0 0 0-3.1 3.75zm5.12-5.6h-.01c-3.56-.52-6.88-.26-10.57.85.65-1.29 1.46-2.52 2.43-3.66 4.16-1.22 8.94-1.44 13.23-.51-1.8.9-3.5 2.02-5.08 3.32zm-12.45 8.42c1.99-.54 4.04-.83 6.09-.86a27.433 27.433 0 0 0-3.44 10.75c-1.85-3-2.74-6.46-2.65-9.89zm4.46 12.33c.11-6.62 2.71-12.82 7.35-17.51 4.68-4.72 11.19-7.36 17.8-7.43.16.15.33.31.48.47.67.68 1.28 1.4 1.83 2.16-13.12 1.03-23.63 11.5-24.82 24.74a16.49 16.49 0 0 1-1.95-1.7c-.24-.24-.47-.48-.69-.73zm29.91-17.5c-5.9.78-11.12 3.22-15.13 7.09-4.18 4.04-6.73 9.34-7.41 15.38-.99-.35-1.95-.78-2.87-1.3.66-13.14 11.14-23.59 24.15-24.07.51.93.93 1.9 1.26 2.9zm-.5 12.59c-1.49-3.3-3.61-6.27-6.23-8.72 1.3-.56 2.68-1.03 4.11-1.37 1.35 1.73 2.47 3.64 3.33 5.69-.22 1.52-.62 3-1.21 4.4zm1.32-8.51c-.41-.69-.85-1.36-1.32-2.01.33-.06.67-.1 1.01-.15.15.71.25 1.43.31 2.16zm-10.09 8.55c1.69 1.89 3.1 4.04 4.18 6.37-2.83 2.52-6.32 4.04-10.06 4.38.54-4.47 2.69-8.4 5.88-10.75zm-7.85 10.82c-1.2-.03-2.37-.17-3.52-.43.58-5.71 3.02-10.68 6.79-14.38 1.14.77 2.21 1.63 3.2 2.57-3.57 2.74-5.93 7.21-6.47 12.24zm13.49-5.91c-2.01-4.1-5-7.62-8.72-10.25a23.66 23.66 0 0 1 3.72-2.49c3.09 2.71 5.5 6.19 6.96 10.08-.56.94-1.22 1.83-1.96 2.66zM166.971 2726.91l-5.561-5.62a.96.96 0 0 0-1.38 0 .99.99 0 0 0 0 1.39l5.562 5.62a5.086 5.086 0 0 1 0 7.13 4.832 4.832 0 0 1-3.531 1.43 5.095 5.095 0 0 1-3.559-1.52l-7.299-7.38c-2.705-2.73-7.101-2.74-9.799-.01-2.705 2.73-2.705 7.18 0 9.91l2.617 2.65a19.35 19.35 0 0 0-6.441-1.09c-5.232 0-10.152 2.06-13.852 5.79-7.637 7.72-7.637 20.28 0 27.99 3.7 3.74 8.62 5.8 13.852 5.8 5.233 0 10.152-2.06 13.852-5.8 3.7-3.73 5.738-8.7 5.738-13.99 0-5.29-2.038-10.26-5.738-14a7.113 7.113 0 0 1-.263-.26l-8.386-8.48c-1.945-1.96-1.945-5.16 0-7.13a4.95 4.95 0 0 1 7.041.02l7.299 7.37a7.014 7.014 0 0 0 4.91 2.1 6.752 6.752 0 0 0 4.938-2.01c2.705-2.73 2.705-7.18 0-9.91zm-19.768 17.36a26.8 26.8 0 0 0-6.84 1.5 4.217 4.217 0 0 0-.144-.06 26.479 26.479 0 0 0-13.061-.88 17.342 17.342 0 0 1 10.422-3.44c3.47 0 6.786 1 9.623 2.88zm-19.917 11.66c-2.408-.08-4.811.17-7.159.75.148-1.06.39-2.09.723-3.11.018-.01.035-.01.052-.02 3.425-1.21 6.442-1.67 9.567-1.45-.024.03-.05.05-.074.08a27.55 27.55 0 0 0-3.109 3.75zm5.125-5.6h-.007c-3.564-.52-6.883-.26-10.572.85a18.005 18.005 0 0 1 2.431-3.66c4.158-1.22 8.933-1.44 13.226-.51-1.798.9-3.501 2.02-5.078 3.32zm-12.456 8.42c1.999-.54 4.044-.83 6.099-.86a27.223 27.223 0 0 0-3.44 10.75c-1.859-3-2.744-6.46-2.659-9.89zm4.466 12.33c.111-6.62 2.711-12.82 7.353-17.51 4.677-4.72 11.186-7.36 17.797-7.43a18.18 18.18 0 0 1 2.311 2.63c-13.126 1.03-23.629 11.5-24.826 24.74a17.31 17.31 0 0 1-1.948-1.7c-.238-.24-.466-.48-.687-.73zm29.906-17.5c-5.901.78-11.114 3.22-15.126 7.09-4.182 4.04-6.733 9.34-7.411 15.38-.991-.35-1.95-.78-2.865-1.3.651-13.14 11.139-23.59 24.15-24.07.503.93.922 1.9 1.252 2.9zm-.498 12.59a27.265 27.265 0 0 0-6.228-8.72 25.022 25.022 0 0 1 4.107-1.37 25.009 25.009 0 0 1 3.331 5.69c-.215 1.52-.623 3-1.21 4.4zm1.324-8.51c-.41-.69-.851-1.36-1.321-2.01.333-.06.669-.1 1.007-.15.148.71.253 1.43.314 2.16zm-10.095 8.55a25.437 25.437 0 0 1 4.178 6.37 17.412 17.412 0 0 1-10.058 4.38c.546-4.47 2.694-8.4 5.88-10.75zm-7.85 10.82a17.851 17.851 0 0 1-3.515-.43c.574-5.71 3.013-10.68 6.787-14.38 1.139.77 2.207 1.63 3.197 2.57-3.564 2.74-5.931 7.21-6.469 12.24zm13.495-5.91c-2.008-4.1-5-7.62-8.72-10.25a23.412 23.412 0 0 1 3.718-2.49 25.298 25.298 0 0 1 6.964 10.08c-.566.94-1.221 1.83-1.962 2.66z" fill="#F3F3F3"/><path opacity=".1" d="m1340.97 3377.91-5.56-5.62a.96.96 0 0 0-1.38 0 .99.99 0 0 0 0 1.39l5.56 5.62a5.076 5.076 0 0 1 0 7.13c-.93.94-2.19 1.45-3.53 1.43a5.099 5.099 0 0 1-3.56-1.52l-7.3-7.38c-2.7-2.73-7.1-2.74-9.8-.01-2.7 2.73-2.7 7.18 0 9.91l2.62 2.65c-2.04-.72-4.21-1.09-6.44-1.09-5.23 0-10.15 2.06-13.85 5.79-7.64 7.72-7.64 20.28 0 27.99 3.7 3.74 8.62 5.8 13.85 5.8s10.15-2.06 13.85-5.8c3.7-3.73 5.74-8.7 5.74-13.99 0-5.29-2.04-10.26-5.74-14l-.26-.26-8.39-8.48c-1.94-1.96-1.94-5.16 0-7.13a4.95 4.95 0 0 1 7.04.02l7.3 7.37a7.035 7.035 0 0 0 4.91 2.1c1.88.03 3.63-.69 4.94-2.01 2.71-2.73 2.71-7.18 0-9.91zm-19.77 17.36c-2.35.2-4.65.71-6.84 1.5-.04-.02-.09-.04-.14-.06a26.476 26.476 0 0 0-13.06-.88c3-2.24 6.62-3.44 10.42-3.44 3.47 0 6.79 1 9.62 2.88zm-19.91 11.66c-2.41-.08-4.81.17-7.16.75.15-1.06.39-2.09.72-3.11.02-.01.03-.01.05-.02 3.43-1.21 6.44-1.67 9.57-1.45l-.08.08a27.555 27.555 0 0 0-3.1 3.75zm5.12-5.6h-.01c-3.56-.52-6.88-.26-10.57.85.65-1.29 1.46-2.52 2.43-3.66 4.16-1.22 8.94-1.44 13.23-.51-1.8.9-3.5 2.02-5.08 3.32zm-12.45 8.42c1.99-.54 4.04-.83 6.09-.86a27.433 27.433 0 0 0-3.44 10.75c-1.85-3-2.74-6.46-2.65-9.89zm4.46 12.33c.11-6.62 2.71-12.82 7.35-17.51 4.68-4.72 11.19-7.36 17.8-7.43.16.15.33.31.48.47.67.68 1.28 1.4 1.83 2.16-13.12 1.03-23.63 11.5-24.82 24.74a16.49 16.49 0 0 1-1.95-1.7c-.24-.24-.47-.48-.69-.73zm29.91-17.5c-5.9.78-11.12 3.22-15.13 7.09-4.18 4.04-6.73 9.34-7.41 15.38-.99-.35-1.95-.78-2.87-1.3.66-13.14 11.14-23.59 24.15-24.07.51.93.93 1.9 1.26 2.9zm-.5 12.59c-1.49-3.3-3.61-6.27-6.23-8.72 1.3-.56 2.68-1.03 4.11-1.37 1.35 1.73 2.47 3.64 3.33 5.69-.22 1.52-.62 3-1.21 4.4zm1.32-8.51c-.41-.69-.85-1.36-1.32-2.01.33-.06.67-.1 1.01-.15.15.71.25 1.43.31 2.16zm-10.09 8.55c1.69 1.89 3.1 4.04 4.18 6.37-2.83 2.52-6.32 4.04-10.06 4.38.54-4.47 2.69-8.4 5.88-10.75zm-7.85 10.82c-1.2-.03-2.37-.17-3.52-.43.58-5.71 3.02-10.68 6.79-14.38 1.14.77 2.21 1.63 3.2 2.57-3.57 2.74-5.93 7.21-6.47 12.24zm13.49-5.91c-2.01-4.1-5-7.62-8.72-10.25a23.66 23.66 0 0 1 3.72-2.49c3.09 2.71 5.5 6.19 6.96 10.08-.56.94-1.22 1.83-1.96 2.66z" fill="#FFBD54"/><path d="m533.971 3407.91-5.561-5.62a.96.96 0 0 0-1.38 0 .99.99 0 0 0 0 1.39l5.562 5.62a5.086 5.086 0 0 1 0 7.13 4.832 4.832 0 0 1-3.531 1.43 5.095 5.095 0 0 1-3.559-1.52l-7.299-7.38c-2.705-2.73-7.101-2.74-9.799-.01-2.705 2.73-2.705 7.18 0 9.91l2.617 2.65a19.35 19.35 0 0 0-6.441-1.09c-5.232 0-10.152 2.06-13.852 5.79-7.637 7.72-7.637 20.28 0 27.99 3.7 3.74 8.62 5.8 13.852 5.8 5.233 0 10.152-2.06 13.852-5.8 3.7-3.73 5.738-8.7 5.738-13.99 0-5.29-2.038-10.26-5.738-14a7.113 7.113 0 0 1-.263-.26l-8.386-8.48c-1.945-1.96-1.945-5.16 0-7.13a4.95 4.95 0 0 1 7.041.02l7.299 7.37a7.014 7.014 0 0 0 4.91 2.1 6.752 6.752 0 0 0 4.938-2.01c2.705-2.73 2.705-7.18 0-9.91zm-19.768 17.36a26.8 26.8 0 0 0-6.84 1.5 4.217 4.217 0 0 0-.144-.06 26.479 26.479 0 0 0-13.061-.88 17.342 17.342 0 0 1 10.422-3.44c3.47 0 6.786 1 9.623 2.88zm-19.917 11.66c-2.408-.08-4.811.17-7.159.75.148-1.06.39-2.09.723-3.11.018-.01.035-.01.052-.02 3.425-1.21 6.442-1.67 9.567-1.45-.024.03-.05.05-.074.08a27.55 27.55 0 0 0-3.109 3.75zm5.125-5.6h-.007c-3.564-.52-6.883-.26-10.572.85a18.005 18.005 0 0 1 2.431-3.66c4.158-1.22 8.933-1.44 13.226-.51-1.798.9-3.501 2.02-5.078 3.32zm-12.456 8.42c1.999-.54 4.044-.83 6.099-.86a27.223 27.223 0 0 0-3.44 10.75c-1.859-3-2.744-6.46-2.659-9.89zm4.466 12.33c.111-6.62 2.711-12.82 7.353-17.51 4.677-4.72 11.186-7.36 17.797-7.43a18.18 18.18 0 0 1 2.311 2.63c-13.126 1.03-23.629 11.5-24.826 24.74a17.31 17.31 0 0 1-1.948-1.7c-.238-.24-.466-.48-.687-.73zm29.906-17.5c-5.901.78-11.114 3.22-15.126 7.09-4.182 4.04-6.733 9.34-7.411 15.38-.991-.35-1.95-.78-2.865-1.3.651-13.14 11.139-23.59 24.15-24.07.503.93.922 1.9 1.252 2.9zm-.498 12.59a27.265 27.265 0 0 0-6.228-8.72 25.022 25.022 0 0 1 4.107-1.37 25.009 25.009 0 0 1 3.331 5.69c-.215 1.52-.623 3-1.21 4.4zm1.324-8.51c-.41-.69-.851-1.36-1.321-2.01.333-.06.669-.1 1.007-.15.148.71.253 1.43.314 2.16zm-10.095 8.55a25.437 25.437 0 0 1 4.178 6.37 17.412 17.412 0 0 1-10.058 4.38c.546-4.47 2.694-8.4 5.88-10.75zm-7.85 10.82a17.851 17.851 0 0 1-3.515-.43c.574-5.71 3.013-10.68 6.787-14.38 1.139.77 2.207 1.63 3.197 2.57-3.564 2.74-5.931 7.21-6.469 12.24zm13.495-5.91c-2.008-4.1-5-7.62-8.72-10.25a23.412 23.412 0 0 1 3.718-2.49 25.298 25.298 0 0 1 6.964 10.08c-.566.94-1.221 1.83-1.962 2.66zM133.971 4252.91l-5.561-5.62a.96.96 0 0 0-1.38 0 .99.99 0 0 0 0 1.39l5.562 5.62a5.086 5.086 0 0 1 0 7.13 4.832 4.832 0 0 1-3.531 1.43 5.095 5.095 0 0 1-3.559-1.52l-7.299-7.38c-2.705-2.73-7.101-2.74-9.799-.01-2.705 2.73-2.705 7.18 0 9.91l2.617 2.65a19.35 19.35 0 0 0-6.441-1.09c-5.232 0-10.152 2.06-13.852 5.79-7.637 7.72-7.637 20.28 0 27.99 3.7 3.74 8.62 5.8 13.852 5.8 5.233 0 10.152-2.06 13.852-5.8 3.7-3.73 5.738-8.7 5.738-13.99 0-5.29-2.038-10.26-5.738-14-.087-.08-.175-.17-.263-.26l-8.386-8.48c-1.945-1.96-1.945-5.16 0-7.13a4.95 4.95 0 0 1 7.041.02l7.299 7.37a7.014 7.014 0 0 0 4.91 2.1 6.752 6.752 0 0 0 4.938-2.01c2.705-2.73 2.705-7.18 0-9.91zm-19.768 17.36a26.8 26.8 0 0 0-6.84 1.5 4.217 4.217 0 0 0-.144-.06 26.479 26.479 0 0 0-13.06-.88 17.342 17.342 0 0 1 10.421-3.44c3.47 0 6.786 1 9.623 2.88zm-19.917 11.66c-2.408-.08-4.81.17-7.159.75.148-1.06.39-2.09.723-3.11.018-.01.035-.01.052-.02 3.425-1.21 6.442-1.67 9.567-1.45-.024.03-.05.05-.074.08a27.549 27.549 0 0 0-3.109 3.75zm5.125-5.6h-.007c-3.564-.52-6.883-.26-10.572.85a17.993 17.993 0 0 1 2.43-3.66c4.159-1.22 8.934-1.44 13.227-.51-1.798.9-3.501 2.02-5.078 3.32zm-12.456 8.42c1.999-.54 4.044-.83 6.1-.86a27.228 27.228 0 0 0-3.441 10.75c-1.859-3-2.745-6.46-2.659-9.89zm4.466 12.33c.111-6.62 2.711-12.82 7.353-17.51 4.677-4.72 11.186-7.36 17.797-7.43a18.18 18.18 0 0 1 2.311 2.63c-13.126 1.03-23.628 11.5-24.825 24.74a17.363 17.363 0 0 1-1.95-1.7c-.237-.24-.465-.48-.686-.73zm29.906-17.5c-5.901.78-11.114 3.22-15.126 7.09-4.182 4.04-6.733 9.34-7.411 15.38a17.76 17.76 0 0 1-2.865-1.3c.651-13.14 11.139-23.59 24.15-24.07.503.93.922 1.9 1.252 2.9zm-.498 12.59a27.265 27.265 0 0 0-6.228-8.72 25.022 25.022 0 0 1 4.107-1.37 25.009 25.009 0 0 1 3.331 5.69c-.215 1.52-.623 3-1.21 4.4zm1.324-8.51c-.41-.69-.851-1.36-1.321-2.01.333-.06.669-.1 1.007-.15.148.71.253 1.43.314 2.16zm-10.095 8.55a25.437 25.437 0 0 1 4.178 6.37 17.412 17.412 0 0 1-10.058 4.38c.546-4.47 2.694-8.4 5.88-10.75zm-7.85 10.82a17.851 17.851 0 0 1-3.515-.43c.574-5.71 3.013-10.68 6.787-14.38 1.139.77 2.207 1.63 3.197 2.57-3.564 2.74-5.931 7.21-6.469 12.24zm13.495-5.91c-2.008-4.1-5-7.62-8.72-10.25a23.412 23.412 0 0 1 3.718-2.49 25.298 25.298 0 0 1 6.964 10.08c-.566.94-1.221 1.83-1.962 2.66zM1340.97 4314.91l-5.56-5.62a.96.96 0 0 0-1.38 0 .99.99 0 0 0 0 1.39l5.56 5.62a5.076 5.076 0 0 1 0 7.13c-.93.94-2.19 1.45-3.53 1.43a5.099 5.099 0 0 1-3.56-1.52l-7.3-7.38c-2.7-2.73-7.1-2.74-9.8-.01-2.7 2.73-2.7 7.18 0 9.91l2.62 2.65c-2.04-.72-4.21-1.09-6.44-1.09-5.23 0-10.15 2.06-13.85 5.79-7.64 7.72-7.64 20.28 0 27.99 3.7 3.74 8.62 5.8 13.85 5.8s10.15-2.06 13.85-5.8c3.7-3.73 5.74-8.7 5.74-13.99 0-5.29-2.04-10.26-5.74-14l-.26-.26-8.39-8.48c-1.94-1.96-1.94-5.16 0-7.13a4.95 4.95 0 0 1 7.04.02l7.3 7.37a7.035 7.035 0 0 0 4.91 2.1c1.88.03 3.63-.69 4.94-2.01 2.71-2.73 2.71-7.18 0-9.91zm-19.77 17.36c-2.35.2-4.65.71-6.84 1.5a1.96 1.96 0 0 0-.14-.06 26.476 26.476 0 0 0-13.06-.88c3-2.24 6.62-3.44 10.42-3.44 3.47 0 6.79 1 9.62 2.88zm-19.91 11.66c-2.41-.08-4.81.17-7.16.75.15-1.06.39-2.09.72-3.11.02-.01.03-.01.05-.02 3.43-1.21 6.44-1.67 9.57-1.45l-.08.08a27.555 27.555 0 0 0-3.1 3.75zm5.12-5.6h-.01c-3.56-.52-6.88-.26-10.57.85.65-1.29 1.46-2.52 2.43-3.66 4.16-1.22 8.94-1.44 13.23-.51-1.8.9-3.5 2.02-5.08 3.32zm-12.45 8.42c1.99-.54 4.04-.83 6.09-.86a27.433 27.433 0 0 0-3.44 10.75c-1.85-3-2.74-6.46-2.65-9.89zm4.46 12.33c.11-6.62 2.71-12.82 7.35-17.51 4.68-4.72 11.19-7.36 17.8-7.43.16.15.33.31.48.47.67.68 1.28 1.4 1.83 2.16-13.12 1.03-23.63 11.5-24.82 24.74a16.49 16.49 0 0 1-1.95-1.7c-.24-.24-.47-.48-.69-.73zm29.91-17.5c-5.9.78-11.12 3.22-15.13 7.09-4.18 4.04-6.73 9.34-7.41 15.38-.99-.35-1.95-.78-2.87-1.3.66-13.14 11.14-23.59 24.15-24.07.51.93.93 1.9 1.26 2.9zm-.5 12.59c-1.49-3.3-3.61-6.27-6.23-8.72 1.3-.56 2.68-1.03 4.11-1.37 1.35 1.73 2.47 3.64 3.33 5.69-.22 1.52-.62 3-1.21 4.4zm1.32-8.51c-.41-.69-.85-1.36-1.32-2.01.33-.06.67-.1 1.01-.15.15.71.25 1.43.31 2.16zm-10.09 8.55c1.69 1.89 3.1 4.04 4.18 6.37-2.83 2.52-6.32 4.04-10.06 4.38.54-4.47 2.69-8.4 5.88-10.75zm-7.85 10.82c-1.2-.03-2.37-.17-3.52-.43.58-5.71 3.02-10.68 6.79-14.38 1.14.77 2.21 1.63 3.2 2.57-3.57 2.74-5.93 7.21-6.47 12.24zm13.49-5.91c-2.01-4.1-5-7.62-8.72-10.25a23.66 23.66 0 0 1 3.72-2.49c3.09 2.71 5.5 6.19 6.96 10.08-.56.94-1.22 1.83-1.96 2.66zM74.97 1777.91l-5.56-5.62a.959.959 0 0 0-1.38 0 .988.988 0 0 0 0 1.39l5.562 5.62a5.085 5.085 0 0 1 0 7.13 4.832 4.832 0 0 1-3.53 1.43 5.094 5.094 0 0 1-3.56-1.52l-7.298-7.38c-2.706-2.73-7.102-2.74-9.8-.01-2.705 2.73-2.705 7.18 0 9.91l2.617 2.65a19.346 19.346 0 0 0-6.44-1.09c-5.233 0-10.153 2.06-13.853 5.79-7.638 7.72-7.638 20.28 0 27.99 3.7 3.74 8.62 5.8 13.852 5.8 5.233 0 10.152-2.06 13.852-5.8 3.7-3.73 5.738-8.7 5.738-13.99 0-5.29-2.038-10.26-5.738-14a7.446 7.446 0 0 1-.263-.26l-8.386-8.48c-1.945-1.96-1.945-5.16 0-7.13a4.951 4.951 0 0 1 7.041.02l7.299 7.37a7.014 7.014 0 0 0 4.91 2.1 6.75 6.75 0 0 0 4.938-2.01c2.705-2.73 2.705-7.18 0-9.91zm-19.767 17.36c-2.357.2-4.652.71-6.84 1.5a4.494 4.494 0 0 0-.144-.06 26.48 26.48 0 0 0-13.06-.88 17.342 17.342 0 0 1 10.421-3.44c3.47 0 6.786 1 9.623 2.88zm-19.917 11.66c-2.408-.08-4.81.17-7.159.75.148-1.06.39-2.09.723-3.11.018-.01.035-.01.052-.02 3.425-1.21 6.442-1.67 9.567-1.45-.024.03-.05.05-.074.08a27.549 27.549 0 0 0-3.109 3.75zm5.125-5.6h-.007c-3.564-.52-6.884-.26-10.572.85a17.993 17.993 0 0 1 2.43-3.66c4.159-1.22 8.934-1.44 13.227-.51-1.798.9-3.5 2.02-5.078 3.32zm-12.456 8.42c1.999-.54 4.044-.83 6.1-.86a27.228 27.228 0 0 0-3.441 10.75c-1.858-3-2.745-6.46-2.659-9.89zm4.466 12.33c.111-6.62 2.711-12.82 7.353-17.51 4.677-4.72 11.186-7.36 17.797-7.43a18.226 18.226 0 0 1 2.31 2.63c-13.125 1.03-23.627 11.5-24.825 24.74a17.363 17.363 0 0 1-1.948-1.7c-.238-.24-.466-.48-.687-.73zm29.906-17.5c-5.901.78-11.114 3.22-15.126 7.09-4.182 4.04-6.733 9.34-7.411 15.38a17.76 17.76 0 0 1-2.865-1.3c.651-13.14 11.14-23.59 24.15-24.07.503.93.922 1.9 1.252 2.9zm-.498 12.59a27.271 27.271 0 0 0-6.228-8.72 25.047 25.047 0 0 1 4.108-1.37 25.008 25.008 0 0 1 3.33 5.69c-.215 1.52-.623 3-1.21 4.4zm1.324-8.51c-.41-.69-.85-1.36-1.32-2.01.332-.06.668-.1 1.006-.15.148.71.253 1.43.314 2.16zm-10.095 8.55a25.433 25.433 0 0 1 4.178 6.37 17.411 17.411 0 0 1-10.058 4.38c.546-4.47 2.694-8.4 5.88-10.75zm-7.85 10.82a17.856 17.856 0 0 1-3.515-.43c.574-5.71 3.013-10.68 6.787-14.38a24.84 24.84 0 0 1 3.197 2.57c-3.564 2.74-5.931 7.21-6.469 12.24zm13.495-5.91c-2.008-4.1-5-7.62-8.72-10.25a23.39 23.39 0 0 1 3.718-2.49 25.296 25.296 0 0 1 6.964 10.08 17.72 17.72 0 0 1-1.962 2.66z" fill="#F3F3F3"/><path opacity=".07" d="m1103.97 1288.91-5.56-5.62a.96.96 0 0 0-1.38 0 .99.99 0 0 0 0 1.39l5.56 5.62a5.076 5.076 0 0 1 0 7.13c-.93.94-2.19 1.45-3.53 1.43a5.099 5.099 0 0 1-3.56-1.52l-7.3-7.38c-2.7-2.73-7.1-2.74-9.8-.01-2.7 2.73-2.7 7.18 0 9.91l2.62 2.65c-2.04-.72-4.21-1.09-6.44-1.09-5.23 0-10.15 2.06-13.85 5.79-7.64 7.72-7.64 20.28 0 27.99 3.7 3.74 8.62 5.8 13.85 5.8s10.15-2.06 13.85-5.8c3.7-3.73 5.74-8.7 5.74-13.99 0-5.29-2.04-10.26-5.74-14l-.26-.26-8.39-8.48c-1.94-1.96-1.94-5.16 0-7.13a4.95 4.95 0 0 1 7.04.02l7.3 7.37a7.035 7.035 0 0 0 4.91 2.1c1.88.03 3.63-.69 4.94-2.01 2.71-2.73 2.71-7.18 0-9.91zm-19.77 17.36c-2.35.2-4.65.71-6.84 1.5-.04-.02-.09-.04-.14-.06a26.476 26.476 0 0 0-13.06-.88c3-2.24 6.62-3.44 10.42-3.44 3.47 0 6.79 1 9.62 2.88zm-19.91 11.66c-2.41-.08-4.81.17-7.16.75.15-1.06.39-2.09.72-3.11.02-.01.03-.01.05-.02 3.43-1.21 6.44-1.67 9.57-1.45l-.08.08a27.555 27.555 0 0 0-3.1 3.75zm5.12-5.6h-.01c-3.56-.52-6.88-.26-10.57.85.65-1.29 1.46-2.52 2.43-3.66 4.16-1.22 8.94-1.44 13.23-.51-1.8.9-3.5 2.02-5.08 3.32zm-12.45 8.42c1.99-.54 4.04-.83 6.09-.86a27.433 27.433 0 0 0-3.44 10.75c-1.85-3-2.74-6.46-2.65-9.89zm4.46 12.33c.11-6.62 2.71-12.82 7.35-17.51 4.68-4.72 11.19-7.36 17.8-7.43.16.15.33.31.48.47.67.68 1.28 1.4 1.83 2.16-13.12 1.03-23.63 11.5-24.82 24.74a16.49 16.49 0 0 1-1.95-1.7c-.24-.24-.47-.48-.69-.73zm29.91-17.5c-5.9.78-11.12 3.22-15.13 7.09-4.18 4.04-6.73 9.34-7.41 15.38-.99-.35-1.95-.78-2.87-1.3.66-13.14 11.14-23.59 24.15-24.07.51.93.93 1.9 1.26 2.9zm-.5 12.59c-1.49-3.3-3.61-6.27-6.23-8.72 1.3-.56 2.68-1.03 4.11-1.37 1.35 1.73 2.47 3.64 3.33 5.69-.22 1.52-.62 3-1.21 4.4zm1.32-8.51c-.41-.69-.85-1.36-1.32-2.01.33-.06.67-.1 1.01-.15.15.71.25 1.43.31 2.16zm-10.09 8.55c1.69 1.89 3.1 4.04 4.18 6.37-2.83 2.52-6.32 4.04-10.06 4.38.54-4.47 2.69-8.4 5.88-10.75zm-7.85 10.82c-1.2-.03-2.37-.17-3.52-.43.58-5.71 3.02-10.68 6.79-14.38 1.14.77 2.21 1.63 3.2 2.57-3.57 2.74-5.93 7.21-6.47 12.24zm13.49-5.91c-2.01-4.1-5-7.62-8.72-10.25a23.66 23.66 0 0 1 3.72-2.49c3.09 2.71 5.5 6.19 6.96 10.08-.56.94-1.22 1.83-1.96 2.66z" fill="#FFBD54"/><path d="M109.653 6.722 103.219.328a1.134 1.134 0 0 0-1.596 0 1.117 1.117 0 0 0 0 1.586l6.434 6.393a5.717 5.717 0 0 1 0 8.111c-1.079 1.073-2.532 1.65-4.084 1.629a5.935 5.935 0 0 1-4.118-1.732l-8.443-8.39c-3.13-3.111-8.216-3.118-11.337-.016a7.951 7.951 0 0 0 0 11.281l3.028 3.009a22.82 22.82 0 0 0-7.451-1.242c-6.053 0-11.745 2.343-16.025 6.597-8.836 8.781-8.836 23.069 0 31.85C63.907 63.657 69.598 66 75.652 66c6.053 0 11.744-2.343 16.025-6.596 4.28-4.254 6.637-9.91 6.637-15.925 0-6.016-2.357-11.671-6.637-15.925-.101-.1-.203-.198-.306-.296l-9.7-9.653a5.717 5.717 0 0 1 0-8.111c2.241-2.228 5.895-2.22 8.145.016l8.444 8.39a8.184 8.184 0 0 0 5.68 2.388c2.166.03 4.198-.78 5.713-2.285a7.952 7.952 0 0 0 0-11.281zM86.784 26.477c-2.727.23-5.382.806-7.913 1.71a1.13 1.13 0 0 0-.166-.07 31.257 31.257 0 0 0-15.11-1.003c3.476-2.541 7.66-3.914 12.057-3.914 4.013 0 7.85 1.145 11.132 3.277zm-23.041 13.27a31.31 31.31 0 0 0-8.282.85c.171-1.196.45-2.38.837-3.535.02-.005.04-.01.06-.017 3.961-1.377 7.452-1.903 11.067-1.651l-.086.083a31.526 31.526 0 0 0-3.596 4.27zm5.928-6.37h-.008c-4.122-.589-7.963-.292-12.23.966a20.134 20.134 0 0 1 2.812-4.16c4.81-1.39 10.335-1.648 15.3-.585a31.206 31.206 0 0 0-5.874 3.78zm-14.409 9.584a29.1 29.1 0 0 1 7.056-.984 30.682 30.682 0 0 0-3.98 12.238 20.186 20.186 0 0 1-3.076-11.254zm5.166 14.021c.129-7.526 3.137-14.583 8.507-19.92 5.41-5.376 12.94-8.37 20.589-8.455a20.576 20.576 0 0 1 2.673 2.996c-15.185 1.174-27.335 13.088-28.72 28.155a20.651 20.651 0 0 1-3.049-2.776zm34.597-19.904c-6.827.886-12.857 3.66-17.499 8.065-4.837 4.59-7.789 10.627-8.573 17.5a20.22 20.22 0 0 1-3.315-1.484c.754-14.942 12.887-26.84 27.939-27.389a19.961 19.961 0 0 1 1.448 3.308zm-.576 14.317a31.15 31.15 0 0 0-7.205-9.915 29.865 29.865 0 0 1 4.752-1.567 28.73 28.73 0 0 1 3.853 6.478 19.99 19.99 0 0 1-1.4 5.004zm1.532-9.673a30.935 30.935 0 0 0-1.528-2.297c.385-.06.773-.114 1.165-.161.17.806.292 1.627.363 2.458zm-11.68 9.727a28.714 28.714 0 0 1 4.835 7.25A20.287 20.287 0 0 1 77.5 63.675c.632-5.081 3.116-9.556 6.802-12.226zm-9.08 12.304a20.663 20.663 0 0 1-4.067-.486c.665-6.501 3.487-12.154 7.853-16.363a29.005 29.005 0 0 1 3.698 2.931c-4.123 3.117-6.862 8.205-7.484 13.918zm15.612-6.723a31.031 31.031 0 0 0-10.088-11.66 27.188 27.188 0 0 1 4.301-2.838 28.88 28.88 0 0 1 8.056 11.471 20.353 20.353 0 0 1-2.27 3.027zM995.929 82.023a11.912 11.912 0 0 0-11.475.266 11.912 11.912 0 0 0-5.967 9.805l-.458 9.858a7.52 7.52 0 0 0 1.281 4.578 7.523 7.523 0 0 0 3.757 2.913 7.53 7.53 0 0 0 4.754.096 7.516 7.516 0 0 0 3.874-2.757l.065-.088a14.883 14.883 0 0 1 10.29-5.887 7.546 7.546 0 0 0 2.95-.962c.49-.282.95-.622 1.37-1.014a7.52 7.52 0 0 0 2.29-4.165c.3-1.61.08-3.24-.64-4.711a7.537 7.537 0 0 0-3.32-3.4l-8.771-4.532zM975.111 94.03c1.068-1.32 1.472-3.027 1.138-4.809-.318-1.695-1.277-3.263-2.701-4.414-1.424-1.15-3.158-1.758-4.882-1.714-1.812.046-3.397.799-4.462 2.118-2.144 2.65-1.443 6.787 1.565 9.221 2.398 1.936 5.545 2.215 7.808.908a5.493 5.493 0 0 0 1.534-1.31zM980.807 83.225c3.445-1.99 4.404-6.801 2.138-10.727-2.267-3.926-6.914-5.502-10.36-3.513-3.445 1.99-4.404 6.802-2.137 10.728s6.913 5.501 10.359 3.512zM992.608 78.744a5.87 5.87 0 0 0 1.759-.67c2.513-1.45 3.906-4.693 3.218-8.043-.396-1.929-1.419-3.619-2.881-4.76-1.53-1.193-3.351-1.65-5.128-1.284-1.777.365-3.27 1.503-4.205 3.203-.894 1.624-1.167 3.581-.77 5.51.836 4.067 4.428 6.779 8.007 6.044zM1005.29 70.315c-3.39-.383-6.508 2.429-6.947 6.27-.436 3.842 1.967 7.282 5.357 7.67 1.23.14 2.43-.143 3.48-.748 1.82-1.052 3.18-3.079 3.46-5.523.44-3.841-1.97-7.281-5.35-7.669z" fill="#F3F3F3"/><g opacity=".5" fill="#FFBD54" fill-opacity=".09"><path d="M588.684 246.149a11.54 11.54 0 0 0-11.117.258 11.54 11.54 0 0 0-5.781 9.498l-.444 9.552a7.289 7.289 0 0 0 1.241 4.435 7.282 7.282 0 0 0 3.64 2.821 7.288 7.288 0 0 0 4.606.094 7.282 7.282 0 0 0 3.753-2.671l.063-.086a14.42 14.42 0 0 1 9.964-5.703 7.284 7.284 0 0 0 4.189-1.914 7.292 7.292 0 0 0 2.222-4.036 7.284 7.284 0 0 0-.622-4.563 7.288 7.288 0 0 0-3.221-3.294l-8.493-4.391zM568.515 257.781c1.035-1.278 1.426-2.932 1.102-4.658-.308-1.643-1.237-3.161-2.616-4.276-1.38-1.115-3.06-1.704-4.73-1.662-1.755.045-3.291.774-4.323 2.052-2.077 2.569-1.397 6.576 1.517 8.934 2.323 1.876 5.371 2.146 7.564.88a5.331 5.331 0 0 0 1.486-1.27zM574.033 247.314c3.338-1.928 4.267-6.59 2.072-10.393-2.197-3.804-6.699-5.33-10.037-3.403-3.338 1.927-4.266 6.589-2.07 10.393 2.195 3.803 6.697 5.33 10.035 3.403zM585.466 242.972a5.707 5.707 0 0 0 1.705-.648c2.434-1.406 3.784-4.547 3.117-7.793-.384-1.869-1.375-3.506-2.791-4.611-1.482-1.157-3.246-1.599-4.968-1.245-1.722.354-3.169 1.456-4.074 3.104-.866 1.573-1.13 3.469-.746 5.337.81 3.941 4.29 6.568 7.757 5.856zM597.75 234.807l-.001-.001c-3.284-.371-6.301 2.353-6.726 6.075-.423 3.722 1.904 7.055 5.185 7.43 1.196.137 2.358-.138 3.372-.724 1.767-1.02 3.084-2.983 3.356-5.351.422-3.721-1.904-7.054-5.186-7.429z"/></g><g opacity=".5" fill="#F3F3F3"><path d="M1385.61 336.412a14.202 14.202 0 0 0-13.68.317 14.213 14.213 0 0 0-7.12 11.69l-.54 11.755c-.1 1.95.43 3.837 1.52 5.457a8.97 8.97 0 0 0 4.48 3.473c1.84.651 3.8.69 5.67.115a8.968 8.968 0 0 0 4.62-3.287l.08-.105a17.73 17.73 0 0 1 12.26-7.019 8.963 8.963 0 0 0 3.52-1.147 9.056 9.056 0 0 0 1.63-1.209 8.94 8.94 0 0 0 2.74-4.966c.36-1.92.09-3.862-.77-5.617a8.993 8.993 0 0 0-3.96-4.053l-10.45-5.404zM1360.79 350.728c1.27-1.573 1.75-3.609 1.35-5.734-.38-2.021-1.52-3.89-3.22-5.262-1.7-1.371-3.76-2.097-5.82-2.045-2.16.056-4.05.953-5.32 2.526-2.55 3.16-1.72 8.092 1.87 10.994 2.86 2.308 6.61 2.641 9.31 1.083a6.558 6.558 0 0 0 1.83-1.562zM1367.58 337.845c4.1-2.372 5.25-8.109 2.55-12.789-2.71-4.682-8.25-6.561-12.36-4.189-4.1 2.371-5.25 8.109-2.54 12.791 2.7 4.68 8.24 6.559 12.35 4.187zM1381.65 332.502a7.13 7.13 0 0 0 2.1-.798c2.99-1.73 4.65-5.596 3.83-9.59-.47-2.3-1.69-4.315-3.43-5.675-1.83-1.423-4-1.967-6.12-1.532-2.12.436-3.9 1.792-5.01 3.82-1.07 1.936-1.39 4.269-.92 6.568 1 4.851 5.28 8.083 9.55 7.207zM1396.77 322.453l-.01-.001c-4.04-.457-7.75 2.896-8.27 7.477-.52 4.58 2.34 8.682 6.38 9.143 1.47.169 2.9-.17 4.15-.89 2.17-1.256 3.79-3.671 4.13-6.585.52-4.581-2.35-8.683-6.38-9.144z"/></g><g opacity=".5" fill="#F3F3F3"><path d="M676.326 570.198a11.4 11.4 0 0 0-10.983.254 11.397 11.397 0 0 0-5.711 9.384l-.439 9.436a7.198 7.198 0 0 0 1.226 4.381 7.198 7.198 0 0 0 3.597 2.788 7.206 7.206 0 0 0 4.55.093 7.202 7.202 0 0 0 3.708-2.639l.062-.085a14.245 14.245 0 0 1 9.844-5.634 7.21 7.21 0 0 0 4.138-1.892 7.195 7.195 0 0 0 2.196-3.986 7.207 7.207 0 0 0-.615-4.509 7.197 7.197 0 0 0-3.182-3.253l-8.391-4.338zM656.401 581.689c1.022-1.262 1.409-2.897 1.089-4.602-.305-1.623-1.223-3.123-2.586-4.225-1.363-1.1-3.022-1.683-4.673-1.641-1.733.045-3.251.765-4.27 2.027-2.052 2.538-1.381 6.496 1.498 8.826 2.295 1.853 5.307 2.12 7.474.869a5.262 5.262 0 0 0 1.468-1.254zM661.852 571.348c3.298-1.904 4.216-6.51 2.047-10.267-2.17-3.758-6.618-5.267-9.916-3.363-3.298 1.904-4.215 6.51-2.045 10.268 2.169 3.758 6.616 5.265 9.914 3.362zM673.147 567.058h.001a5.625 5.625 0 0 0 1.683-.64c2.405-1.389 3.739-4.492 3.08-7.699-.379-1.846-1.359-3.464-2.757-4.555-1.465-1.143-3.207-1.58-4.908-1.23-1.702.35-3.131 1.439-4.026 3.066-.855 1.555-1.116 3.428-.737 5.273.801 3.894 4.239 6.489 7.664 5.785zM685.283 558.991h-.001c-3.245-.367-6.225 2.325-6.645 6.002-.418 3.677 1.881 6.969 5.122 7.34 1.182.135 2.33-.137 3.332-.715 1.745-1.008 3.047-2.947 3.315-5.286.417-3.677-1.881-6.97-5.123-7.341z"/></g><g opacity=".5" fill="#F3F3F3"><path d="M800.217 1179.82a11.4 11.4 0 0 0-10.982.26 11.388 11.388 0 0 0-5.712 9.38l-.438 9.44a7.2 7.2 0 0 0 1.226 4.38 7.244 7.244 0 0 0 3.596 2.79c1.478.52 3.052.55 4.55.09a7.21 7.21 0 0 0 3.708-2.64l.062-.09c2.35-3.15 5.932-5.2 9.844-5.63a7.134 7.134 0 0 0 2.826-.92c.468-.27.908-.6 1.313-.97a7.225 7.225 0 0 0 2.195-3.99c.287-1.54.074-3.1-.615-4.51a7.229 7.229 0 0 0-3.182-3.25l-8.391-4.34zM780.292 1191.31c1.022-1.26 1.409-2.89 1.089-4.6-.304-1.62-1.222-3.12-2.585-4.22-1.363-1.1-3.023-1.69-4.673-1.64-1.734.04-3.251.76-4.271 2.02-2.052 2.54-1.38 6.5 1.499 8.83 2.294 1.85 5.306 2.12 7.473.87a5.235 5.235 0 0 0 1.468-1.26zM785.743 1180.97c3.298-1.9 4.216-6.51 2.047-10.26-2.17-3.76-6.618-5.27-9.916-3.37-3.297 1.91-4.215 6.51-2.045 10.27 2.169 3.76 6.617 5.27 9.914 3.36zM797.039 1176.68a5.46 5.46 0 0 0 1.684-.64c2.405-1.39 3.738-4.49 3.079-7.7-.379-1.84-1.358-3.46-2.757-4.55-1.464-1.14-3.207-1.58-4.908-1.23-1.701.35-3.131 1.44-4.025 3.06-.855 1.56-1.117 3.43-.737 5.28.8 3.89 4.238 6.49 7.664 5.78zM809.174 1168.62h-.001c-3.244-.37-6.225 2.32-6.645 6-.417 3.67 1.881 6.97 5.122 7.34a5.426 5.426 0 0 0 3.332-.72c1.746-1.01 3.047-2.94 3.315-5.28.417-3.68-1.88-6.97-5.123-7.34z"/></g><g opacity=".09" fill="#C3C3C3"><path d="M190.217 1116.82a11.4 11.4 0 0 0-10.982.26 11.388 11.388 0 0 0-5.712 9.38l-.438 9.44a7.2 7.2 0 0 0 1.226 4.38 7.244 7.244 0 0 0 3.596 2.79c1.478.52 3.052.55 4.55.09a7.21 7.21 0 0 0 3.708-2.64l.062-.09c2.35-3.15 5.932-5.2 9.844-5.63a7.134 7.134 0 0 0 2.826-.92c.468-.27.908-.6 1.313-.97a7.225 7.225 0 0 0 2.195-3.99c.287-1.54.074-3.1-.615-4.51a7.229 7.229 0 0 0-3.182-3.25l-8.391-4.34zM170.292 1128.31c1.022-1.26 1.409-2.89 1.089-4.6-.304-1.62-1.222-3.12-2.585-4.22-1.363-1.1-3.023-1.69-4.673-1.64-1.734.04-3.251.76-4.271 2.02-2.052 2.54-1.38 6.5 1.499 8.83 2.294 1.85 5.306 2.12 7.473.87a5.235 5.235 0 0 0 1.468-1.26zM175.743 1117.97c3.298-1.9 4.216-6.51 2.047-10.26-2.17-3.76-6.618-5.27-9.916-3.37-3.297 1.91-4.215 6.51-2.045 10.27 2.169 3.76 6.617 5.27 9.914 3.36zM187.039 1113.68a5.46 5.46 0 0 0 1.684-.64c2.405-1.39 3.738-4.49 3.079-7.7-.379-1.84-1.358-3.46-2.757-4.55-1.464-1.14-3.207-1.58-4.908-1.23-1.701.35-3.131 1.44-4.025 3.06-.855 1.56-1.117 3.43-.737 5.28.8 3.89 4.238 6.49 7.664 5.78zM199.174 1105.62h-.001c-3.244-.37-6.225 2.32-6.645 6-.417 3.67 1.881 6.97 5.122 7.34a5.426 5.426 0 0 0 3.332-.72c1.746-1.01 3.047-2.94 3.315-5.28.417-3.68-1.88-6.97-5.123-7.34z"/></g><g opacity=".18" fill="#DBDBDB"><path d="M841.217 3411.82a11.4 11.4 0 0 0-10.982.26 11.388 11.388 0 0 0-5.712 9.38l-.438 9.44a7.2 7.2 0 0 0 1.226 4.38 7.244 7.244 0 0 0 3.596 2.79c1.478.52 3.052.55 4.55.09a7.21 7.21 0 0 0 3.708-2.64l.062-.09c2.35-3.15 5.932-5.2 9.844-5.63a7.134 7.134 0 0 0 2.826-.92c.468-.27.908-.6 1.313-.97a7.225 7.225 0 0 0 2.195-3.99c.287-1.54.074-3.1-.615-4.51a7.229 7.229 0 0 0-3.182-3.25l-8.391-4.34zM821.292 3423.31c1.022-1.26 1.409-2.89 1.089-4.6-.304-1.62-1.222-3.12-2.585-4.22-1.363-1.1-3.023-1.69-4.673-1.64-1.734.04-3.251.76-4.271 2.02-2.052 2.54-1.38 6.5 1.499 8.83 2.294 1.85 5.306 2.12 7.473.87a5.235 5.235 0 0 0 1.468-1.26zM826.743 3412.97c3.298-1.9 4.216-6.51 2.047-10.26-2.17-3.76-6.618-5.27-9.916-3.37-3.297 1.91-4.215 6.51-2.045 10.27 2.169 3.76 6.617 5.27 9.914 3.36zM838.039 3408.68a5.46 5.46 0 0 0 1.684-.64c2.405-1.39 3.738-4.49 3.079-7.7-.379-1.84-1.358-3.46-2.757-4.55-1.464-1.14-3.207-1.58-4.908-1.23-1.701.35-3.131 1.44-4.025 3.06-.855 1.56-1.117 3.43-.737 5.28.8 3.89 4.238 6.49 7.664 5.78zM850.174 3400.62h-.001c-3.244-.37-6.225 2.32-6.645 6-.417 3.67 1.881 6.97 5.122 7.34a5.426 5.426 0 0 0 3.332-.72c1.746-1.01 3.047-2.94 3.315-5.28.417-3.68-1.88-6.97-5.123-7.34z"/></g><g opacity=".09" fill="#DBDBDB"><path d="M1361.22 2458.82c-3.48-1.8-7.59-1.7-10.99.26a11.393 11.393 0 0 0-5.71 9.38l-.44 9.44a7.257 7.257 0 0 0 4.83 7.17c1.48.52 3.05.55 4.55.09a7.22 7.22 0 0 0 3.71-2.64l.06-.09a14.25 14.25 0 0 1 9.84-5.63c1.01-.11 1.97-.42 2.83-.92.46-.27.9-.6 1.31-.97a7.169 7.169 0 0 0 2.19-3.99c.29-1.54.08-3.1-.61-4.51a7.245 7.245 0 0 0-3.18-3.25l-8.39-4.34zM1341.29 2470.31c1.02-1.26 1.41-2.89 1.09-4.6-.3-1.62-1.22-3.12-2.58-4.22-1.37-1.1-3.03-1.69-4.68-1.64-1.73.04-3.25.76-4.27 2.02-2.05 2.54-1.38 6.5 1.5 8.83 2.3 1.85 5.31 2.12 7.47.87.56-.32 1.06-.74 1.47-1.26zM1346.74 2459.97c3.3-1.9 4.22-6.51 2.05-10.26-2.17-3.76-6.62-5.27-9.92-3.37-3.29 1.91-4.21 6.51-2.04 10.27s6.62 5.27 9.91 3.36zM1358.04 2455.68c.6-.12 1.17-.34 1.68-.64 2.41-1.39 3.74-4.49 3.08-7.7-.38-1.84-1.36-3.46-2.76-4.55-1.46-1.14-3.2-1.58-4.9-1.23-1.7.35-3.13 1.44-4.03 3.06-.85 1.56-1.11 3.43-.74 5.28.81 3.89 4.24 6.49 7.67 5.78zM1370.17 2447.62c-3.24-.37-6.22 2.32-6.64 6-.42 3.67 1.88 6.97 5.12 7.34 1.18.13 2.33-.14 3.33-.72 1.75-1.01 3.05-2.94 3.32-5.28.41-3.68-1.88-6.97-5.13-7.34z"/></g><g opacity=".09" fill="#DBDBDB"><path d="M1382.22 1655.82c-3.48-1.8-7.59-1.7-10.99.26a11.393 11.393 0 0 0-5.71 9.38l-.44 9.44a7.257 7.257 0 0 0 4.83 7.17c1.48.52 3.05.55 4.55.09a7.22 7.22 0 0 0 3.71-2.64l.06-.09a14.25 14.25 0 0 1 9.84-5.63c1.01-.11 1.97-.42 2.83-.92.46-.27.9-.6 1.31-.97a7.169 7.169 0 0 0 2.19-3.99c.29-1.54.08-3.1-.61-4.51a7.245 7.245 0 0 0-3.18-3.25l-8.39-4.34zM1362.29 1667.31c1.02-1.26 1.41-2.89 1.09-4.6-.3-1.62-1.22-3.12-2.58-4.22-1.37-1.1-3.03-1.69-4.68-1.64-1.73.04-3.25.76-4.27 2.02-2.05 2.54-1.38 6.5 1.5 8.83 2.3 1.85 5.31 2.12 7.47.87.56-.32 1.06-.74 1.47-1.26zM1367.74 1656.97c3.3-1.9 4.22-6.51 2.05-10.26-2.17-3.76-6.62-5.27-9.92-3.37-3.29 1.91-4.21 6.51-2.04 10.27s6.62 5.27 9.91 3.36zM1379.04 1652.68c.6-.12 1.17-.34 1.68-.64 2.41-1.39 3.74-4.49 3.08-7.7-.38-1.84-1.36-3.46-2.76-4.55-1.46-1.14-3.2-1.58-4.9-1.23-1.7.35-3.13 1.44-4.03 3.06-.85 1.56-1.11 3.43-.74 5.28.81 3.89 4.24 6.49 7.67 5.78zM1391.17 1644.62c-3.24-.37-6.22 2.32-6.64 6-.42 3.67 1.88 6.97 5.12 7.34 1.18.13 2.33-.14 3.33-.72 1.75-1.01 3.05-2.94 3.32-5.28.41-3.68-1.88-6.97-5.13-7.34z"/></g><g opacity=".19" fill="#DBDBDB"><path d="M845.917 2657.59a12.594 12.594 0 0 0-12.127.28 12.585 12.585 0 0 0-6.306 10.36l-.484 10.42a7.96 7.96 0 0 0 1.354 4.84 7.991 7.991 0 0 0 8.994 3.18 7.972 7.972 0 0 0 4.095-2.91l.068-.1a15.72 15.72 0 0 1 10.87-6.22 7.9 7.9 0 0 0 3.12-1.02c.517-.3 1.002-.65 1.449-1.07a7.958 7.958 0 0 0 2.424-4.4 7.95 7.95 0 0 0-.679-4.98 7.941 7.941 0 0 0-3.513-3.59l-9.265-4.79zM823.917 2670.28c1.128-1.4 1.555-3.2 1.202-5.08-.336-1.8-1.35-3.45-2.855-4.67-1.505-1.21-3.337-1.86-5.159-1.81-1.915.05-3.59.84-4.715 2.24-2.267 2.8-1.525 7.17 1.654 9.74 2.534 2.05 5.859 2.34 8.252.96.61-.35 1.16-.81 1.621-1.38zM829.935 2658.86c3.642-2.1 4.656-7.19 2.26-11.34-2.395-4.15-7.307-5.81-10.948-3.71-3.641 2.1-4.654 7.19-2.258 11.34 2.395 4.15 7.306 5.81 10.946 3.71zM842.407 2654.12h.001c.667-.13 1.29-.38 1.859-.7 2.655-1.54 4.127-4.96 3.4-8.5-.418-2.04-1.5-3.83-3.044-5.03-1.617-1.27-3.541-1.75-5.419-1.36-1.879.38-3.457 1.59-4.445 3.38-.944 1.72-1.233 3.79-.814 5.83.884 4.29 4.68 7.16 8.462 6.38zM855.807 2645.22h-.001c-3.582-.41-6.874 2.56-7.337 6.62-.461 4.06 2.077 7.7 5.656 8.11 1.305.15 2.573-.15 3.678-.79 1.928-1.12 3.365-3.26 3.661-5.84.46-4.06-2.077-7.69-5.657-8.1z"/></g><g opacity=".09" fill="#FFBD54"><path d="M980.817 4306.65a12.166 12.166 0 0 0-11.73.27 12.171 12.171 0 0 0-6.1 10.02l-.468 10.08a7.694 7.694 0 0 0 1.309 4.68 7.7 7.7 0 0 0 3.841 2.98c1.579.55 3.259.59 4.86.09a7.656 7.656 0 0 0 3.96-2.81l.066-.09a15.216 15.216 0 0 1 10.514-6.02 7.58 7.58 0 0 0 3.018-.99c.5-.28.97-.63 1.402-1.03a7.69 7.69 0 0 0 2.345-4.26 7.7 7.7 0 0 0-.657-4.82 7.704 7.704 0 0 0-3.398-3.47l-8.962-4.63zM959.537 4318.92c1.091-1.35 1.504-3.09 1.162-4.92-.325-1.73-1.305-3.33-2.761-4.51-1.455-1.17-3.228-1.8-4.991-1.75-1.851.05-3.472.82-4.56 2.16-2.192 2.71-1.475 6.94 1.6 9.43 2.451 1.98 5.667 2.27 7.981.93a5.637 5.637 0 0 0 1.569-1.34zM965.358 4307.88c3.522-2.04 4.503-6.96 2.186-10.97-2.317-4.01-7.068-5.62-10.59-3.59-3.522 2.03-4.502 6.95-2.184 10.97 2.316 4.01 7.066 5.62 10.588 3.59zM977.422 4303.29a5.874 5.874 0 0 0 1.799-.68c2.568-1.48 3.992-4.8 3.289-8.22-.405-1.97-1.451-3.7-2.945-4.87-1.564-1.22-3.425-1.68-5.242-1.31-1.817.37-3.344 1.54-4.299 3.27-.913 1.66-1.193 3.66-.787 5.64.855 4.15 4.527 6.93 8.185 6.17zM990.383 4294.68h-.001c-3.465-.39-6.649 2.48-7.097 6.41-.446 3.93 2.009 7.44 5.471 7.84a5.782 5.782 0 0 0 3.558-.77c1.864-1.07 3.255-3.14 3.541-5.64.445-3.93-2.009-7.45-5.472-7.84z"/></g><g opacity=".5" fill="#F3F3F3"><path d="M1086.22 752.822a11.416 11.416 0 0 0-10.99.255 11.403 11.403 0 0 0-5.71 9.384l-.44 9.436a7.25 7.25 0 0 0 1.23 4.381 7.218 7.218 0 0 0 3.6 2.788c1.48.522 3.05.554 4.55.092a7.2 7.2 0 0 0 3.71-2.638l.06-.085a14.237 14.237 0 0 1 9.84-5.634 7.22 7.22 0 0 0 2.83-.922c.46-.27.9-.594 1.31-.97a7.142 7.142 0 0 0 2.19-3.986 7.163 7.163 0 0 0-.61-4.509 7.21 7.21 0 0 0-3.18-3.254l-8.39-4.338zM1066.29 764.314c1.02-1.263 1.41-2.897 1.09-4.602-.3-1.623-1.22-3.123-2.58-4.225-1.37-1.101-3.03-1.684-4.68-1.641-1.73.044-3.25.764-4.27 2.027-2.05 2.537-1.38 6.496 1.5 8.826 2.3 1.853 5.31 2.12 7.47.869a5.08 5.08 0 0 0 1.47-1.254zM1071.74 753.972c3.3-1.904 4.22-6.509 2.05-10.267-2.17-3.758-6.62-5.266-9.92-3.362-3.29 1.904-4.21 6.51-2.04 10.268 2.17 3.757 6.62 5.265 9.91 3.361zM1083.04 749.683a5.6 5.6 0 0 0 1.68-.641c2.41-1.388 3.74-4.492 3.08-7.698-.38-1.846-1.36-3.464-2.76-4.556-1.46-1.142-3.2-1.579-4.9-1.23-1.7.35-3.13 1.439-4.03 3.067-.85 1.554-1.11 3.427-.74 5.273.81 3.893 4.24 6.489 7.67 5.785zM1095.17 741.616c-3.24-.367-6.22 2.325-6.64 6.001-.42 3.677 1.88 6.97 5.12 7.34 1.18.136 2.33-.136 3.33-.714 1.75-1.008 3.05-2.948 3.32-5.287.41-3.677-1.88-6.969-5.13-7.34z"/></g><g opacity=".5" fill="#F3F3F3"><path d="M521.217 1348.82a11.4 11.4 0 0 0-10.982.26 11.388 11.388 0 0 0-5.712 9.38l-.438 9.44a7.2 7.2 0 0 0 1.226 4.38 7.244 7.244 0 0 0 3.596 2.79c1.478.52 3.052.55 4.55.09a7.21 7.21 0 0 0 3.708-2.64l.062-.09c2.35-3.15 5.932-5.2 9.844-5.63a7.134 7.134 0 0 0 2.826-.92c.468-.27.908-.6 1.313-.97a7.225 7.225 0 0 0 2.195-3.99c.287-1.54.074-3.1-.615-4.51a7.229 7.229 0 0 0-3.182-3.25l-8.391-4.34zM501.292 1360.31c1.022-1.26 1.409-2.89 1.089-4.6-.304-1.62-1.222-3.12-2.585-4.22-1.363-1.1-3.023-1.69-4.673-1.64-1.734.04-3.251.76-4.271 2.02-2.052 2.54-1.38 6.5 1.499 8.83 2.294 1.85 5.306 2.12 7.473.87a5.235 5.235 0 0 0 1.468-1.26zM506.743 1349.97c3.298-1.9 4.216-6.51 2.047-10.26-2.17-3.76-6.618-5.27-9.916-3.37-3.297 1.91-4.215 6.51-2.045 10.27 2.169 3.76 6.617 5.27 9.914 3.36zM518.039 1345.68a5.46 5.46 0 0 0 1.684-.64c2.405-1.39 3.738-4.49 3.079-7.7-.379-1.84-1.358-3.46-2.757-4.55-1.464-1.14-3.207-1.58-4.908-1.23-1.701.35-3.131 1.44-4.025 3.06-.855 1.56-1.117 3.43-.737 5.28.8 3.89 4.238 6.49 7.664 5.78zM530.174 1337.62h-.001c-3.244-.37-6.225 2.32-6.645 6-.417 3.67 1.881 6.97 5.122 7.34a5.426 5.426 0 0 0 3.332-.72c1.746-1.01 3.047-2.94 3.315-5.28.417-3.68-1.88-6.97-5.123-7.34z"/></g><g opacity=".5" fill="#F3F3F3"><path d="M110.217 2201.82a11.4 11.4 0 0 0-10.982.26 11.387 11.387 0 0 0-5.712 9.38l-.438 9.44a7.203 7.203 0 0 0 1.226 4.38 7.244 7.244 0 0 0 3.596 2.79c1.478.52 3.052.55 4.55.09a7.21 7.21 0 0 0 3.708-2.64l.062-.09c2.35-3.15 5.932-5.2 9.844-5.63a7.134 7.134 0 0 0 2.826-.92c.468-.27.908-.6 1.313-.97a7.225 7.225 0 0 0 2.195-3.99c.287-1.54.074-3.1-.615-4.51a7.229 7.229 0 0 0-3.182-3.25l-8.391-4.34zM90.292 2213.31c1.022-1.26 1.41-2.89 1.089-4.6-.304-1.62-1.222-3.12-2.585-4.22-1.363-1.1-3.023-1.69-4.673-1.64-1.734.04-3.251.76-4.27 2.02-2.053 2.54-1.381 6.5 1.498 8.83 2.294 1.85 5.306 2.12 7.473.87a5.232 5.232 0 0 0 1.468-1.26zM95.743 2202.97c3.298-1.9 4.216-6.51 2.047-10.26-2.17-3.76-6.618-5.27-9.916-3.37-3.297 1.91-4.215 6.51-2.045 10.27s6.617 5.27 9.914 3.36zM107.039 2198.68a5.46 5.46 0 0 0 1.684-.64c2.405-1.39 3.738-4.49 3.079-7.7-.379-1.84-1.358-3.46-2.757-4.55-1.464-1.14-3.207-1.58-4.908-1.23-1.701.35-3.131 1.44-4.025 3.06-.855 1.56-1.117 3.43-.737 5.28.8 3.89 4.238 6.49 7.664 5.78zM119.174 2190.62h-.001c-3.244-.37-6.225 2.32-6.645 6-.417 3.67 1.881 6.97 5.122 7.34a5.426 5.426 0 0 0 3.332-.72c1.746-1.01 3.047-2.94 3.315-5.28.417-3.68-1.88-6.97-5.123-7.34z"/></g><path d="M784.667 77.034h-.004a4.526 4.526 0 0 0-5.776-.534l-11.891-11.887a4.539 4.539 0 1 0-8.288-2.468 4.487 4.487 0 0 0-3.305 1.315 4.538 4.538 0 0 0 5.78 6.969l11.888 11.888a4.537 4.537 0 0 0 1.195 6.305 4.537 4.537 0 0 0 7.092-3.838 4.539 4.539 0 0 0 3.309-7.75zM1069.67 486.516h-.01a4.516 4.516 0 0 0-5.77-.534L1052 474.094a4.542 4.542 0 0 0-7.51-5.111c-.53.778-.8 1.702-.78 2.644a4.503 4.503 0 0 0-3.31 1.314 4.542 4.542 0 0 0-.14 6.417 4.531 4.531 0 0 0 5.92.552l11.89 11.888a4.533 4.533 0 0 0 1.2 6.306 4.532 4.532 0 0 0 6.3-1.195 4.53 4.53 0 0 0 .79-2.644 4.543 4.543 0 0 0 4.64-4.434 4.523 4.523 0 0 0-1.33-3.315zM1403.67 71.516h-.01a4.518 4.518 0 0 0-5.77-.534L1386 59.094a4.542 4.542 0 0 0-7.51-5.11c-.53.777-.8 1.701-.78 2.643a4.501 4.501 0 0 0-3.31 1.314 4.541 4.541 0 0 0-.14 6.417 4.53 4.53 0 0 0 5.92.552l11.89 11.888a4.533 4.533 0 0 0 1.2 6.306 4.531 4.531 0 0 0 6.3-1.195 4.53 4.53 0 0 0 .79-2.644 4.543 4.543 0 0 0 4.64-4.433c.03-1.241-.45-2.44-1.33-3.316zM349.667 252.516h-.004a4.525 4.525 0 0 0-5.776-.534l-11.891-11.888a4.54 4.54 0 1 0-8.288-2.467 4.489 4.489 0 0 0-3.305 1.314 4.539 4.539 0 0 0 5.78 6.969l11.888 11.888a4.537 4.537 0 1 0 8.287 2.467 4.539 4.539 0 0 0 3.309-7.749z" fill="#F3F3F3" opacity=".5"/><path d="M47.667 538.516h-.004a4.524 4.524 0 0 0-5.776-.534l-11.892-11.888a4.539 4.539 0 1 0-8.287-2.467 4.487 4.487 0 0 0-3.305 1.314 4.54 4.54 0 0 0 5.78 6.969l11.888 11.888a4.539 4.539 0 1 0 8.288 2.467 4.538 4.538 0 0 0 3.308-7.749z" fill="#78C0DE" opacity=".09"/><path d="M437.959 752.883h-.006a6.93 6.93 0 0 0-8.845-.817l-18.209-18.203a6.95 6.95 0 1 0-12.69-3.778 6.866 6.866 0 0 0-5.06 2.013 6.948 6.948 0 0 0 8.85 10.671l18.203 18.203a6.95 6.95 0 1 0 12.691 3.778 6.948 6.948 0 0 0 5.066-11.867zM1297.96 1238.88h-.01a6.929 6.929 0 0 0-8.84-.81l-18.21-18.21a6.945 6.945 0 0 0-1.83-9.65c-3.17-2.16-7.49-1.34-9.66 1.83a6.92 6.92 0 0 0-1.2 4.04 6.9 6.9 0 0 0-5.06 2.02 6.94 6.94 0 0 0-.23 9.82 6.948 6.948 0 0 0 9.08.85l18.2 18.2a6.957 6.957 0 0 0 1.83 9.66 6.957 6.957 0 0 0 9.66-1.83 6.95 6.95 0 0 0 1.2-4.05 6.95 6.95 0 0 0 7.11-6.79c.04-1.9-.7-3.73-2.04-5.08z" fill="#F3F3F3" opacity=".5"/><path d="M443.376 1161.78h-.005a5.532 5.532 0 0 0-7.04-.65l-14.493-14.48a5.536 5.536 0 0 0-1.456-7.69 5.527 5.527 0 0 0-7.685 1.46 5.52 5.52 0 0 0-.959 3.22 5.466 5.466 0 0 0-4.028 1.6 5.529 5.529 0 0 0 7.045 8.49l14.487 14.49a5.535 5.535 0 0 0 1.457 7.69 5.527 5.527 0 0 0 7.685-1.46c.646-.95.981-2.07.959-3.22a5.53 5.53 0 0 0 5.656-5.4 5.546 5.546 0 0 0-1.623-4.05zM390.376 2132.78h-.005a5.532 5.532 0 0 0-7.04-.65l-14.493-14.48a5.536 5.536 0 0 0-1.456-7.69 5.527 5.527 0 0 0-7.685 1.46 5.52 5.52 0 0 0-.959 3.22 5.466 5.466 0 0 0-4.028 1.6 5.529 5.529 0 0 0 7.045 8.49l14.487 14.49a5.535 5.535 0 0 0 1.457 7.69 5.527 5.527 0 0 0 7.685-1.46c.646-.95.981-2.07.959-3.22a5.53 5.53 0 0 0 5.656-5.4 5.546 5.546 0 0 0-1.623-4.05z" fill="#FFBD54" opacity=".07"/><path d="M440.376 2669.78h-.005a5.532 5.532 0 0 0-7.04-.65l-14.493-14.48a5.536 5.536 0 0 0-1.456-7.69 5.527 5.527 0 0 0-7.685 1.46 5.52 5.52 0 0 0-.959 3.22 5.466 5.466 0 0 0-4.028 1.6 5.529 5.529 0 0 0 7.045 8.49l14.487 14.49a5.535 5.535 0 0 0 1.457 7.69 5.527 5.527 0 0 0 7.685-1.46c.646-.95.981-2.07.959-3.22a5.53 5.53 0 0 0 5.656-5.4 5.546 5.546 0 0 0-1.623-4.05zM289.376 4349.78h-.005a5.532 5.532 0 0 0-7.04-.65l-14.493-14.48a5.536 5.536 0 0 0-1.456-7.69 5.527 5.527 0 0 0-7.685 1.46 5.52 5.52 0 0 0-.959 3.22 5.466 5.466 0 0 0-4.028 1.6 5.529 5.529 0 0 0 7.045 8.49l14.487 14.49a5.535 5.535 0 0 0 1.457 7.69 5.527 5.527 0 0 0 7.685-1.46c.646-.95.981-2.07.959-3.22a5.53 5.53 0 0 0 5.656-5.4 5.546 5.546 0 0 0-1.623-4.05zM112.376 3487.78h-.005a5.532 5.532 0 0 0-7.04-.65l-14.493-14.48a5.536 5.536 0 0 0-1.456-7.69 5.527 5.527 0 0 0-7.685 1.46 5.523 5.523 0 0 0-.96 3.22 5.465 5.465 0 0 0-4.027 1.6 5.529 5.529 0 0 0 7.044 8.49l14.489 14.49a5.536 5.536 0 0 0 1.456 7.69 5.527 5.527 0 0 0 7.685-1.46c.646-.95.981-2.07.959-3.22a5.53 5.53 0 0 0 5.656-5.4 5.546 5.546 0 0 0-1.623-4.05z" fill="#DBDBDB" opacity=".19"/><path d="M1366.38 2113.78h-.01a5.532 5.532 0 0 0-7.04-.65l-14.49-14.48a5.532 5.532 0 0 0-1.46-7.69 5.521 5.521 0 0 0-7.68 1.46c-.65.95-.98 2.07-.96 3.22-1.51-.04-2.97.53-4.03 1.6a5.53 5.53 0 0 0-.18 7.82c1.91 1.99 4.99 2.28 7.22.67l14.49 14.49a5.532 5.532 0 0 0 1.46 7.69 5.521 5.521 0 0 0 7.68-1.46c.65-.95.99-2.07.96-3.22a5.53 5.53 0 0 0 5.66-5.4 5.56 5.56 0 0 0-1.62-4.05zM61.334 1613.88h-.005a5.657 5.657 0 0 0-7.22-.67l-14.865-14.86a5.67 5.67 0 0 0-1.493-7.88c-2.59-1.76-6.118-1.1-7.882 1.49a5.699 5.699 0 0 0-.984 3.31 5.598 5.598 0 0 0-4.13 1.64c-2.266 2.17-2.348 5.76-.184 8.02a5.662 5.662 0 0 0 7.408.69l14.86 14.86a5.67 5.67 0 0 0 1.493 7.88 5.666 5.666 0 0 0 7.882-1.49 5.667 5.667 0 0 0 .984-3.3 5.675 5.675 0 0 0 4.136-9.69z" fill="#FFBD54" opacity=".07"/></svg>