<svg width="21" height="22" fill="none" xmlns="http://www.w3.org/2000/svg"><path d="M20.459 6.61c-.72-.72-1.89-.72-2.61 0l-1.852 1.852V3.586c0-.493-.192-.956-.54-1.305L13.717.54A1.833 1.833 0 0 0 12.41 0H1.846A1.848 1.848 0 0 0 0 1.846v17.31c0 1.017.828 1.846 1.846 1.846H14.15a1.848 1.848 0 0 0 1.846-1.846v-5.47L20.46 9.22a1.845 1.845 0 0 0 0-2.61zm-8.153-5.38c.116 0 .34-.02.54.18l1.74 1.741c.196.195.18.41.18.54h-2.46v-2.46zm2.46 17.926c0 .339-.275.615-.615.615H1.846a.616.616 0 0 1-.615-.615V1.846c0-.34.276-.615.615-.615h9.229v3.076c0 .34.276.615.615.615h3.077v4.772L12.95 11.51l-.87.87a.615.615 0 0 0-.148.24l-.87 2.611a.615.615 0 0 0 .778.778l2.61-.87a.615.615 0 0 0 .241-.148l.075-.075v4.24zm-1.38-6.34.87.87-.331.332-1.306.435.435-1.305.333-.333zm1.74 0-.87-.871 2.958-2.96.87.87-2.957 2.96zM19.59 8.35l-.635.634-.87-.87.635-.635a.616.616 0 0 1 .87.87z" fill="#fff"/><path d="M11.69 6.153H3.076a.615.615 0 0 0 0 1.23h8.614a.615.615 0 0 0 0-1.23zM9.23 8.614H3.075a.615.615 0 0 0 0 1.23H9.23a.615.615 0 0 0 0-1.23zM9.23 11.075H3.075a.615.615 0 1 0 0 1.23H9.23a.615.615 0 0 0 0-1.23zM9.23 13.536H3.075a.615.615 0 0 0 0 1.23H9.23a.615.615 0 0 0 0-1.23zM11.69 17.31H8a.615.615 0 0 0 0 1.23h3.691a.615.615 0 0 0 0-1.23z" fill="#fff"/></svg>