<svg width="69" height="69" viewBox="0 0 69 69" fill="none" xmlns="http://www.w3.org/2000/svg">
<g opacity="0.03">
<path d="M38.6118 55.0524C37.569 58.0817 36.2864 60.2084 36.2017 60.3472C35.7426 61.1 34.8531 61.4639 34.0045 61.2607C33.5399 61.1495 22.5879 58.444 19.258 50.4344C18.9916 49.7932 18.7541 49.1454 18.5452 48.4946C24.5869 52.1229 31.6531 54.1197 38.6118 55.0524Z" fill="white"/>
<path d="M56.9145 36.4974C56.8949 36.4951 56.0065 36.4016 54.7164 36.3915C53.1966 27.3467 49.7985 18.3405 43.3106 11.8527C41.8794 10.4211 40.3502 9.06398 38.731 7.78467C40.808 7.19254 43.4361 7.03494 46.747 7.69731C53.243 8.99657 56.2958 16.0034 57.7597 22.4446C59.1423 28.5279 59.1582 34.2468 59.1582 34.4872C59.1582 35.6836 58.1191 36.6268 56.9145 36.4974Z" fill="white"/>
<path d="M45.8691 55.6553C47.0377 55.6923 48.7508 55.7098 49.9217 55.6445C53.0123 55.4732 55.4722 53.0135 55.6437 49.9195C55.6874 49.1193 55.7091 47.5843 55.6545 45.8702C58.3807 46.2472 62.0939 46.3444 66.5811 45.4468C67.83 45.1973 69 46.1521 69 47.4298C69 51.6974 67.6019 55.4432 65.1645 57.7067C62.5973 60.0906 60.0877 62.6 57.7056 65.1655C55.4421 67.603 51.6964 69.001 47.4289 69.001C46.1533 69.001 45.1957 67.8325 45.4459 66.582C46.3433 62.0948 46.2461 58.3815 45.8691 55.6553Z" fill="white"/>
<path d="M7.47762 28.9612C16.7839 28.3109 28.2826 16.8296 28.9587 7.50374C28.9664 7.39589 28.964 7.46074 28.964 6.15137C33.298 8.54455 37.158 11.4192 40.4501 14.7124C47.7721 22.0342 50.7921 33.3328 51.4898 43.5622C51.6639 46.1263 51.6707 48.4989 51.6052 49.6991C51.5481 50.7279 50.7267 51.5493 49.6979 51.6062C47.1194 51.7499 42.262 51.5598 37.5769 50.8143C30.4169 49.6709 23.1957 47.3022 17.4843 42.885C17.4822 42.8415 16.4228 42.12 14.6166 40.3548C11.3771 37.0968 8.50858 33.2602 6.18295 29.0539L7.47762 28.9612Z" fill="white"/>
<path d="M0.124838 6.58379C0.301048 5.05696 0.790173 3.35149 1.80415 2.17829C4.02962 -0.402565 9.16261 -0.191033 12.5354 0.31872C16.7259 0.951833 21.0879 2.39225 24.9193 4.124V7.28027C24.3277 14.595 14.4531 24.4193 7.19235 24.9268L4.20852 25.1401C1.79228 19.8544 -0.57555 12.3357 0.124838 6.58379ZM14.9454 12.5413C15.8978 12.0445 16.3179 10.8221 15.7759 9.80719C15.2836 8.82463 13.9337 8.37918 12.8706 9.07782C12.4407 9.36161 12.1249 9.81555 12.0104 10.364C11.6886 12.0848 13.4791 13.3277 14.9454 12.5413Z" fill="white"/>
</g>
</svg>
