<svg width="28" height="27" viewBox="0 0 28 27" fill="none" xmlns="http://www.w3.org/2000/svg">
<path d="M23.5767 17.0503C21.3794 13.8374 19.0102 10.3118 13.4713 11.796C11.0025 12.4575 9.35923 13.7307 8.4477 15.6883C7.64029 17.4224 7.49518 19.4591 7.34696 21.399C7.16312 23.777 9.63547 25.4664 11.7937 24.4196C13.5643 23.5604 15.9661 22.2685 19.8194 21.9915C21.3044 21.8846 21.4472 21.8927 21.8312 21.7898C23.837 21.2522 24.8075 18.8464 23.5767 17.0503Z" fill="#FBDD7B"/>
<path d="M21.8312 21.7897C23.837 21.2522 24.8075 18.8463 23.5767 17.0502C21.3794 13.8373 19.0102 10.3118 13.4713 11.7959L16.3589 22.5725C19.1333 21.8291 20.9282 22.0317 21.8312 21.7897Z" fill="#FECB3E"/>
<path d="M16.5662 16.4036L15.4815 16.6942L15.1908 15.6095C15.0945 15.25 14.725 15.0367 14.3655 15.133C14.0061 15.2293 13.7927 15.5988 13.8891 15.9583L14.1797 17.043L13.0949 17.3337C12.7355 17.43 12.5222 17.7995 12.6185 18.159C12.7148 18.5184 13.0843 18.7318 13.4437 18.6354L14.5285 18.3448L14.8192 19.4296C14.9155 19.789 15.285 20.0023 15.6444 19.906C16.0039 19.8097 16.2172 19.4402 16.1209 19.0808L15.8303 17.996L16.915 17.7053C17.2745 17.609 17.4878 17.2395 17.3915 16.88C17.2952 16.5206 16.9257 16.3073 16.5662 16.4036Z" fill="#FFF8E0"/>
<path d="M16.1209 19.0808L15.8303 17.996L16.9151 17.7054C17.2745 17.6091 17.4878 17.2396 17.3915 16.8801C17.2952 16.5207 16.9257 16.3073 16.5663 16.4036L15.4815 16.6943L15.1908 15.6095C15.0945 15.2501 14.725 15.0367 14.3655 15.1331L15.6445 19.9061C16.0039 19.8098 16.2173 19.4403 16.1209 19.0808Z" fill="#FFE799"/>
<path d="M21.2765 6.21234C19.9606 6.56494 19.1769 7.9224 19.5295 9.23832C19.8821 10.5542 21.2395 11.338 22.5555 10.9854C23.8714 10.6328 24.6985 9.26369 24.3459 7.94777C23.9933 6.63184 22.5925 5.85974 21.2765 6.21234Z" fill="#FECB3E"/>
<path d="M16.4203 8.91634C17.9321 8.51124 18.7456 6.64494 18.2373 4.74783C17.729 2.85072 16.0913 1.6412 14.5795 2.0463C13.0676 2.45139 12.2541 4.3177 12.7625 6.21481C13.2708 8.11192 14.9084 9.32143 16.4203 8.91634Z" fill="#FECB3E"/>
<path d="M9.47766 10.7767C10.9895 10.3716 11.803 8.50529 11.2947 6.60818C10.7863 4.71107 9.14867 3.50155 7.63683 3.90665C6.125 4.31174 5.3115 6.17805 5.81983 8.07516C6.32815 9.97227 7.96582 11.1818 9.47766 10.7767Z" fill="#FBDD7B"/>
<path d="M3.92002 10.8631C2.60409 11.2157 1.77698 12.5848 2.12958 13.9007C2.48218 15.2166 3.88302 15.9887 5.19895 15.6361C6.51487 15.2835 7.2986 13.926 6.946 12.6101C6.5934 11.2942 5.23594 10.5105 3.92002 10.8631Z" fill="#FBDD7B"/>
</svg>
