<svg width="138" height="108" viewBox="0 0 138 108" fill="none" xmlns="http://www.w3.org/2000/svg">
<path d="M22.8405 49.0906C22.6023 48.8685 22.364 48.6463 22.1469 48.4364C22.1046 48.412 22.0623 48.3876 22.0201 48.3632C21.9143 48.3021 21.7997 48.2078 21.6639 48.1012C21.5281 47.9946 21.4346 47.9124 21.3321 47.7969C21.2386 47.7147 21.2208 47.648 21.2574 47.5846C21.3151 47.5333 21.3062 47.5 21.2428 47.4634C21.1794 47.4267 21.1037 47.4113 20.9858 47.3714C20.8679 47.3315 20.7166 47.3005 20.5686 47.2151C20.4084 47.1508 20.2726 47.0442 20.1612 46.8953C20.1011 46.8042 19.953 46.7187 19.7839 46.6211C19.5814 46.5324 19.3277 46.3859 19.0894 46.1638C18.9959 46.0816 18.9236 46.0116 18.839 45.9628C18.7756 45.9262 18.7243 45.8684 18.6699 45.8651C18.6064 45.8285 18.5007 45.7675 18.4072 45.6853C18.2925 45.5909 18.16 45.4298 17.9551 45.1988C17.9039 45.141 17.8104 45.0588 17.6746 44.9522C17.5388 44.8456 17.412 44.7724 17.2762 44.6658C17.1282 44.5804 16.9891 44.5283 16.9135 44.5128C16.8167 44.4851 16.7711 44.5152 16.7979 44.6152C16.8125 44.7364 16.7548 44.7876 16.6035 44.7567C16.4611 44.7591 16.2887 44.7159 16.0651 44.615C15.8626 44.5263 15.6634 44.3831 15.443 44.2276C15.2438 44.0844 15.1023 43.89 14.982 43.7078C14.9162 43.5288 14.8471 43.4043 14.7869 43.3132C14.7601 43.2132 14.7089 43.1554 14.6878 43.1432C14.6577 43.0976 14.6577 43.0976 14.6455 43.1188C14.6455 43.1188 14.6333 43.1399 14.6422 43.1733C14.63 43.1944 14.6267 43.2489 14.6145 43.2701C14.6234 43.3034 14.6112 43.3245 14.5657 43.3546C14.5535 43.3758 14.5323 43.3636 14.4778 43.3603C14.1875 43.2772 13.837 43.1031 13.4475 42.85C13.0791 42.6091 12.8441 42.3325 12.7849 42.0446C12.7369 41.9323 12.6345 41.8168 12.4897 41.6768C12.345 41.5369 12.1881 41.4181 12.0279 41.3538C11.8465 41.2773 11.7587 41.2829 11.6765 41.3764C11.5943 41.47 11.3975 41.4691 11.086 41.3738C10.7745 41.2786 10.4541 41.1499 10.0914 40.9969C9.66525 40.8073 9.34483 40.6787 9.11792 40.6322C8.45833 40.5051 7.97443 40.3667 7.67516 40.2503C7.37588 40.1339 7.16772 39.9573 7.03847 39.7417C6.94256 39.5172 6.83206 39.1715 6.7403 38.6957C6.73137 38.6623 6.77692 38.6323 6.89812 38.6177C7.02825 38.6364 7.17058 38.634 7.31292 38.6316C7.4764 38.6414 7.61874 38.639 7.76108 38.6366C7.87006 38.6432 7.91562 38.6131 7.91889 38.5586C7.90995 38.5253 7.83759 38.4553 7.71073 38.382C7.58387 38.3088 7.43587 38.2234 7.25452 38.1468C7.06423 38.037 6.89508 37.9393 6.74708 37.8539C6.57793 37.7562 6.50557 37.6862 6.47549 37.6407C6.21307 36.728 6.21243 36.192 6.46463 35.9993C6.71683 35.8067 7.07714 35.8173 7.57891 36.0225C8.04733 36.2365 8.55804 36.475 9.06548 36.768C9.19233 36.8412 9.34034 36.9267 9.44605 36.9877C10.7057 37.6868 11.9776 38.3647 13.2616 39.0215C13.2828 39.0337 13.3251 39.0581 13.3462 39.0703C13.4519 39.1314 13.5699 39.1712 13.6967 39.2445C13.8358 39.2966 13.9626 39.3698 14.1017 39.4219C14.2408 39.474 14.3253 39.5229 14.3798 39.5261C14.3831 39.4716 14.3563 39.3716 14.2482 39.1682C14.1612 38.977 14.032 38.7615 13.8726 38.5003C13.0938 37.2613 12.6355 36.151 12.443 35.1659C12.2384 34.2021 12.377 32.9853 12.8346 31.558C13.1871 30.6057 13.5664 29.7535 14.0237 29.059C14.4932 28.3434 15.0083 27.5977 15.6112 26.8464C15.6934 26.7529 15.7423 26.6683 15.8122 26.5959C14.7198 24.3865 14.1714 22.4067 14.1337 20.6653C14.0749 18.9117 14.6953 16.9582 15.9437 14.7471C15.9559 14.7259 15.9681 14.7048 15.9803 14.6837C16.2277 14.2063 16.5386 13.7656 16.9129 13.3615C16.9584 13.3314 17.0162 13.2802 17.0862 13.2078C17.1439 13.1566 17.1805 13.0931 17.2172 13.0297C17.7713 12.3629 18.3855 11.7873 19.0933 11.2938C19.2999 11.1312 19.5188 10.9475 19.7254 10.7848C20.2754 10.3694 20.8432 10.0207 21.4623 9.72968C21.9813 9.4655 22.4913 9.16798 23.0047 8.81596C23.0502 8.78588 23.1291 8.74687 23.1991 8.6745C23.2902 8.61434 23.3814 8.55419 23.4936 8.50623C23.5725 8.46722 23.6392 8.44935 23.6937 8.45262C23.7482 8.45589 23.9239 8.44456 24.224 8.36413C24.5242 8.28371 24.8699 8.1732 25.2823 8.04482C25.349 8.02695 25.4491 8.00014 25.5158 7.98227C25.7614 7.89858 26.0282 7.82709 26.2828 7.77674C26.5708 7.71746 26.8221 7.7216 27.0612 7.7469C27.1035 7.77131 27.1368 7.76237 27.1702 7.75344C27.2369 7.73556 27.2702 7.72663 27.3158 7.69655C27.3947 7.65753 27.507 7.60958 27.6526 7.55269C27.786 7.51695 28.0162 7.50889 28.2886 7.52524C28.5822 7.55381 28.8791 7.52787 29.1882 7.4808C29.4306 7.45159 29.7275 7.42566 30.0666 7.42414C35.6169 7.52759 40.2288 9.59823 43.9323 13.6816C44.2184 14.016 44.4534 14.2926 44.6583 14.5237C44.851 14.7759 44.9746 14.9036 44.9957 14.9158C45.0291 14.9069 45.1405 15.0558 45.3421 15.3413C45.5226 15.6147 45.742 15.9669 46.0038 16.3436C46.3347 16.8447 46.6379 17.4426 46.9589 18.1072C47.2467 18.7808 47.4831 19.3966 47.6684 19.9546C47.8415 20.5337 47.9064 20.9095 47.8722 21.1153C47.8234 21.1999 47.8225 21.3967 47.8362 21.7147C47.8499 22.0327 47.8726 22.3841 47.9042 22.7688C47.948 23.1324 47.9584 23.5049 47.9722 23.823C47.9737 24.1621 47.9606 24.3801 47.9207 24.498C47.8808 24.6159 47.8621 24.7461 47.8311 24.8974C47.8335 25.0397 47.8148 25.1698 47.8416 25.2699C47.8553 25.5879 47.8169 26.045 47.7476 26.6533C47.6571 27.2495 47.5244 27.8212 47.3282 28.3564C47.1531 28.9037 46.9123 29.2721 46.63 29.4192C46.46 29.5184 46.3778 29.6119 46.359 29.742C46.3403 29.8721 46.376 30.0055 46.3996 30.1601C46.4654 30.339 46.4645 30.5359 46.4213 30.7083C46.3871 30.9141 46.1894 31.11 45.8282 31.2961C45.5459 31.4433 45.3727 31.5969 45.3173 31.7905C45.2741 31.9629 45.2521 32.1475 45.2634 32.3232C45.278 32.4444 45.2715 32.5534 45.2649 32.6624C45.2373 32.7592 45.1884 32.8437 45.1063 32.9373L45.0485 32.9885C44.9785 33.0608 44.8963 33.1544 44.8142 33.2479C44.732 33.3414 44.671 33.4471 44.6433 33.5439C44.6278 33.6195 44.5578 33.6919 44.4756 33.7854C44.3935 33.8789 44.269 33.948 44.1901 33.987C44.0778 34.035 43.9623 34.1374 43.8224 34.2821C43.7036 34.4391 43.5848 34.596 43.5205 34.7562C43.4228 34.9254 43.3251 35.0945 43.2186 35.2303C43.112 35.3661 43.042 35.4385 42.9631 35.4775C42.9053 35.5287 42.8598 35.5588 42.8231 35.6222C42.7987 35.6645 42.7955 35.719 42.8255 35.7645C42.8223 35.819 42.8101 35.8402 42.7645 35.8703C42.7189 35.9003 42.6644 35.8971 42.5555 35.8905C42.4131 35.8929 42.2919 35.9075 42.2097 36.001C42.1064 36.0823 42.0242 36.1758 41.9299 36.2905C41.8355 36.4052 41.7533 36.4987 41.6467 36.6345C41.2757 36.9841 40.768 37.4239 40.1025 37.9418C39.4371 38.4597 38.8603 38.7751 38.3845 38.8669C38.2755 38.8603 38.2088 38.8782 38.151 38.9294C38.0932 38.9806 38.0989 39.0685 38.1591 39.1596C38.2192 39.2507 38.3672 39.3362 38.5909 39.4371C38.7722 39.5136 38.9747 39.6023 39.1683 39.6577C39.779 39.8694 40.1173 40.0647 40.2165 40.2347C40.2644 40.347 40.2067 40.3982 40.0521 40.4217C39.8976 40.4453 39.6707 40.3988 39.4226 40.3402C39.1534 40.2693 38.8664 40.1318 38.5793 39.9942C38.1743 39.8168 37.7628 39.7483 37.3536 39.8222C36.9656 39.9083 36.5622 40.07 36.1676 40.2651C36.0643 40.3464 36.0188 40.3765 36.0488 40.4221C36.0911 40.4465 36.1545 40.4831 36.2635 40.4896C36.3603 40.5173 36.4449 40.5661 36.5083 40.6028C36.5929 40.6516 36.623 40.6972 36.5953 40.7939C36.5831 40.8151 36.5375 40.8452 36.4619 40.8297C36.374 40.8353 36.2773 40.8077 36.1683 40.8011C35.9747 40.7457 35.7356 40.7205 35.442 40.6919C35.1695 40.6755 34.8816 40.7348 34.557 40.8575C34.1747 41.0315 33.8501 41.1542 33.6045 41.2379C33.3799 41.3338 33.0464 41.4231 32.6462 41.5304C32.5006 41.5873 32.3884 41.6352 32.2972 41.6954C32.2183 41.7344 32.1606 41.7856 32.1362 41.8279C32.0784 41.8791 32.0328 41.9092 31.9661 41.9271C31.9328 41.936 31.8238 41.9295 31.6937 41.9107C31.3911 41.8488 31.1821 41.8691 31.0031 41.9349C30.8453 42.0129 30.7086 42.1032 30.6053 42.1845C30.5354 42.2568 30.4898 42.2869 30.4109 42.3259C30.3653 42.356 30.3108 42.3527 30.2352 42.3373C30.0961 42.2852 29.8448 42.281 29.4812 42.3248C29.1388 42.3808 28.7419 42.4336 28.3116 42.4953C27.6934 42.5894 27.1964 42.669 26.8239 42.6794C26.7905 42.6883 26.7361 42.6851 26.6816 42.6818C26.5726 42.6753 26.4302 42.6777 26.2879 42.68C26.1789 42.6735 26.0366 42.6759 25.9154 42.6905C25.7942 42.7051 25.7153 42.7441 25.6697 42.7742C25.3696 42.8546 25.0304 42.8561 24.5977 42.7755C24.2407 42.7103 23.847 42.7085 23.4623 42.7401C23.2866 42.7515 23.1109 42.7628 22.9474 42.753C22.784 42.7432 22.675 42.7366 22.5538 42.7512C22.4537 42.778 22.3748 42.8171 22.3382 42.8805C22.3382 42.8805 22.3171 42.8683 22.2959 42.8561C22.2748 42.8439 22.2536 42.8317 22.1991 42.8284C22.1357 42.7918 22.0723 42.7552 21.9966 42.7397C21.9332 42.7031 21.8576 42.6876 21.7819 42.6721C21.4249 42.6069 21.089 42.5539 20.7865 42.492C20.1025 42.4072 19.4217 42.2679 18.6898 42.0709C18.227 41.9446 17.9757 41.9405 17.9269 42.0251C17.9114 42.1007 18.0228 42.2496 18.261 42.4717C18.5115 42.6727 18.7831 42.8859 19.1181 43.1357C19.4442 43.3521 19.728 43.5442 19.9695 43.7118C20.1598 43.8217 20.2533 43.9038 20.3167 43.9405C21.1103 44.5678 22.1633 45.4295 23.5058 46.571C24.8271 47.7004 26.0785 48.9021 27.2298 50.1306C28.3811 51.3592 29.1274 52.4103 29.4143 53.2806C29.5036 53.6141 29.5409 54.0867 29.5472 54.7105C29.5446 55.301 29.5297 55.9127 29.4604 56.521C29.3911 57.1294 29.2649 57.5922 29.1485 57.8914C29.094 57.8882 29.046 57.7759 28.9713 57.5636C28.8631 57.3602 28.7794 57.1146 28.6657 56.8233C28.582 56.5777 28.4861 56.3532 28.4113 56.1409C28.3154 55.9163 28.2374 55.7585 28.1772 55.6674C27.9098 55.2029 27.5878 54.7351 27.257 54.234C26.944 53.7996 26.6521 53.3773 26.3936 52.9462C25.557 51.7584 24.605 50.6731 23.504 49.6992C23.2747 49.5104 23.0576 49.3005 22.8405 49.0906ZM28.4663 54.6785C28.4484 54.6118 28.4094 54.5329 28.3549 54.5296C28.2915 54.493 28.237 54.4897 28.1703 54.5076C28.1158 54.5043 28.0914 54.5466 28.0881 54.6011C28.097 54.6344 28.1483 54.6922 28.254 54.7532C28.3597 54.8143 28.4264 54.7964 28.4663 54.6785ZM27.6125 53.96C27.7938 54.0365 27.8605 54.0187 27.8459 53.8975C27.8313 53.7763 27.7533 53.6185 27.6118 53.424C27.4826 53.2084 27.32 53.0018 27.1362 52.7829C26.9736 52.5763 26.82 52.403 26.6842 52.2964C26.5272 52.1776 26.4516 52.1621 26.415 52.2256C26.4117 52.2801 26.4597 52.3923 26.5588 52.5623C26.658 52.7324 26.8117 52.9057 26.9531 53.1001C27.1035 53.3279 27.2572 53.5012 27.3897 53.6623C27.5011 53.8111 27.5824 53.9145 27.6125 53.96ZM23.0733 48.492C23.375 48.7508 23.5953 48.9062 23.7011 48.9672C23.8068 49.0283 23.819 49.0071 23.7678 48.9494C23.7287 48.8704 23.6263 48.7549 23.4816 48.615C23.349 48.4539 23.1832 48.3017 22.9962 48.1374C22.8091 47.973 22.6433 47.8209 22.4863 47.7021C22.3294 47.5833 22.2025 47.51 22.1147 47.5157C22.1236 47.5491 22.1748 47.6068 22.2561 47.7101C22.3374 47.8135 22.4732 47.9201 22.5968 48.0478C22.7115 48.1422 22.8351 48.2699 22.9286 48.3521C23.0009 48.4221 23.0522 48.4798 23.0733 48.492ZM15.3903 43.8307C15.5439 44.004 15.6496 44.065 15.7163 44.0472C15.792 44.0626 15.8286 43.9992 15.8018 43.8992C15.7961 43.8113 15.7693 43.7113 15.697 43.6413C15.6246 43.5713 15.5067 43.5314 15.3855 43.546C15.331 43.5428 15.3188 43.5639 15.3066 43.585C15.3033 43.6395 15.3122 43.6729 15.3212 43.7062C15.3301 43.7396 15.3602 43.7851 15.3813 43.7973C15.3691 43.8185 15.3903 43.8307 15.3903 43.8307ZM13.8664 42.6126C13.8119 42.6094 13.7786 42.6183 13.7997 42.6305C13.8087 42.6638 13.8298 42.6761 13.8932 42.7127C13.9355 42.7371 13.999 42.7737 14.0535 42.777C14.1169 42.8136 14.1714 42.8169 14.2259 42.8201C14.247 42.8324 14.2804 42.8234 14.2714 42.7901C14.2714 42.7901 14.2413 42.7445 14.1356 42.6835C14.0511 42.6346 13.9665 42.5858 13.8664 42.6126ZM25.156 41.8574C25.1893 41.8484 25.2227 41.8395 25.265 41.8639C25.3406 41.8794 25.3951 41.8827 25.4919 41.9104C25.6732 41.9869 25.9123 42.0122 26.1303 42.0252C26.6118 42.0213 27.4268 41.9281 28.5631 41.7666C29.6994 41.6051 30.7845 41.3858 31.8607 41.1332C32.9279 40.8473 33.6136 40.5384 33.8968 40.1944C33.5007 40.0504 33.0737 40.0575 32.619 40.1615C32.1643 40.2655 31.6852 40.4117 31.2028 40.6125C30.4748 40.8969 29.8078 41.0756 29.1595 41.1242C29.0172 41.1266 28.8082 41.1469 28.5324 41.185C28.2567 41.2232 27.9809 41.2613 27.6385 41.3173C27.1082 41.4058 26.6779 41.4675 26.3143 41.5113C25.3692 41.5858 24.5452 41.6457 23.8457 41.6365C23.1552 41.6607 22.3256 41.6328 21.3781 41.565C21.2146 41.5552 21.0934 41.5698 20.96 41.6055C20.8388 41.6201 20.7387 41.6469 20.7143 41.6892C20.6899 41.7315 20.72 41.7771 20.8379 41.817C20.9347 41.8446 21.1616 41.8911 21.4764 41.9318C21.5309 41.9351 21.5853 41.9384 21.661 41.9539C22.2271 41.9988 22.8265 42.0348 23.4593 42.0618C24.092 42.0888 24.6435 42.0126 25.156 41.8574ZM28.5227 38.614C28.5894 38.5961 28.7106 38.5815 28.8529 38.5791C28.983 38.5979 29.1042 38.5833 29.2254 38.5687C29.3466 38.5541 29.4044 38.5029 29.4076 38.4484C29.402 38.3605 29.2873 38.2661 29.067 38.1107C29.0247 38.0863 28.9824 38.0619 28.9523 38.0163C28.8466 37.9553 28.762 37.9065 28.7197 37.8821C28.6685 37.8243 28.6262 37.7999 28.6051 37.7877C28.575 37.7421 28.5327 37.7177 28.5026 37.6721C28.4425 37.581 28.2888 37.4077 27.9993 37.1279C27.8758 37.0001 27.74 36.8935 27.5798 36.8292C27.4195 36.7649 27.2471 36.7217 27.0959 36.6908C26.9023 36.6354 26.7421 36.5711 26.6152 36.4979C26.5095 36.4368 26.4616 36.3246 26.4714 36.1611C26.5211 35.8797 26.4675 35.6796 26.3227 35.5397C26.1568 35.3875 25.9666 35.2776 25.7218 35.1645C25.6161 35.1035 25.4981 35.0636 25.3924 35.0025C25.329 34.9659 25.2143 34.8715 25.0241 34.7617C24.8338 34.6518 24.6345 34.5086 24.4231 34.3865C24.2662 34.2677 24.097 34.1701 23.9824 34.0757C23.8555 34.0024 23.7921 33.9658 23.7709 33.9536C23.662 33.9471 23.6042 33.9983 23.5854 34.1284C23.5789 34.2374 23.5935 34.3586 23.617 34.5132C23.6227 34.601 23.6284 34.6888 23.6251 34.7433C23.6308 34.8312 23.5974 34.8401 23.5429 34.8368C23.5006 34.8124 23.386 34.718 23.2412 34.5781C23.1087 34.417 22.925 34.1982 22.6599 33.876C22.651 33.8426 22.651 33.8426 22.6298 33.8304C22.4795 33.6026 22.2624 33.3927 22.0363 33.1495C21.7981 32.9273 21.5533 32.8142 21.2597 32.7857C21.3109 32.8434 21.3711 32.9345 21.4646 33.0167C21.567 33.1322 21.6695 33.2478 21.7931 33.3755C21.8955 33.491 21.9979 33.6066 22.0703 33.6765C22.1516 33.7799 22.224 33.8498 22.2329 33.8832C22.263 33.9287 22.2296 33.9377 22.1451 33.8888C22.0483 33.8612 21.9003 33.7757 21.6588 33.6081C21.1546 33.2606 20.7448 32.7985 20.5173 32.2161C20.4002 31.9793 20.2799 31.7971 20.1807 31.6271C20.0694 31.4782 19.9547 31.3838 19.9002 31.3806C19.8246 31.3651 19.7611 31.3285 19.7099 31.2707C19.6465 31.2341 19.6075 31.1552 19.5896 31.0885C19.5116 30.9307 19.388 30.8029 19.2311 30.6841C19.0619 30.5865 18.9228 30.5344 18.8139 30.5278C18.6715 30.5302 18.626 30.5603 18.6528 30.6603C18.6462 30.7693 18.8121 30.9215 19.0715 31.1558C19.2073 31.2624 19.3219 31.3568 19.4244 31.4723C19.5179 31.5545 19.578 31.6456 19.5748 31.7001C19.5837 31.7335 19.5292 31.7302 19.4235 31.6691C19.33 31.587 19.1608 31.4893 18.995 31.3372C18.8502 31.1972 18.7177 31.0361 18.5974 30.8539C18.4771 30.6717 18.3446 30.5106 18.221 30.3829C18.0974 30.2551 17.9494 30.1697 17.7981 30.1387C17.7225 30.1232 17.6436 30.1623 17.5736 30.2346C17.537 30.298 17.4759 30.4038 17.4238 30.5428C17.3595 30.703 17.2952 30.8632 17.1854 31.0535C17.0544 31.2316 16.9022 31.3975 16.7078 31.539C16.4035 31.8707 16.1992 32.1756 16.095 32.4538C16.0307 32.614 15.9697 32.7197 15.8997 32.7921C15.8387 32.8978 15.7386 32.9246 15.6296 32.9181C15.4873 32.9204 15.3563 33.0985 15.2277 33.4189C15.0991 33.7394 14.9794 34.0931 14.9142 34.4502C14.8368 34.8284 14.8205 35.1008 14.8774 35.2464C14.9042 35.3465 14.931 35.4465 14.9334 35.5889C14.917 35.8613 15.0275 36.207 15.1982 36.6439C15.4022 37.0718 15.9088 37.5616 16.6845 38.1222L17.3188 38.4884C19.3503 39.2666 21.2656 39.6113 23.0648 39.5224C24.8428 39.4213 26.6884 39.1055 28.5227 38.614ZM25.8841 36.104C25.6572 36.0575 25.4336 35.9566 25.2677 35.8045C25.0807 35.6401 24.9815 35.4701 24.9035 35.3123C24.8466 35.1667 24.8954 35.0821 25.0166 35.0675C25.1712 35.044 25.416 35.1571 25.8055 35.4102C25.9323 35.4834 26.047 35.5778 26.1405 35.66C26.2551 35.7544 26.282 35.8544 26.2665 35.93C26.2599 36.039 26.1265 36.0748 25.8841 36.104ZM24.1245 34.8061C24.1611 34.7427 24.2278 34.7248 24.2912 34.7614C24.3547 34.7981 24.3937 34.877 24.4538 34.9681C24.4928 35.047 24.4985 35.1348 24.4741 35.1771C24.4497 35.2194 24.3618 35.2251 24.235 35.1518C24.1927 35.1274 24.1415 35.0697 24.1236 35.003C24.1057 34.9363 24.109 34.8818 24.1245 34.8061ZM20.0146 32.2078C19.8943 32.0255 19.8464 31.9133 19.8586 31.8921C19.8496 31.8588 19.9253 31.8743 20.0521 31.9475C20.1278 31.963 20.2001 32.033 20.2725 32.1029C20.3327 32.1941 20.3839 32.2518 20.4018 32.3185C20.422 32.5276 20.4065 32.6032 20.3309 32.5877C20.2553 32.5722 20.1317 32.4445 20.0146 32.2078ZM16.9349 30.8526C17.0537 30.6956 17.0814 30.5988 17.0212 30.5077C16.9611 30.4166 16.8643 30.3889 16.7342 30.3702C16.604 30.3514 16.4706 30.3872 16.3885 30.4807C16.2851 30.562 16.2542 30.7133 16.3078 30.9134C16.3346 31.0134 16.3858 31.0712 16.4737 31.0655C16.5493 31.081 16.6282 31.042 16.7071 31.003C16.7982 30.9428 16.8771 30.9038 16.9349 30.8526ZM28.4233 36.4423C27.8703 36.1794 27.5588 36.0842 27.4889 36.1565C27.4189 36.2289 27.5181 36.3989 27.7653 36.6544C28.0124 36.9099 28.3474 37.1597 28.7581 37.425C29.1598 37.6569 29.586 37.8465 29.9853 37.9361C30.1911 37.9704 30.3 37.9769 30.2944 37.8891C30.2765 37.8224 30.2163 37.7313 30.0716 37.5913C29.948 37.4636 29.7699 37.3326 29.6041 37.1804C29.4048 37.0372 29.2479 36.9184 29.0999 36.833C28.9641 36.7264 28.8795 36.6775 28.8795 36.6775L28.4233 36.4423ZM34.4842 39.5187C34.3175 39.5634 34.2564 39.6691 34.3255 39.7936C34.3613 39.927 34.467 39.988 34.6061 40.0401C34.7573 40.0711 34.9241 40.0264 35.0884 39.8394C35.1495 39.7337 35.1528 39.6792 35.0682 39.6304C34.9958 39.5604 34.899 39.5327 34.7689 39.514C34.6599 39.5074 34.5509 39.5009 34.4842 39.5187ZM23.0285 33.384C22.9049 33.2563 22.8204 33.2075 22.796 33.2498C22.7626 33.2587 22.7471 33.3343 22.7739 33.4344C22.8007 33.5344 22.8398 33.6133 22.9333 33.6955C23.0268 33.7777 23.1236 33.8054 23.2659 33.803C23.2602 33.7151 23.2424 33.6484 23.1911 33.5907C23.1611 33.5451 23.122 33.4662 23.0708 33.4084C23.0497 33.3962 23.0497 33.3962 23.0285 33.384ZM42.8875 15.0518C42.2118 14.4643 41.2579 13.7727 40.0227 13.0313C38.7663 12.2778 37.7237 11.7886 36.8828 11.585C36.6982 11.563 36.5347 11.5532 36.4257 11.5466C36.3167 11.5401 36.2077 11.5335 36.0776 11.5148C35.9475 11.496 35.7962 11.4651 35.5815 11.3975C33.7192 10.7169 31.8062 10.5146 29.885 10.8149C29.5426 10.871 29.2213 10.9392 28.9089 11.0407C28.8755 11.0497 28.8088 11.0676 28.7755 11.0765C28.442 11.1658 28.0784 11.2097 27.6514 11.2168C27.3545 11.2428 27.0788 11.2809 26.8152 11.2979C26.5395 11.336 26.3272 11.4108 26.1905 11.501C25.7594 11.7595 25.2859 11.9936 24.7702 12.2033C24.2089 12.4431 23.6443 12.7373 23.0554 13.0739C22.7942 13.2332 22.5665 13.3836 22.3175 13.5218C21.6952 13.8673 21.0785 14.3006 20.4586 14.7884C20.3886 14.8608 20.2975 14.9209 20.1731 14.99C20.0486 15.0591 19.9485 15.0859 19.8485 15.1127C19.7484 15.1395 19.7062 15.1151 19.7094 15.0606C19.6916 14.9939 19.7648 14.8671 19.8958 14.689C20.0057 14.4987 20.0789 14.3718 20.1066 14.2751C20.1432 14.2116 20.1676 14.1693 20.192 14.1271C20.2043 14.1059 20.271 14.088 20.3254 14.0913C20.3921 14.0734 20.4889 14.1011 20.6191 14.1199C20.6947 14.1353 20.728 14.1264 20.7614 14.1175C20.7947 14.1085 20.8281 14.0996 20.8403 14.0785C20.8525 14.0573 20.8647 14.0362 20.8769 14.015C20.868 13.9817 20.8924 13.9394 20.9046 13.9183C20.929 13.876 20.9624 13.867 21.0291 13.8492C21.0624 13.8402 21.1503 13.8346 21.2593 13.8411C21.3137 13.8444 21.3959 13.7509 21.5025 13.6151C21.6368 13.3825 21.8345 13.1865 22.1111 12.9516C22.5089 12.702 22.9035 12.5069 23.2858 12.333C23.6681 12.159 24.0415 11.9518 24.4483 11.7355C25.5985 11.1592 26.669 10.8188 27.6141 10.7443C28.2201 10.6713 28.8838 10.547 29.5541 10.3138C29.8998 10.2033 30.0609 10.0708 30.0675 9.9618C30.0529 9.8406 29.9715 9.73728 29.7691 9.64856C29.5999 9.55091 29.3852 9.48333 29.1672 9.47025C29.0705 9.44256 28.9615 9.43602 28.8736 9.44168C28.798 9.42621 28.7101 9.43187 28.6012 9.42533C28.4344 9.47001 28.3433 9.53017 28.349 9.61801C28.3335 9.69365 28.3603 9.7937 28.4294 9.91817C28.1212 9.76841 27.8853 9.68863 27.7218 9.67881C27.5462 9.69014 27.4339 9.7381 27.3639 9.81046C27.2728 9.87062 27.224 9.95519 27.1963 10.052C27.1475 10.1365 27.1108 10.2 27.0653 10.2301C27.0197 10.2601 26.9563 10.2235 26.8417 10.1291C26.6847 10.0103 26.5912 9.92815 26.54 9.87039C26.4977 9.84597 26.4766 9.83376 26.4766 9.83376C26.4766 9.83376 26.4766 9.83376 26.4977 9.84597C26.5066 9.87932 26.5367 9.92488 26.5668 9.97044C26.5847 10.0371 26.6025 10.1038 26.5871 10.1795C26.6049 10.2462 26.5683 10.3096 26.4983 10.382C26.4072 10.4421 26.295 10.4901 26.1071 10.5226C25.8313 10.5607 25.6345 10.5598 25.4499 10.5378C25.2986 10.5068 25.1595 10.4547 25.0839 10.4393C25.0416 10.4149 24.9993 10.3904 24.9871 10.4116C24.966 10.3994 24.9538 10.4205 24.9505 10.475C24.9594 10.5084 24.9651 10.5962 25.0131 10.7085L25.022 10.7418C25.0366 10.863 25.0423 10.9508 24.9967 10.9809C24.9511 11.011 24.8844 11.0289 24.8088 11.0134C24.7332 10.9979 24.6364 10.9702 24.5396 10.9426C24.464 10.9271 24.3672 10.8994 24.2916 10.8839C24.2371 10.8806 24.1826 10.8774 24.1582 10.9197C24.045 11.1644 23.9384 11.3002 23.8262 11.3482C23.7351 11.4083 23.6139 11.4229 23.526 11.4286C23.4504 11.4131 23.3837 11.431 23.3381 11.4611C23.2714 11.479 23.2226 11.5635 23.2038 11.6937C23.1916 11.7148 23.1461 11.7449 23.1127 11.7538C23.0672 11.7839 22.9793 11.7896 22.9126 11.8074C22.6613 11.8033 22.3701 11.9171 22.0089 12.1032C21.8934 12.2057 21.8112 12.2992 21.7079 12.3805C21.6013 12.5163 21.4858 12.6187 21.3491 12.7089C21.2458 12.7902 21.0668 12.8561 20.9001 12.9007C20.8667 12.9097 20.8334 12.9186 20.8089 12.9609C20.7967 12.9821 20.7723 13.0243 20.7479 13.0666C20.7324 13.1423 20.6836 13.2268 20.6014 13.3203C20.5282 13.4472 20.3704 13.5252 20.167 13.6333C19.9636 13.7415 19.6781 13.9431 19.3071 14.2927C18.9361 14.6423 18.574 15.0253 18.2087 15.4628C17.8433 15.9002 17.5569 16.2987 17.3616 16.637C17.1541 16.9964 17.1166 17.2567 17.2402 17.3844C17.3036 17.421 17.4492 17.3641 17.6103 17.2316C17.7624 17.0657 17.9479 16.8909 18.1034 16.6705C18.2799 16.4624 18.4109 16.2843 18.5053 16.1696C18.5297 16.1274 18.5419 16.1062 18.5541 16.0851C18.6485 15.9704 18.7218 15.8436 18.7739 15.7045C18.8382 15.5443 18.9326 15.4296 19.0025 15.3573C19.0936 15.2971 19.2238 15.3159 19.4019 15.4469C19.5165 15.5413 19.5311 15.6624 19.4367 15.7771C19.3301 15.9129 19.1902 16.0576 19.0291 16.1902C18.8892 16.3349 18.7736 16.4373 18.667 16.5731C18.4539 16.8447 18.2651 17.074 18.1129 17.2399C17.8542 17.5416 17.641 17.8132 17.4823 18.088C17.3025 18.3507 17.0917 18.7646 16.8499 19.3298C16.5162 20.152 16.2816 21.1442 16.1707 22.2641C16.0597 23.3841 16.1977 24.3659 16.5634 25.1972C16.7406 25.5251 16.9764 25.6048 17.2254 25.4666C17.4865 25.3073 17.7509 25.0935 18.0097 24.7918C18.1618 24.6259 18.3229 24.4934 18.4628 24.3487C19.025 23.9121 19.8572 23.3495 20.9718 22.6398C22.1074 21.9423 23.2422 21.4417 24.355 21.1256C25.4889 20.8218 26.3632 21.0165 26.9323 21.7397L26.9624 21.7853C27.0973 22.0887 27.1444 22.3978 27.1125 22.7459C27.0595 23.0818 27.1001 23.4999 27.2463 23.979C27.369 24.3036 27.356 24.5215 27.2193 24.6118C27.0826 24.702 26.8703 24.7768 26.5612 24.8238C26.4189 24.8262 26.2733 24.8831 26.1187 24.9067C25.2305 25.1268 24.5179 25.3356 23.9989 25.5998C23.4799 25.8639 22.8665 26.2428 22.1132 26.7663C21.8521 26.9257 21.6487 27.0338 21.5063 27.0362C21.4396 27.054 21.3607 27.093 21.294 27.1109C21.2363 27.1621 21.1997 27.2256 21.1508 27.3101C21.1476 27.3646 21.102 27.3947 21.0898 27.4159C21.0686 27.4037 21.0353 27.4126 21.0019 27.4215C20.9597 27.3971 20.9263 27.406 20.893 27.415C20.8263 27.4329 20.8018 27.4751 20.7563 27.5052C20.6985 27.5564 20.6708 27.6532 20.5976 27.7801C20.5577 27.898 20.4877 27.9704 20.3421 28.0273C20.2177 28.0964 20.0843 28.1321 19.9387 28.189C19.6629 28.2271 19.4717 28.3141 19.3107 28.4466C19.1707 28.5914 19.1755 28.876 19.3706 29.2706C19.8161 29.8661 20.6154 30.5813 21.7807 31.395C22.9459 32.2087 24.1356 32.9802 25.3709 33.7215C26.6395 34.4539 27.6365 34.9732 28.3797 35.3459C28.6034 35.4468 28.9116 35.5966 29.2832 35.783C29.8452 36.0792 30.4282 36.3877 31.0357 36.6538C31.6432 36.92 32.106 37.0462 32.4118 37.0536C34.4876 36.7298 36.8557 35.3625 39.495 32.9395C42.1131 30.5044 43.9912 27.642 45.0748 24.3491C46.1707 21.035 45.4486 17.94 42.8875 15.0518ZM27.7999 9.83663C27.9121 9.78868 27.9788 9.7708 28.0089 9.81636C28.039 9.86192 28.0357 9.91641 28.0202 9.99205C28.0048 10.0677 27.947 10.1189 27.9014 10.149C27.8559 10.1791 27.7925 10.1424 27.7201 10.0725C27.69 10.0269 27.6933 9.97242 27.7177 9.93014C27.7421 9.88785 27.7755 9.87892 27.7999 9.83663ZM41.3292 35.1825C40.7149 35.7582 40.1861 36.1858 39.7516 36.4988C39.3294 36.7907 38.8616 37.1126 38.3849 37.4012C38.066 37.6118 37.6682 37.8613 37.2126 38.1621C36.836 38.4239 36.6627 38.5776 36.7562 38.6598C36.8286 38.7297 37.0376 38.7095 37.3711 38.6201C37.7046 38.5307 38.0414 38.3869 38.3936 38.1674C39.1315 37.7195 39.7481 37.2862 40.2314 36.8886C40.7358 36.5032 41.2712 35.9666 41.8553 35.3454C41.8887 35.3364 41.9009 35.3153 41.9587 35.2641C42.062 35.1828 42.1775 35.0803 42.3052 34.9567C42.433 34.8331 42.5062 34.7063 42.5673 34.6006C42.6283 34.4948 42.5893 34.4159 42.4591 34.3972C42.3502 34.3906 42.2379 34.4386 42.089 34.55C41.9401 34.6614 41.7913 34.7727 41.6424 34.8841C41.5147 35.0077 41.3991 35.1102 41.3292 35.1825ZM15.7883 22.4381C15.8729 22.4869 15.9274 22.4902 15.9518 22.4479C15.9762 22.4056 15.9917 22.33 15.9738 22.2633C15.947 22.1632 15.9292 22.0965 15.8869 22.0721C15.8357 22.0143 15.7901 22.0444 15.7535 22.1079C15.7169 22.1713 15.6924 22.2136 15.7103 22.2803C15.7404 22.3258 15.7583 22.3925 15.7883 22.4381ZM16.7504 17.891C16.6039 18.1447 16.4631 18.4862 16.319 18.8823C16.1749 19.2783 16.0641 19.6655 15.9656 20.0314C15.876 20.4308 15.8141 20.7333 15.7799 20.9391C15.7456 21.1448 15.7757 21.1904 15.849 21.0635C15.8612 21.0424 15.9255 20.8822 16.063 20.5951C16.2006 20.3081 16.3292 19.9876 16.4733 19.5916C16.6385 19.2077 16.7582 18.854 16.8779 18.5002C17.0065 18.1798 17.0529 17.9529 17.0505 17.8105C17.0481 17.6682 16.9481 17.695 16.7504 17.891ZM44.9629 31.1348C45.0394 30.9535 45.1004 30.8478 45.0915 30.8144C45.0825 30.7811 45.0492 30.79 44.9792 30.8624C44.9003 30.9014 44.8181 30.9949 44.7238 31.1095C44.6416 31.203 44.5594 31.2966 44.4772 31.3901C44.395 31.4836 44.3584 31.547 44.3462 31.5681C44.3129 31.5771 44.2274 31.7251 44.072 31.9455C43.9044 32.187 43.6912 32.4586 43.4747 32.7846C43.2583 33.1107 43.0874 33.4067 42.9075 33.6694C42.7488 33.9442 42.6723 34.1256 42.678 34.2134C42.6837 34.3013 42.8203 34.211 43.0969 33.9761C43.398 33.6988 43.6844 33.3004 43.9863 32.8263C44.2671 32.34 44.5112 31.9171 44.7431 31.5154C44.7342 31.4821 44.7464 31.4609 44.7586 31.4398C44.783 31.3975 44.8075 31.3552 44.8441 31.2918C44.8896 31.2617 44.9263 31.1983 44.9629 31.1348ZM15.7525 17.5685C15.7623 17.4051 15.7355 17.305 15.6843 17.2472C15.642 17.2228 15.5541 17.2285 15.4842 17.3009C15.4053 17.3399 15.3564 17.4245 15.3287 17.5212C15.31 17.6514 15.3368 17.7514 15.427 17.8881C15.4783 17.9459 15.5206 17.9703 15.5783 17.919C15.6239 17.889 15.6605 17.8255 15.676 17.7499C15.7126 17.6865 15.7281 17.6108 15.7525 17.5685ZM16.944 15.2118C16.9994 15.0183 17.027 14.9215 17.0059 14.9093C17.0059 14.9093 16.9148 14.9694 16.787 15.093C16.4372 15.4549 16.3818 15.6484 16.6242 15.6192C16.6787 15.6225 16.7365 15.5713 16.8064 15.4989C16.8553 15.4143 16.9041 15.3298 16.944 15.2118ZM17.8554 13.8774C17.8155 13.9953 17.8122 14.0498 17.8211 14.0832C17.8301 14.1165 17.8634 14.1076 17.8878 14.0653C17.9212 14.0564 17.9578 13.9929 17.9822 13.9507C18.0188 13.8872 18.0343 13.8116 18.0376 13.7571C18.0409 13.7026 18.0319 13.6693 17.9896 13.6448C17.9563 13.6538 17.9563 13.6538 17.9441 13.6749C17.9319 13.6961 17.9075 13.7384 17.8953 13.7595C17.8831 13.7806 17.8708 13.8018 17.8586 13.8229C17.8464 13.8441 17.8554 13.8774 17.8554 13.8774ZM19.7884 12.2871C20.0829 12.1189 20.1895 11.9831 20.1505 11.9042C20.1448 11.8163 20.0147 11.7976 19.8268 11.83C19.6177 11.8503 19.4144 11.9584 19.2199 12.0999C19.0133 12.2625 18.8579 12.4828 18.796 12.7854C18.7715 12.8277 18.7471 12.87 18.7016 12.9C18.6349 12.9179 18.5771 12.9691 18.5104 12.987C18.4193 13.0472 18.3404 13.0862 18.2826 13.1374C18.246 13.2008 18.2639 13.2675 18.3362 13.3375C18.4086 13.4075 18.5086 13.3807 18.612 13.2994C18.7275 13.1969 18.8552 13.0733 18.9952 12.9286C19.1929 12.7327 19.3784 12.5578 19.5273 12.4465L19.7884 12.2871ZM21.932 11.0157C22.0532 11.0011 22.1776 10.932 22.272 10.8174C22.3998 10.6938 22.5698 10.5946 22.8065 10.4776C23.6045 10.1208 24.0056 9.81671 24.0309 9.57759C24.0562 9.33847 23.7715 9.34326 23.2102 9.58302C22.8612 9.74802 22.5667 9.91629 22.2267 10.1146C22.0689 10.1927 21.9322 10.2829 21.7744 10.3609C21.7622 10.3821 21.7288 10.391 21.7288 10.391C21.5377 10.478 21.3799 10.556 21.231 10.6674C21.0943 10.7576 20.9666 10.8812 20.8689 11.0504C20.8567 11.0715 20.8234 11.0804 20.79 11.0894C20.7567 11.0983 20.7233 11.1073 20.69 11.1162C20.6233 11.1341 20.5688 11.1308 20.5021 11.1487C20.4354 11.1665 20.3776 11.2178 20.3621 11.2934C20.3133 11.378 20.3068 11.487 20.3303 11.6415C20.3416 11.8172 20.4262 11.866 20.5718 11.8091C20.7085 11.7189 20.8785 11.6197 21.0851 11.4571C21.234 11.3457 21.3829 11.2343 21.5196 11.1441C21.6896 11.0449 21.8019 10.997 21.932 11.0157ZM28.4161 8.13448C28.3616 8.13121 28.2526 8.12467 28.0647 8.15715C27.8679 8.15627 27.6467 8.19768 27.4043 8.22688C27.1619 8.25608 26.9407 8.29749 26.7528 8.32997C26.5437 8.35024 26.4103 8.38598 26.3558 8.38271C25.8556 8.51675 25.4098 8.65406 25.0063 8.81579C24.5817 8.96531 24.3117 9.0913 24.1416 9.19047C23.9716 9.28964 24.035 9.32627 24.3108 9.28813C24.5743 9.27113 25.1291 9.14036 25.9962 8.90802C26.0295 8.89908 26.1963 8.8544 26.4509 8.80405C26.7054 8.75371 26.9845 8.66108 27.3058 8.59286C27.6181 8.49129 27.8849 8.4198 28.1306 8.3361C28.3429 8.26134 28.4462 8.18004 28.4161 8.13448ZM30.3441 9.72683C30.5278 9.94568 30.7059 10.0767 30.845 10.1288C30.9962 10.1597 31.1174 10.1451 31.1663 10.0606C31.2362 9.9882 31.2428 9.87921 31.1525 9.74254C31.0834 9.61808 30.8931 9.50821 30.6061 9.37067C30.4125 9.3153 30.3035 9.30875 30.2669 9.37218C30.2392 9.46896 30.266 9.56901 30.3441 9.72683ZM32.6001 10.4091C32.6757 10.4246 32.7213 10.3945 32.7156 10.3067C32.7099 10.2189 32.662 10.1066 32.5929 9.98213C32.5149 9.82431 32.4336 9.72099 32.3311 9.60546C32.2498 9.50214 32.1775 9.43217 32.1018 9.41669C32.0595 9.39228 32.0229 9.45571 32.0464 9.61025C32.07 9.7648 32.1269 9.9104 32.2383 10.0593C32.3618 10.187 32.4643 10.3025 32.6001 10.4091ZM33.6381 9.88079C33.6235 9.7596 33.5422 9.65628 33.4275 9.56189C33.3007 9.48865 33.1827 9.44876 33.0648 9.40887C32.9347 9.39012 32.868 9.40799 32.8314 9.47142C32.807 9.51371 32.8761 9.63817 33.0631 9.80253C33.1354 9.8725 33.2412 9.93353 33.3379 9.96122C33.4437 10.0223 33.5437 9.99545 33.6381 9.88079ZM34.8864 10.4042C34.6538 10.2699 34.4936 10.2056 34.418 10.1901C34.3424 10.1746 34.3179 10.2169 34.357 10.2958C34.396 10.3747 34.4683 10.4447 34.5496 10.548C34.6643 10.6424 34.7578 10.7246 34.8513 10.8068C34.9237 10.8767 34.9993 10.8922 35.0327 10.8833C35.1116 10.8443 35.1604 10.7597 35.1124 10.6474C35.0856 10.5474 34.9921 10.4652 34.8864 10.4042ZM36.216 11.0309C36.1493 11.0488 36.116 11.0577 36.1371 11.0699C36.1461 11.1033 36.1672 11.1155 36.2306 11.1521C36.2729 11.1765 36.3364 11.2131 36.3908 11.2164C36.4543 11.253 36.5088 11.2563 36.5633 11.2595C36.5966 11.2506 36.6178 11.2628 36.6088 11.2295C36.621 11.2083 36.5576 11.1717 36.4852 11.1017C36.4007 11.0529 36.3039 11.0252 36.216 11.0309ZM17.0686 45.0252C17.1598 44.9651 17.2476 44.9594 17.3867 45.0115C17.5168 45.0303 17.6225 45.0913 17.7282 45.1523C17.8006 45.2223 17.8518 45.2801 17.8274 45.3224C17.8119 45.398 17.7029 45.3914 17.4638 45.3662C17.376 45.3718 17.258 45.3319 17.1735 45.2831C17.0678 45.2221 17.041 45.122 17.0686 45.0252ZM41.9189 47.5887C42.2572 47.7841 42.6866 47.9192 43.2405 47.9853C44.7883 47.8922 46.1947 47.6048 47.4718 47.1017C48.2666 46.7994 48.7668 46.6653 48.9092 46.663C48.7829 47.1257 48.6534 47.643 48.5418 48.2269L48.5141 48.3237C48.3942 49.4103 48.6567 50.3229 49.3437 51.0861C50.1334 51.2319 51.1908 51.1095 52.4736 50.6942C52.9494 50.6025 53.4131 50.5319 53.8189 50.5125C54.3793 50.4696 55.1098 50.3275 56.0224 50.065C56.4015 49.9456 56.6716 49.8196 56.866 49.6782C56.4577 49.5552 56.0397 49.5957 55.6118 49.7998C55.2962 49.9558 54.9415 50.033 54.5601 50.0101C54.1575 49.975 53.7516 49.9944 53.3335 50.0349C52.9032 50.0966 52.5641 50.0981 52.3461 50.085C52.486 49.9403 53.2442 49.7014 54.5871 49.3773C56.3481 49.0127 57.3787 48.7901 57.6577 48.6975C57.9457 48.6382 58.4947 48.4196 59.3594 48.0449C60.0997 47.7393 60.5064 47.5231 60.5797 47.3963C60.6041 47.354 60.6163 47.3328 60.574 47.3084C60.4894 47.2596 60.3382 47.2286 60.1291 47.2489C59.9412 47.2814 59.7111 47.2894 59.463 47.2308C59.703 47.0593 60.1065 46.8975 60.6856 46.7245C61.3437 46.5124 61.9505 46.2426 62.4728 45.9239L62.4517 45.9117C62.2191 45.7774 61.701 45.8448 60.9184 46.1259C60.0668 46.2826 59.203 46.4605 58.3269 46.6595C56.3593 47.1867 54.3315 47.6228 52.2768 47.9589C51.9132 48.0027 51.653 47.9652 51.4838 47.8675C51.2635 47.7121 51.2798 47.4396 51.5207 47.0713L51.6517 46.8932C51.8518 46.8396 51.9885 46.7493 52.0706 46.6558C52.0951 46.6135 52.1317 46.5501 52.1472 46.4745C52.1838 46.411 52.2326 46.3265 52.2814 46.2419C52.4613 45.9792 52.7257 45.7654 53.0925 45.6671L53.2959 45.559C53.3415 45.5289 53.3447 45.4744 53.3358 45.4411C53.3155 45.2321 53.3253 45.0686 53.4197 44.9539C53.5662 44.7002 53.9185 44.4807 54.422 44.2922C54.6799 44.1873 54.9044 44.0914 55.0532 43.9801C55.2965 43.754 55.6032 43.5646 55.8855 43.4175C56.1889 43.2826 56.3833 43.1411 56.4688 42.9931C56.5754 42.8573 56.5429 42.6694 56.4015 42.475C56.3657 42.3416 56.3967 42.1903 56.4821 42.0423C56.5887 41.9065 56.7075 41.7496 56.8507 41.5503L56.7239 41.4771C56.6393 41.4283 56.5824 41.2827 56.5743 41.0525C56.607 40.5075 56.4331 40.1252 56.0525 39.9055C55.8622 39.7956 55.6443 39.7825 55.3685 39.8207C55.1139 39.871 53.997 40.4384 52.0422 41.4805C51.5566 41.7357 50.9587 42.0389 50.2485 42.39L49.8629 42.6185C48.1692 43.5012 46.6798 44.079 45.4279 44.343C44.3518 44.5956 43.6279 44.6287 43.2685 44.4212C43.0481 44.2658 43.0856 44.0055 43.3387 43.616C43.7138 43.015 44.6047 42.2044 46.0113 41.1841C46.9624 40.4646 47.8735 39.863 48.6992 39.4094C49.616 38.8957 50.1171 38.5648 50.1904 38.438C50.227 38.3745 50.2091 38.3078 50.1156 38.2256C50.031 38.1768 49.8708 38.1125 49.6895 38.036C49.7538 37.8758 49.8303 37.6944 49.9369 37.5586C49.9312 37.4708 49.8988 37.2829 49.8061 37.0039C49.5664 36.4426 49.3046 36.0659 49.0509 35.9195C48.8394 35.7974 48.5336 35.79 48.1456 35.8761C46.9742 36.4401 45.5343 37.4694 43.8379 38.9426C42.8381 39.7467 42.0074 40.6485 41.3913 41.6178C40.4645 43.0278 40.4232 44.8082 41.3099 46.9834C41.427 47.2201 41.6441 47.4301 41.9189 47.5887ZM43.8777 47.0282C43.7931 46.9793 43.763 46.9338 43.7996 46.8703C43.8574 46.8191 43.9029 46.789 43.9908 46.7834C44.2388 46.842 44.6569 46.8015 45.2328 46.6829C45.851 46.5888 46.1812 46.5539 46.2446 46.5905C46.208 46.654 45.7745 46.7701 44.9529 46.9724C44.3347 47.0665 43.9834 47.0892 43.8777 47.0282ZM46.666 46.4955L46.6448 46.4833L46.6725 46.3865C46.6969 46.3442 46.797 46.3174 46.9515 46.2939L46.9637 46.2727L46.9849 46.2849C47.2428 46.1801 47.3973 46.1566 47.4396 46.181C47.4274 46.2021 47.3818 46.2322 47.3363 46.2623C47.2574 46.3013 47.1907 46.3192 47.1117 46.3582C47.0117 46.385 46.8661 46.4419 46.666 46.4955ZM57.5941 56.8643C57.6575 56.901 57.8478 57.0108 58.1772 57.1728C58.5065 57.3347 59.2149 57.3773 60.3113 57.3337C60.8051 57.3086 61.5534 57.2332 62.5351 57.0953C63.1199 57.0101 63.5746 56.9061 63.9204 56.7956C64.2449 56.6729 64.4784 56.6103 64.6329 56.5868C64.7753 56.5844 64.9631 56.5519 65.1844 56.5105C65.3145 56.5293 65.7147 56.422 66.4395 56.1921C66.6852 56.1084 66.8308 56.0515 66.8674 55.9881C66.8373 55.9425 66.695 55.9449 66.4737 55.9863C64.0254 56.3206 61.6447 56.4403 59.2982 56.3541C59.2771 56.3419 59.2437 56.3508 59.1892 56.3476C59.1347 56.3443 59.0591 56.3288 58.9835 56.3133C58.929 56.3101 58.8533 56.2946 58.8233 56.249C58.781 56.2246 58.772 56.1913 58.8087 56.1278C58.9486 55.9831 59.2276 55.8905 59.7213 55.8654C60.7332 55.773 61.4204 55.8033 61.8043 55.9686C62.0312 56.015 62.2947 55.998 62.6071 55.8964C62.7738 55.8517 62.9072 55.816 63.0374 55.8348C65.7727 55.638 68.5277 55.1143 71.3568 54.2668C72.4606 53.9175 73.0553 53.6688 73.1407 53.5208C73.0984 53.4963 72.5348 53.5938 71.483 53.8041L70.6859 53.9641C70.8559 53.8649 71.963 53.461 73.995 52.7736C74.7531 52.5347 75.1688 52.3518 75.2176 52.2672C75.2298 52.2461 75.2298 52.2461 75.2087 52.2339C75.1241 52.1851 74.427 52.3182 73.093 52.6757C70.534 53.3971 67.8913 53.8729 65.1526 54.1241C63.7138 54.2237 62.336 54.2176 61.0135 54.0179C60.2872 53.9087 59.6765 53.697 59.2235 53.4073C58.8763 53.1786 58.6413 52.902 58.4763 52.553L58.4072 52.4286C58.2991 52.2252 58.2967 52.0829 58.3456 51.9983C58.37 51.956 58.4277 51.9048 58.4977 51.8324C58.5888 51.7723 58.671 51.6788 58.7442 51.5519C58.8175 51.425 58.8818 51.2648 58.9217 51.1469C58.9949 51.02 59.0348 50.9021 59.0959 50.7964C59.2057 50.6061 59.3513 50.5492 59.4871 50.6558L59.5806 50.738C59.6018 50.7502 59.6351 50.7413 59.6473 50.7201C59.6473 50.7201 59.6717 50.6778 59.675 50.6234C59.6783 50.5689 59.7027 50.5266 59.706 50.4721C59.7092 50.4176 59.7337 50.3753 59.7581 50.333C60.0632 49.8044 60.3577 49.6362 60.6415 49.8282L60.9554 50.0658C61.4596 50.4133 62.3005 50.6169 63.4327 50.7067C63.6506 50.7198 64.0354 50.6882 64.5746 50.6331C65.7077 50.5261 66.3649 50.5108 66.5129 50.5963L66.5007 50.6174C66.3664 50.85 65.7449 50.9986 64.6241 51.0845C63.788 51.1655 63.0974 51.1897 62.4858 51.1749C62.3256 51.1106 62.0987 51.0642 61.8384 51.0267C61.8384 51.0267 61.7839 51.0234 61.7294 51.0201C61.6871 50.9957 61.6115 50.9802 61.5025 50.9737C61.4057 50.946 61.339 50.9639 61.3146 51.0062C61.3024 51.0273 61.3203 51.094 61.3926 51.164C61.5252 51.3251 61.6032 51.4829 61.5633 51.6008C61.5568 51.7098 61.5836 51.8098 61.7104 51.8831C61.7739 51.9197 61.8796 51.9807 62.0186 52.0328C63.0165 52.3552 64.4521 52.3101 66.2497 51.8821C67.2258 51.6563 67.8758 51.214 68.2543 50.5586C68.3153 50.4529 68.3186 50.3984 68.2551 50.3618C68.2128 50.3373 68.0583 50.3609 67.7704 50.4202C67.4246 50.5307 67.2156 50.5509 67.1644 50.4932L67.092 50.4232C67.1986 50.2874 67.3931 50.1459 67.6631 50.02C68.0121 49.855 68.2187 49.6924 68.3042 49.5444C68.3774 49.4175 68.384 49.3085 68.3059 49.1507C68.2035 49.0352 68.2133 48.8717 68.3354 48.6603C68.403 48.4456 68.525 48.2341 68.6593 48.0015C68.7147 47.808 68.6977 47.5445 68.5538 47.2077C68.323 46.6797 67.9433 46.2632 67.4814 45.9401C66.5877 45.3396 65.6232 45.0083 64.5756 44.9673C62.7976 45.0684 61.0813 45.5997 59.4266 46.5614C58.3154 47.2166 57.3456 48.0662 56.4928 49.1526C56.3163 49.3608 56.1942 49.5722 56.0721 49.7836C55.9379 50.0162 55.8247 50.261 55.7083 50.5603C55.5797 50.8807 55.5535 51.3166 55.5843 51.8982C55.6126 52.3374 55.6141 52.6766 55.5733 52.9913C55.5448 53.2849 55.5707 53.5818 55.5966 53.8787C55.6437 54.1878 55.8087 54.5368 56.0672 54.9679C56.6021 55.8969 57.1111 56.5291 57.5941 56.8643ZM62.2515 48.6998C62.1157 48.5932 62.0556 48.5021 62.1166 48.3964C62.1532 48.3329 62.2565 48.2516 62.4021 48.1947C62.7967 47.9997 63.2969 47.8656 63.9029 47.7926C64.7513 47.6904 65.4019 47.7842 65.8215 48.0828C66.0541 48.2171 66.1199 48.396 66.0222 48.5652C65.8391 48.8823 65.3568 49.0831 64.5328 49.143C63.5243 49.1809 62.7557 49.0473 62.2515 48.6998ZM60.0231 50.6552C60.2858 50.835 60.5094 50.9359 60.694 50.958C60.8787 50.98 60.9787 50.9532 61.0031 50.9109C61.052 50.8263 60.9796 50.7563 60.8438 50.6498C60.7381 50.5887 60.5901 50.5033 60.3876 50.4145C60.2908 50.3869 60.1907 50.4137 60.0818 50.4071C59.9606 50.4217 59.9028 50.473 59.8784 50.5152C59.8662 50.5364 59.8963 50.5819 60.0231 50.6552ZM66.9317 63.2985C67.8897 63.7388 68.9787 64.0011 70.2109 64.0641C70.9315 64.0855 71.3585 64.0783 71.5042 64.0214C71.5953 63.9612 71.7165 63.9466 71.8466 63.9654C71.9979 63.9963 72.2614 63.9793 72.6494 63.8933C72.6494 63.8933 72.6616 63.8721 72.6827 63.8843C73.1374 63.7804 73.4042 63.7089 73.5043 63.6821C73.85 63.5716 74.221 63.2219 74.6262 62.6665L74.9436 62.1168C75.4905 61.023 75.486 60.0055 74.9422 59.0432C74.4552 58.2264 73.9284 57.5276 73.3739 56.9255C73.3527 56.9133 73.3316 56.9011 73.3227 56.8677C73.3227 56.8677 73.169 56.6945 72.8917 56.3934C72.3884 55.8491 72.1901 55.5091 72.2967 55.3733C72.3211 55.331 72.3878 55.3131 72.4756 55.3075C72.5513 55.3229 72.6302 55.2839 72.6912 55.1782C74.4882 54.2142 76.1483 54.0732 77.7138 54.7797C78.2001 55.0604 78.5953 55.4013 78.8782 55.7902C79.0587 56.0636 79.2335 56.2491 79.4148 56.3256C79.6173 56.4143 79.8085 56.3273 80.0217 56.0557C80.6434 55.1743 80.9503 54.252 80.9669 53.2467C80.9793 52.4928 80.646 51.8493 79.9671 51.3163L79.9036 51.2797C78.6797 50.714 77.2784 50.5534 75.6784 50.7855C74.0907 50.9964 72.6233 51.3896 71.2762 51.965C70.9418 52.2512 70.7197 52.4895 70.5643 52.7098C70.1591 53.2652 69.8197 53.9996 69.5672 54.9251C69.4809 55.2699 69.4223 55.518 69.4214 55.7148C69.4083 55.9328 69.5644 56.2484 69.8863 56.7162C70.5236 57.7607 71.0749 58.4173 71.4945 58.7159C71.6124 58.7558 71.7449 58.9169 71.8709 59.187C71.9424 59.4538 72.0627 59.636 72.2196 59.7548C72.3676 59.8402 72.4546 60.0314 72.4627 60.2616C72.4561 60.3706 72.4407 60.4462 72.404 60.5096C72.3096 60.6243 72.0518 60.7291 71.6004 60.7786C70.6731 60.9198 69.6678 60.9032 68.5845 60.7288C67.9639 60.6806 67.3076 60.4991 66.6155 60.1841C65.9235 59.8691 65.3836 59.3882 65.047 58.7992L64.7927 58.1168C64.7504 58.0923 64.7203 58.0468 64.7114 58.0134C64.6577 57.8133 64.5764 57.71 64.5341 57.6856C64.4919 57.6612 64.4007 57.7213 64.3153 57.8694C63.8848 58.6639 63.8301 59.3934 64.1511 60.058C64.6404 61.0171 65.3852 61.729 66.4067 62.206C67.4403 62.6618 68.6838 62.9005 70.1796 62.9465C71.1816 63.0176 71.7265 63.0503 71.8111 63.0992C71.8534 63.1236 71.8623 63.1569 71.8501 63.1781C71.7679 63.2716 71.5678 63.3252 71.2376 63.3601C70.5438 63.4387 70.0956 63.4337 69.9265 63.336C69.6874 63.3108 69.545 63.3132 69.445 63.34C69.1814 63.357 68.5975 63.2453 67.6809 63.0263C67.2393 62.9122 66.949 62.8292 66.8221 62.7559L66.3716 62.6086C65.8454 62.4457 65.564 62.396 65.5518 62.4172C65.5151 62.4806 65.7444 62.6694 66.2641 62.9412C66.4755 63.0633 66.7081 63.1976 66.9317 63.2985ZM79.1618 53.9806C78.7276 53.5608 78.426 53.302 78.2023 53.2011C77.9998 53.1124 77.5582 52.9984 76.8986 52.8713L76.4147 52.7329C76.5969 52.6125 77.0451 52.6176 77.7291 52.7024C77.9894 52.7399 78.2041 52.8074 78.4277 52.9084C78.6936 53.0337 78.9351 53.2013 79.1522 53.4113C79.3693 53.6212 79.4352 53.8001 79.3863 53.8847C79.3286 53.9359 79.2619 53.9538 79.1618 53.9806ZM76.2344 74.8714C76.4247 74.9812 76.6304 75.0155 76.885 74.9651C76.5496 73.4465 76.5549 72.2655 76.8585 71.3978C76.9677 70.6715 77.155 70.103 77.3658 69.6891C77.5766 69.2751 77.7353 69.0003 77.8207 68.8523C78.2235 68.1546 78.8363 67.2397 79.6378 66.0956L79.7111 65.9687C79.7533 65.9932 79.8078 65.9964 79.8745 65.9786C79.9412 65.9607 79.999 65.9095 80.0478 65.8249C80.0755 65.7281 80.0731 65.5858 80.0284 65.419C79.9894 65.3401 79.9715 65.2734 79.996 65.2311C80.0082 65.21 80.0415 65.2011 80.0537 65.1799C80.1383 65.2287 80.2351 65.2564 80.3441 65.263C80.5954 65.2671 80.942 64.9598 81.3838 64.341C81.4538 64.2686 81.5148 64.1629 81.6003 64.0149C81.6158 63.9392 81.6068 63.9059 81.5857 63.8937C81.2677 63.9074 81.1253 63.9098 81.1042 63.8976C81.083 63.8854 81.1074 63.8431 81.1441 63.7797C81.2051 63.674 81.3418 63.5837 81.5541 63.509C81.6663 63.461 81.7664 63.4342 81.842 63.4497C82.0266 63.4717 82.1145 63.466 82.1478 63.4571C82.16 63.4359 82.3 63.2912 82.5799 63.0018C82.8077 62.8514 82.9687 62.7188 83.0965 62.5952C83.2242 62.4717 83.3275 62.3904 83.3853 62.3391C83.4431 62.2879 83.5041 62.1822 83.5651 62.0765C83.5562 62.0431 83.5261 61.9976 83.4871 61.9187C83.4359 61.8609 83.4546 61.7308 83.5645 61.5405C83.6622 61.3713 83.7533 61.3112 83.8378 61.36C83.9013 61.3966 83.9525 61.4544 83.9915 61.5333C84.0305 61.6122 84.0606 61.6578 84.0817 61.67C84.0907 61.7033 84.0907 61.7033 84.1118 61.7155C84.1997 61.7099 84.2908 61.6497 84.364 61.5228C84.3884 61.4806 84.3917 61.4261 84.3828 61.3927C84.4682 61.2447 84.5382 61.1723 84.5805 61.1968L84.9789 61.4832L85.0456 61.4653C85.0188 61.3653 84.9197 61.1952 84.766 61.0219C84.6123 60.8487 84.5432 60.7242 84.5709 60.6274C84.6319 60.5217 84.7141 60.4282 84.7963 60.3347C84.8785 60.2412 84.9484 60.1688 85.0274 60.1298C85.0851 60.0786 85.1396 60.0818 85.1608 60.094C85.203 60.1185 85.1876 60.1941 85.1355 60.3332C85.0467 60.5356 85.0491 60.678 85.1126 60.7146C85.4273 60.7554 85.6885 60.596 85.8838 60.2578C86.018 60.0252 86.0311 59.8072 85.9141 59.5705L85.9263 59.5493L85.9474 59.5615C86.3492 59.7935 86.7217 59.783 87.0772 59.509C87.3172 59.3375 87.5393 59.0993 87.7614 58.861C88.0625 58.5838 88.3269 58.3699 88.5424 58.2407C88.6002 58.1895 88.658 58.1382 88.719 58.0325C88.7556 57.9691 88.7711 57.8935 88.7866 57.8178C88.7809 57.73 89.1487 57.4348 89.9353 56.9024L89.9475 56.8812C89.9842 56.8178 90.0509 56.7999 90.1721 56.7853C90.4657 56.8139 90.6536 56.7814 90.7024 56.6968L90.6845 56.6301C90.6967 56.609 90.7423 56.5789 90.8423 56.5521C91.088 56.4684 91.2458 56.3904 91.2946 56.3058L91.2988 56.0545L91.3598 55.9487C92.3544 56.3256 92.9196 56.5674 93.0676 56.6528C93.5572 56.8791 93.8809 56.9532 94.072 56.8663C94.2421 56.7671 94.3633 56.7525 94.4267 56.7891L94.4413 56.9103C94.4315 57.0738 94.4672 57.2072 94.603 57.3138C94.7933 57.4236 94.9747 57.5002 95.1804 57.5344C96.136 57.8324 97.3599 58.398 98.8611 59.2647C99.2506 59.5178 99.6946 59.7742 100.139 60.0305C100.978 60.6278 101.542 61.0664 101.832 61.3462C102.088 61.6351 102.395 61.9817 102.711 62.3616C102.967 62.6504 103.121 62.8237 103.227 62.8847C103.311 62.9336 103.39 62.8946 103.476 62.7465C103.552 62.5652 103.517 62.4318 103.414 62.3163L103.267 62.034C103.291 61.9917 103.337 61.9616 103.413 61.9771C103.488 61.9926 103.534 61.9625 103.57 61.8991C103.535 61.0328 103.32 60.4293 102.912 60.1095C102.641 59.8963 102.529 59.7474 102.557 59.6506C102.569 59.6295 102.602 59.6206 102.657 59.6238C102.711 59.6271 102.775 59.6637 102.893 59.7036C102.99 59.7313 103.074 59.7801 103.138 59.8168C103.201 59.8534 103.243 59.8778 103.298 59.8811C103.017 59.0985 101.785 58.1058 99.5955 56.8697C97.4055 55.6335 95.6319 54.7504 94.2535 54.2083C94.4935 54.0368 94.8913 53.7872 95.4591 53.4384C96.1636 52.9995 96.7648 52.6418 97.2716 52.3987C97.7995 52.1679 98.1306 51.9362 98.2893 51.6614C98.3625 51.5345 98.3301 51.3466 98.2008 51.131C98.0025 50.791 97.9765 50.4941 98.0807 50.216L98.3216 49.8476C98.3794 49.7964 98.4282 49.7118 98.4892 49.6061C98.6268 49.319 98.5586 48.9977 98.3301 48.6121C98.0871 48.1053 97.8131 47.7498 97.496 47.5667C97.0308 47.2981 96.5094 47.42 95.9106 47.92C95.5673 48.1728 95.2362 48.4045 94.8962 48.6029L91.7885 50.8118C90.9586 51.5167 90.3509 51.9833 89.9775 52.1906C89.6383 52.1921 88.1875 51.58 85.6072 50.2876C83.749 49.3557 82.6641 48.8422 82.3648 48.7258C81.6728 48.4108 81.2377 48.1878 81.0474 48.0779L80.8059 47.9103L80.5188 47.7727C80.4855 47.7817 80.4432 47.7573 80.4009 47.7328C80.0415 47.5253 79.8146 47.4789 79.7413 47.6057L79.7291 47.6269C79.5785 48.1319 80.0062 48.6607 80.9999 49.2345C81.613 49.5885 82.0538 49.8993 82.292 50.1214C82.3644 50.1914 82.4156 50.2492 82.479 50.2858C82.9856 50.7756 83.2328 51.0311 83.2084 51.0734C82.8847 50.9992 82.7 50.9772 82.6634 51.0406C82.6658 51.183 82.756 51.3197 82.8918 51.4262L83.9913 52.061L84.0214 52.1066C84.0002 52.0944 83.9457 52.0911 83.8156 52.0723C83.6855 52.0536 83.5976 52.0593 83.5732 52.1015C83.561 52.1227 83.5577 52.1772 83.5878 52.2227C83.6894 52.5351 84.0846 52.876 84.7611 53.2666L87.4392 54.3899C87.2903 54.5013 87.1625 54.6249 87.0559 54.7607L83.953 57.2542C81.6156 59.2031 79.5775 61.2684 77.8298 63.4167C77.3391 64.1201 76.9062 64.7722 76.5522 65.3854C75.8808 66.5483 75.4339 67.6152 75.2116 68.5863C74.4691 70.7512 74.5759 72.6171 75.5229 74.1505C75.7969 74.506 76.0441 74.7615 76.2344 74.8714ZM78.6212 65.9033C78.6 65.8911 78.6277 65.7943 78.692 65.6341C78.7287 65.5707 78.7742 65.5406 78.7954 65.5528C78.8254 65.5984 78.7977 65.6952 78.7367 65.8009C78.6879 65.8855 78.6635 65.9277 78.6212 65.9033ZM79.2852 65.0463L79.3828 64.8771C79.5903 64.5177 79.7547 64.3307 79.906 64.3616C79.9271 64.3738 79.9149 64.395 79.8905 64.4373L79.5585 64.8658C79.3974 64.9983 79.3063 65.0585 79.2852 65.0463ZM80.7522 63.3843C80.7522 63.3843 80.7432 63.3509 80.7676 63.3086C81.0207 62.9191 81.2461 62.6264 81.4772 62.4215C81.7082 62.2166 81.8449 62.1264 81.9083 62.163L81.9173 62.1963C81.8684 62.2809 81.7163 62.4468 81.4819 62.7062C81.4486 62.7151 81.4152 62.724 81.3786 62.7875C81.342 62.8509 81.2842 62.9021 81.2021 62.9956C81.0987 63.0769 81.0288 63.1493 80.9588 63.2216C80.8766 63.3152 80.8189 63.3664 80.7855 63.3753L80.7522 63.3843ZM85.4117 58.8294C85.3905 58.8172 85.4027 58.796 85.4149 58.7749C85.4638 58.6903 85.5671 58.609 85.7338 58.5643C85.8005 58.5464 85.855 58.5497 85.8762 58.5619C85.8851 58.5953 85.8729 58.6164 85.8607 58.6376C85.8241 58.701 85.7663 58.7522 85.6541 58.8002C85.5418 58.8481 85.4751 58.866 85.4117 58.8294ZM86.5852 59.1404C86.5007 59.0916 86.4494 59.0338 86.4861 58.9704C86.5682 58.8769 86.6349 58.859 86.6984 58.8957C86.7829 58.9445 86.813 58.99 86.7642 59.0746C86.7398 59.1169 86.6942 59.147 86.5852 59.1404ZM95.8873 57.2377C95.7816 57.1767 95.667 57.0823 95.5344 56.9212C95.5955 56.8155 95.9492 56.9352 96.5624 57.2892C96.8161 57.4357 96.9185 57.5512 96.8819 57.6146C96.8331 57.6992 96.5127 57.5706 95.8873 57.2377ZM97.8813 58.2762L97.7756 58.2152C97.7122 58.1786 97.661 58.1208 97.6309 58.0752C97.6553 58.0329 97.7098 58.0362 97.7944 58.085C97.8789 58.1339 97.9302 58.1916 97.9903 58.2828L97.8813 58.2762ZM101.933 60.9258C101.891 60.9014 101.87 60.8892 101.894 60.8469C101.919 60.8046 101.952 60.7956 102.019 60.7778C102.073 60.781 102.116 60.8055 102.116 60.8055C102.2 60.8543 102.251 60.9121 102.215 60.9755C102.178 61.0389 102.081 61.0112 101.933 60.9258ZM101.101 60.2195C100.614 59.9388 99.8265 59.3993 98.7458 58.6344C99.2809 58.8305 99.7371 59.0658 100.181 59.3221C101.196 59.908 101.667 60.2644 101.615 60.4035C101.59 60.4458 101.43 60.3815 101.101 60.2195ZM94.5868 62.3224C95.0731 62.6031 95.8002 62.5155 96.7471 62.0474C97.0505 61.9124 97.3418 61.7987 97.5874 61.715C97.9421 61.6378 98.1698 61.4874 98.2797 61.2971C98.3196 61.1792 98.3595 61.0613 98.3815 60.8767C98.4035 60.692 98.4434 60.5741 98.48 60.5107C98.5077 60.4139 98.5533 60.3838 98.5744 60.396C98.5744 60.396 98.6078 60.3871 98.6289 60.3993C98.6501 60.4115 98.6834 60.4026 98.6834 60.4026C98.7046 60.4148 98.6956 60.3814 98.7078 60.3603C98.7763 59.9487 98.5723 59.5209 98.1291 59.0677C97.7494 58.6511 97.3843 58.3558 97.0249 58.1482C96.5288 58.031 95.9863 58.1406 95.3973 58.4771C94.8083 58.8137 94.4284 59.1299 94.2119 59.456C94.0288 59.7732 93.8978 59.9512 93.8823 60.0269C93.6471 60.4831 93.6088 60.9402 93.7794 61.377C94.0257 61.8293 94.2908 62.1515 94.5868 62.3224ZM83.39 68.0928C83.2753 67.9984 83.264 67.8227 83.3738 67.6324C83.5049 67.4543 83.6293 67.3852 83.7562 67.4585C83.883 67.5317 83.8976 67.6529 83.8 67.8221C83.6746 68.088 83.538 68.1782 83.39 68.0928ZM83.3033 71.9049C83.6839 72.1246 84.1312 72.3265 84.7119 72.4926L84.99 72.5968C85.2926 72.6587 85.465 72.7019 85.5195 72.7051C85.574 72.7084 85.6407 72.6905 85.6862 72.6605C85.7651 72.6215 85.8652 72.5946 86.0319 72.55C86.5899 72.3647 87.4172 72.2503 88.4924 72.1945C89.1285 72.1671 89.6043 72.0753 89.9199 71.9192C90.3356 71.7364 90.5634 71.586 90.6367 71.4591C90.6489 71.438 90.6399 71.4046 90.6188 71.3924C90.5342 71.3436 90.2373 71.3695 89.7403 71.4491C88.5463 71.6618 87.4165 71.7143 86.3722 71.6188C84.8708 71.4849 84.0144 71.3569 83.7818 71.2227C83.7607 71.2105 83.7607 71.2105 83.7729 71.1893C83.8095 71.1259 84.3154 71.0797 85.2451 71.0808C87.8283 71.0499 90.1033 70.8693 92.0522 70.4722C94.3933 69.7376 96.3838 68.8289 97.9995 67.7884C98.3729 67.5811 98.5673 67.4396 98.6405 67.3128C98.6772 67.2493 98.6715 67.1615 98.6203 67.1037C98.5813 67.0248 98.5634 66.9581 98.5455 66.8914L98.91 66.6508C99.4322 66.3321 99.7178 66.1305 99.7544 66.0671C99.7666 66.0459 99.7666 66.0459 99.7455 66.0337C99.7243 66.0215 99.6031 66.0361 99.4152 66.0686C96.1053 67.4559 93.6487 68.2929 92.0333 68.6006C90.4089 68.875 88.8644 68.9136 87.3784 68.7041L87.2727 68.643C87.1036 68.5454 87.0678 68.412 87.1443 68.2306C87.3641 67.85 88.2029 67.1785 89.703 66.2404C90.3863 65.7892 90.9452 65.4071 91.3585 65.0819C91.7018 64.829 92.0419 64.6307 92.3876 64.5202C92.9456 64.3349 93.2889 64.0821 93.4265 63.795C93.5852 63.5201 93.5357 63.0687 93.3025 62.3984C93.0172 61.8672 92.6887 61.5084 92.3292 61.3009C91.6527 60.9103 90.8466 61.0369 89.911 61.6808C89.7744 61.771 89.6165 61.849 89.4376 61.9149C89.2464 62.0018 89.1097 62.0921 88.9853 62.1612C86.9718 63.4513 85.1722 65.0059 83.5775 66.7915C83.0844 67.3525 82.7125 67.899 82.4529 68.3975C81.6586 69.9686 81.9502 71.1237 83.3033 71.9049ZM84.1939 67.091C84.1304 67.0544 84.1337 66.9999 84.1281 66.912C84.1435 66.8364 84.159 66.7607 84.1956 66.6973L84.2445 66.6127C84.3755 66.4347 84.5032 66.3111 84.6854 66.1908C84.8343 66.0794 84.9832 65.968 85.0987 65.8656C85.1931 65.7509 85.3542 65.6184 85.5942 65.4468C85.8252 65.2419 86.0652 65.0704 86.3386 64.8899C86.5786 64.7184 86.773 64.5769 86.9186 64.52C87.0764 64.442 87.222 64.3851 87.3343 64.3372C87.4677 64.3014 87.5743 64.1656 87.6964 63.9542L87.7729 63.7728C87.8616 63.5703 87.9348 63.4435 87.9926 63.3923C88.0292 63.3288 88.257 63.1784 88.6727 62.9956C89.0217 62.8306 89.2495 62.6802 89.3438 62.5655C89.557 62.2939 89.7303 62.1403 89.8759 62.0834C89.9882 62.0354 90.0882 62.0086 90.1761 62.003C90.2973 61.9883 90.4217 61.9193 90.5918 61.8201C90.8317 61.6485 91.1286 61.6226 91.4946 61.7211L91.5914 61.7488C91.7182 61.8221 91.7451 61.9221 91.684 62.0278C91.6563 62.1246 91.5107 62.1815 91.2683 62.2107C91.0048 62.2277 90.8291 62.239 90.6868 62.2414C90.5444 62.2438 90.4322 62.2918 90.3834 62.3763C90.3467 62.4398 90.1645 62.5601 89.8822 62.7072L89.4511 62.9657L89.1086 63.0217C88.8752 63.0843 88.7141 63.2168 88.6286 63.3648C88.592 63.4282 88.5432 63.5128 88.4521 63.573C88.3699 63.6665 88.2877 63.76 88.1811 63.8958C88.0745 64.0316 87.959 64.134 87.8435 64.2365C87.7312 64.2844 87.6401 64.3446 87.5913 64.4292C87.5636 64.5259 87.4814 64.6194 87.3659 64.7219L86.8916 65.1528C86.7427 65.2642 86.5727 65.3634 86.3904 65.4837C86.017 65.691 85.8015 65.8202 85.7437 65.8715C85.6737 65.9438 85.4948 66.0096 85.1946 66.0901C85.0734 66.1047 84.9701 66.186 84.9058 66.3462L84.4306 66.9739C84.3151 67.0764 84.2362 67.1154 84.1939 67.091ZM95.0585 59.7475C95.0284 59.7019 95.0195 59.6686 95.0561 59.6051C95.1172 59.4994 95.3816 59.2856 95.8705 58.9759C96.2772 58.7596 96.5229 58.6759 96.5863 58.7126C96.6286 58.737 96.6376 58.7703 96.6009 58.8338C96.5399 58.9395 96.321 59.1232 95.9899 59.3549C95.4254 59.6492 95.122 59.7841 95.0585 59.7475ZM98.5372 77.5992C98.6006 77.6358 98.6673 77.6179 98.7162 77.5334C98.765 77.4488 98.7471 77.3821 98.6837 77.3455C98.5991 77.2966 98.5324 77.3145 98.4714 77.4202C98.4225 77.5048 98.4526 77.5504 98.5372 77.5992ZM92.8941 77.9496C93.0966 78.0383 93.4292 78.1457 93.9164 78.2297C94.3824 78.3014 94.8395 78.3398 95.2665 78.3326C95.7057 78.3043 95.9847 78.2116 96.0946 78.0213C96.1678 77.8945 96.3256 77.8165 96.6014 77.7783C96.856 77.728 96.9983 77.7256 97.0617 77.7622C97.0829 77.7744 97.0829 77.7744 97.0707 77.7955C97.0463 77.8378 96.9673 77.8768 96.8095 77.9549C96.5639 78.0386 96.4394 78.1077 96.4272 78.1288C96.415 78.15 96.415 78.15 96.4361 78.1622C96.4996 78.1988 96.742 78.1696 97.1666 78.0201C97.4911 77.8973 97.6612 77.7982 97.6978 77.7347C97.71 77.7136 97.71 77.7136 97.6888 77.7014L97.5075 77.6249C97.4441 77.5883 97.4351 77.5549 97.4595 77.5126C97.5206 77.4069 97.7996 77.3143 98.321 77.1924C98.9091 77.0527 99.4248 76.8431 99.8438 76.6057C100.254 76.335 100.512 76.2301 100.587 76.2456C100.651 76.2822 100.73 76.2432 100.803 76.1164C100.876 75.9895 100.955 75.9505 101.052 75.9782C101.136 76.027 101.294 75.949 101.525 75.7441C101.677 75.5782 101.781 75.4969 101.844 75.5335C101.886 75.5579 101.913 75.658 101.882 75.8093C101.951 75.9337 102.087 76.0403 102.32 76.1746C102.721 76.4065 103.362 76.6638 104.233 76.9129C104.738 77.0635 105.117 77.1409 105.356 77.1662C106.176 77.1608 106.97 77.0553 107.771 76.8408L107.946 76.8295L106.566 76.681C105.666 76.7255 104.792 76.5308 103.961 76.1637C103.626 75.9139 103.481 75.774 103.506 75.7317C103.542 75.6683 103.727 75.6903 104.093 75.7888C104.426 75.8963 104.61 75.9183 104.631 75.9305C105.267 76.0999 105.929 76.1725 106.641 76.1605C108.043 76.1244 108.776 76.1246 108.822 76.0945C108.855 76.0856 108.943 76.0799 109.085 76.0775C109.821 76.0233 110.218 75.9705 110.243 75.9282C110.179 75.8916 109.864 75.8509 109.341 75.8304C108.478 75.8114 107.945 75.7575 107.797 75.6721C108.457 75.6023 109.039 75.5716 109.508 75.5888C109.999 75.6183 110.383 75.5867 110.662 75.4941C110.908 75.4104 111.12 75.3356 111.254 75.2999C111.609 75.2227 111.945 75.0788 112.31 74.8382C111.648 74.5688 111.178 74.5515 110.917 74.7109C109.585 74.6747 108.568 74.6792 107.868 74.67C107.169 74.6609 106.43 74.5728 105.598 74.4025C105.498 74.4293 105.283 74.3618 104.966 74.1787C104.734 74.0444 104.656 73.8866 104.778 73.6751C104.958 73.4125 105.092 73.1799 105.223 73.0018C105.354 72.8237 105.476 72.6123 105.598 72.4009C105.821 71.9658 105.941 71.612 105.994 71.2761C105.967 71.1761 106.019 71.037 106.117 70.8679C106.355 70.3572 106.372 69.8879 106.144 69.5023C106.032 69.3534 105.906 69.0833 105.754 68.7132C105.489 68.1942 105.258 67.8631 105.025 67.7288C104.941 67.68 104.789 67.649 104.593 67.6482C104.417 67.6595 104.266 67.6285 104.16 67.5675C104.012 67.482 103.867 67.3421 103.683 67.1233C103.397 66.7889 103.104 66.5635 102.83 66.4048C102.026 65.9409 100.982 65.8454 99.73 66.1094C98.6717 66.4287 97.4027 67.1619 95.8561 68.3269C93.9662 69.7448 92.6401 71.0653 91.8686 72.255C91.0874 73.6081 90.9934 74.9916 91.5655 76.3932C91.9256 77.1367 92.3443 77.6322 92.8518 77.9251L92.8941 77.9496ZM93.6222 74.9306L93.601 74.9184C93.453 74.833 93.4539 74.6361 93.637 74.319C93.698 74.2133 93.7802 74.1198 93.8502 74.0474C93.9202 73.975 94.0357 73.8726 94.209 73.7189C94.8021 73.1311 95.5897 72.4017 96.5594 71.5521C97.1371 71.0399 97.4804 70.787 97.6105 70.8058C97.7317 70.7912 97.835 70.7099 97.9205 70.5619C98.0059 70.4139 98.1882 70.2936 98.4672 70.2009C98.725 70.0961 99.0407 69.94 99.3718 69.7083C99.7029 69.4766 99.9486 69.3929 100.142 69.4483C100.323 69.5248 100.566 69.4956 100.866 69.4152C101.166 69.3348 101.375 69.3145 101.481 69.3755C101.565 69.4244 101.547 69.5545 101.425 69.7659L101.355 69.8383C101.205 70.1465 101.106 70.5125 101.005 70.9329C100.903 71.3534 100.871 71.7015 100.909 71.9773C100.938 72.2196 100.916 72.4043 100.843 72.5311C100.712 72.7092 100.29 73.0011 99.5919 73.3311C98.8817 73.6822 98.1081 73.9967 97.2467 74.3169C96.3852 74.6371 95.6849 74.8247 95.0878 74.9311C94.3485 75.0399 93.8547 75.0649 93.6222 74.9306ZM93.8678 77.5814C93.6986 77.4838 93.6385 77.3926 93.6751 77.3292C93.7605 77.1812 94.0696 77.1341 94.6268 77.1457C95.3051 77.1427 96.1901 76.977 97.3028 76.661C98.3945 76.3328 99.4593 75.9045 100.473 75.4184C101.071 75.1152 101.395 74.9925 101.459 75.0291C101.522 75.0657 101.528 75.1536 101.467 75.2593C101.394 75.3862 101.302 75.4463 101.172 75.4276C101.139 75.4365 100.732 75.6527 100.019 76.0584C99.2842 76.4518 98.4317 76.8053 97.4735 77.0978C96.124 77.5309 95.0511 77.729 94.2793 77.6499C94.0825 77.649 93.9312 77.618 93.8678 77.5814ZM103.694 72.9647C103.73 72.9013 103.804 72.7745 103.91 72.6387C104.029 72.4817 104.157 72.3581 104.284 72.2345C104.412 72.111 104.524 72.063 104.591 72.0451C104.621 72.0907 104.597 72.133 104.548 72.2175C104.45 72.3867 104.195 72.6339 103.751 72.9135L103.694 72.9647ZM104.573 73.4441C104.522 73.3863 104.537 73.3107 104.586 73.2261L104.692 73.0903C104.796 73.009 104.862 72.9911 104.905 73.0156C104.935 73.0611 104.919 73.1367 104.834 73.2848C104.761 73.4116 104.67 73.4718 104.573 73.4441ZM105.182 72.5838C105.11 72.5138 105.08 72.4682 105.116 72.4048C105.165 72.3202 105.223 72.269 105.286 72.3056C105.329 72.33 105.359 72.3756 105.347 72.3967C105.343 72.4512 105.331 72.4724 105.319 72.4935C105.27 72.5781 105.225 72.6082 105.182 72.5838ZM110.584 76.0691L110.881 76.0431C111.766 75.8775 112.47 75.6353 112.995 75.2622C112.814 75.1857 112.605 75.2059 112.347 75.3108C112.11 75.4278 111.877 75.4904 111.656 75.5318C111.434 75.5732 111.189 75.6569 110.873 75.813C110.703 75.9121 110.579 75.9812 110.554 76.0235C110.542 76.0447 110.563 76.0569 110.584 76.0691ZM109.512 76.8032L109.763 76.8073C109.776 76.7862 109.797 76.7984 109.797 76.7984C109.809 76.7772 109.809 76.7772 109.809 76.7772C109.83 76.7895 109.842 76.7683 109.854 76.7472C109.652 76.6584 109.543 76.6519 109.482 76.7576C109.47 76.7788 109.491 76.791 109.512 76.8032ZM112.546 74.918C112.651 74.979 112.751 74.9522 112.812 74.8465C112.816 74.792 112.786 74.7464 112.734 74.6887C112.613 74.7033 112.546 74.7212 112.522 74.7634C112.485 74.8269 112.482 74.8814 112.503 74.8936L112.546 74.918ZM108.286 76.6312C108.434 76.7166 108.522 76.711 108.547 76.6687C108.559 76.6475 108.517 76.6231 108.453 76.5865C108.281 76.5433 108.205 76.5278 108.193 76.549C108.181 76.5701 108.19 76.6035 108.211 76.6157L108.286 76.6312ZM112.032 87.6736C112.18 87.759 112.558 87.8364 113.187 87.918L113.435 87.9766C114.543 88.1087 115.652 88.044 116.737 87.8248C116.903 87.7801 117.034 87.7988 117.118 87.8477C117.224 87.9087 117.378 87.8852 117.582 87.777C117.806 87.6811 118.04 87.6186 118.27 87.6105C119.097 87.4961 119.906 87.315 120.71 87.046C121.835 86.7089 122.405 86.5024 122.466 86.3967C122.34 86.3235 121.8 86.3786 120.794 86.5589C118.503 87.012 116.848 87.2408 115.852 87.2576L114.928 87.3443C114.907 87.3321 114.886 87.3199 114.852 87.3288C114.146 87.4286 113.614 87.3748 113.284 87.2128C113.2 87.164 113.148 87.1062 113.143 87.0184C113.255 86.9704 113.564 86.9234 114.07 86.8772C114.246 86.8658 114.421 86.8545 114.618 86.8554C116.233 86.7445 117.257 86.6309 117.699 86.5481C118.305 86.4751 118.936 86.3598 119.557 86.2112L119.866 86.1641C121.264 85.8433 122.443 85.5094 123.417 85.1412C123.675 85.0364 123.963 84.9771 124.263 84.8967C124.948 84.7847 125.397 84.5928 125.673 84.3579C125.795 84.1464 125.814 84.0163 125.784 83.9708C125.754 83.9252 125.724 83.8796 125.736 83.8585C125.748 83.8374 125.861 83.7894 126.039 83.7236C126.855 83.4335 127.69 83.0132 128.498 82.493C127.814 82.4081 127.199 82.4478 126.656 82.5574C125.793 82.7353 124.938 82.9465 124.049 83.1666C120.481 84.1228 117.587 84.5944 115.355 84.6026C115.246 84.5961 115.17 84.5806 115.128 84.5562C115.001 84.483 115.023 84.2983 115.182 84.0235C115.39 83.664 116.019 83.0128 117.117 82.0395L117.904 81.3102C118.239 81.024 118.561 80.759 118.883 80.4939C119.606 79.9248 120.044 79.5573 120.142 79.3882C120.215 79.2613 120.249 79.0555 120.265 78.7831L120.349 78.2959C120.476 77.8331 120.474 77.494 120.399 77.2817L120.36 77.2028C120.288 77.1328 120.261 77.0327 120.259 76.8904C120.248 76.5179 119.978 76.1079 119.486 75.7393C118.763 75.3787 117.042 75.6254 114.356 76.4704C113.664 76.6915 113.264 76.7987 113.1 76.7889C112.992 76.7823 112.916 76.7669 112.84 76.7514C112.689 76.7204 112.547 76.7228 112.456 76.783C112.355 76.8098 112.289 76.8277 112.268 76.8154C112.268 76.8154 112.268 76.8154 112.28 76.7943C112.316 76.7309 112.581 76.517 113.097 76.1105L113.225 75.987C113.66 75.6739 113.903 75.4479 113.964 75.3422C114.074 75.1519 114.015 74.864 113.783 74.5329C113.671 74.384 113.581 74.2473 113.545 74.1139C113.268 73.2769 113.033 72.8034 112.831 72.7147C112.598 72.5804 112.149 72.7722 111.484 73.2901C110.983 73.621 110.259 74.1901 109.317 74.943C108.412 75.6324 107.032 76.7528 105.123 78.3008C103.959 79.2919 103.284 79.9732 103.076 80.3327C102.967 80.523 102.945 80.7076 103.028 80.9533C103.091 81.1867 103.078 81.4047 102.989 81.6072C102.873 81.9064 102.872 82.1033 102.99 82.1432C103.053 82.1798 103.183 82.1985 103.392 82.1783C103.601 82.158 103.71 82.1646 103.774 82.2012C103.795 82.2134 103.813 82.2801 103.797 82.3557C103.651 82.6094 103.843 82.8616 104.33 83.1424C105.532 83.1599 106.654 82.8772 107.74 82.2643L108.438 81.9343C107.022 82.3852 106.297 82.6152 106.234 82.5785C106.213 82.5663 106.225 82.5452 106.237 82.524C106.31 82.3972 107.645 81.8429 110.263 80.8734C110.588 80.7507 111.3 80.5419 112.401 80.247L114.796 79.5158C115.175 79.3963 115.418 79.3671 115.514 79.3948C115.578 79.4314 115.575 79.4859 115.526 79.5705C115.477 79.6551 115.349 79.7787 115.164 79.9535L114.899 80.1673C113.586 81.2698 112.451 82.5033 111.482 83.8889L111.266 84.215C111.058 84.5744 111.005 84.9103 111.077 85.1771C111.106 85.4195 111.081 85.6586 111.025 85.8522C110.968 86.4394 111.25 87.0251 111.905 87.6004L112.032 87.6736ZM105.467 82.0512C105.458 82.0179 105.449 81.9845 105.474 81.9423C105.571 81.7731 105.878 81.5837 106.403 81.4074L107.064 81.1408C108.875 80.4948 110.594 79.9089 112.156 79.4011C114.901 78.5048 116.456 78.1059 116.813 78.1711C116.834 78.1833 116.81 78.2256 116.773 78.2891C116.56 78.5606 116.032 78.7915 115.189 78.9815C114.589 79.1424 112.785 79.6794 109.795 80.6594C109.458 80.8032 108.129 81.2485 105.855 81.9652L105.676 82.031C105.576 82.0578 105.509 82.0757 105.467 82.0512ZM122.597 84.9498L122.534 84.9132C122.491 84.8888 122.495 84.8343 122.556 84.7286C122.568 84.7074 122.58 84.6863 122.58 84.6863C122.592 84.6651 122.613 84.6774 122.656 84.7018C122.719 84.7384 122.737 84.8051 122.688 84.8897C122.651 84.9531 122.618 84.962 122.597 84.9498ZM122.818 84.9084L122.764 84.9051C122.721 84.8807 122.737 84.8051 122.798 84.6994C122.835 84.6359 122.88 84.6059 122.922 84.6303C122.986 84.6669 122.983 84.7214 122.946 84.7848C122.864 84.8783 122.839 84.9206 122.818 84.9084ZM123.188 84.7556C123.188 84.7556 123.167 84.7434 123.146 84.7312C123.146 84.7312 123.137 84.6979 123.153 84.6222C123.214 84.5165 123.271 84.4653 123.335 84.5019C123.386 84.5597 123.404 84.6264 123.355 84.7109C123.343 84.7321 123.31 84.741 123.264 84.7711C123.231 84.78 123.21 84.7678 123.188 84.7556ZM123.971 84.4745C123.929 84.45 123.929 84.45 123.941 84.4289C123.953 84.4078 124.011 84.3565 124.09 84.3175L124.423 84.2282C124.623 84.1745 124.744 84.1599 124.853 84.1665C124.875 84.1787 124.896 84.1909 124.884 84.212L124.859 84.2543C124.622 84.3714 124.431 84.4583 124.256 84.4697C124.101 84.4932 123.992 84.4867 123.971 84.4745Z" fill="#725A1A"/>
</svg>
